<svg xmlns="http://www.w3.org/2000/svg" xmlns:xlink="http://www.w3.org/1999/xlink" id="Layer_1" x="0" y="0" enable-background="new 0 0 32 32" version="1.1" viewBox="0 0 32 32" xml:space="preserve"><g><path fill="#FDB300" fill-rule="evenodd" d="M8.1,4.1L16,3.3l7.9,0.8l6.1,8.2L16,28.7L2,12.4L8.1,4.1z" clip-rule="evenodd"/><g transform="translate(59.000000, 211.881084)"><polygon fill="#EA6C00" fill-rule="evenodd" points="-51.3 -199.9 -43 -183.6 -57 -199.9" clip-rule="evenodd"/><polygon fill="#EA6C00" fill-rule="evenodd" points="-34.7 -199.9 -43 -183.6 -29 -199.9" clip-rule="evenodd"/><polygon fill="#FDAD00" fill-rule="evenodd" points="-51.3 -199.9 -34.7 -199.9 -43 -183.6" clip-rule="evenodd"/></g><g transform="translate(59.000000, 85.000000)"><polygon fill="#FDD231" fill-rule="evenodd" points="-43 -81.7 -50.9 -80.9 -51.3 -72.6" clip-rule="evenodd"/><polygon fill="#FDD231" fill-rule="evenodd" points="-43 -81.7 -35.1 -80.9 -34.7 -72.6" clip-rule="evenodd"/><polygon fill="#FDAD00" fill-rule="evenodd" points="-29 -73 -35.1 -81.2 -34.7 -73" clip-rule="evenodd"/><polygon fill="#FDAD00" fill-rule="evenodd" points="-57 -73 -50.9 -81.2 -51.3 -73" clip-rule="evenodd"/><polygon fill="#FEEEB7" fill-rule="evenodd" points="-43 -82 -51.3 -73 -34.7 -73" clip-rule="evenodd"/></g></g><rect width="32" height="32" fill="none" fill-rule="evenodd" clip-rule="evenodd"/></svg>