<svg xmlns="http://www.w3.org/2000/svg" xmlns:xlink="http://www.w3.org/1999/xlink" width="352" height="352" version="1.1" viewBox="0 0 352 352"><title>Typography_overview_Type-color-5</title><desc>Created with Sketch.</desc><g id="Type-color-5" fill="none" fill-rule="evenodd" stroke="none" stroke-width="1"><rect width="352" height="352" x="0" y="0" fill="#FFF"/><g id="Interactive-text---Do"><rect id="Rectangle-16-Copy-150" width="352" height="352" x="0" y="0"/><g id="Group-10" transform="translate(129.555556, 157.666667)"><path id="Link" fill="#0B6BFE" d="M13.904,29.6666667 L2.728,29.6666667 L2.728,9.192 L5.192,9.192 L5.192,27.496 L13.904,27.496 L13.904,29.6666667 Z M18.3626667,10.9813333 C17.3653333,10.9813333 16.9253333,10.4533333 16.9253333,9.66133333 L16.9253333,9.28 C16.9253333,8.488 17.3653333,7.96 18.3626667,7.96 C19.36,7.96 19.8,8.488 19.8,9.28 L19.8,9.66133333 C19.8,10.4533333 19.36,10.9813333 18.3626667,10.9813333 Z M17.1893333,29.6666667 L17.1893333,14.5306667 L19.536,14.5306667 L19.536,29.6666667 L17.1893333,29.6666667 Z M26.8693333,29.6666667 L24.5226667,29.6666667 L24.5226667,14.5306667 L26.8693333,14.5306667 L26.8693333,16.9946667 L26.9866667,16.9946667 C27.72,15.2933333 29.0106667,14.1786667 31.2693333,14.1786667 C34.3786667,14.1786667 36.344,16.2906667 36.344,19.9573333 L36.344,29.6666667 L33.9973333,29.6666667 L33.9973333,20.368 C33.9973333,17.6693333 32.824,16.2906667 30.5653333,16.2906667 C28.688,16.2906667 26.8693333,17.2293333 26.8693333,19.1653333 L26.8693333,29.6666667 Z M41.184,29.6666667 L41.184,7.96 L43.5306667,7.96 L43.5306667,21.7173333 L43.648,21.7173333 L45.9653333,19.136 L50.248,14.5306667 L53.0933333,14.5306667 L47.4906667,20.5146667 L53.6506667,29.6666667 L50.8053333,29.6666667 L45.7893333,21.952 L43.5306667,24.2693333 L43.5306667,29.6666667 L41.184,29.6666667 Z"/><g id="arrow-right" transform="translate(64.777778, 3.666667)"><g id="artwork" fill="#0064FF" fill-rule="nonzero" transform="translate(1.833333, 4.888889)"><polygon id="Shape" points="11.651 0 10.349 1.302 18.874 9.818 0 9.818 0 11.651 18.874 11.651 10.349 20.167 11.651 21.468 22.376 10.734"/></g><g id="transparent_box"><rect id="Rectangle-path" width="29.333" height="29.333" x="0" y="0"/></g></g></g></g></g></svg>