<svg xmlns="http://www.w3.org/2000/svg" xmlns:xlink="http://www.w3.org/1999/xlink" width="1120" height="311" version="1.1" viewBox="0 0 1120 311"><title>1120</title><desc>Created with Sketch.</desc><g id="1120" fill="none" fill-rule="evenodd" stroke="none" stroke-width="1"><rect width="1120" height="311" x="0" y="0" fill="#F3F3F3"/><g id="Group" transform="translate(0.000000, -1.000000)"><polygon id="Fill-36-Copy-5" fill="#DA1E28" points="0 312 94 312 94 219 0 219"/><polygon id="Fill-36-Copy-6" fill="#FC7B1E" points="94 312 188 312 188 219 94 219"/><polygon id="Fill-36-Copy-7" fill="#FDD13A" points="188 312 281 312 281 219 188 219"/><polygon id="Fill-36-Copy-8" fill="#24A249" points="281 312 374 312 374 219 281 219"/><g id="Group-24-Copy" transform="translate(0.000000, 1.000000)"><g id="Group-3"><polygon id="Fill-9" fill="#171717" points="93.333 93.453 187.001 93.453 187.001 0 93.333 0"/><polygon id="Fill-10" fill="#252525" points="186.667 93.453 280.335 93.453 280.335 0 186.667 0"/><polygon id="Fill-11" fill="#3D3D3D" points="280 93.453 374.668 93.453 374.668 0 280 0"/><polygon id="Fill-12" fill="#565656" points="373.333 93.453 467.001 93.453 467.001 0 373.333 0"/><polygon id="Fill-13" fill="#767676" points="466.667 93.453 560.335 93.453 560.335 0 466.667 0"/><polygon id="Fill-14" fill="#8C8C8C" points="560 93.453 654.668 93.453 654.668 0 560 0"/><polygon id="Fill-15" fill="#A4A4A4" points="653 93.453 746.668 93.453 746.668 0 653 0"/><polygon id="Fill-16" fill="#BEBEBE" points="746 93.453 840.668 93.453 840.668 0 746 0"/><polygon id="Fill-18" fill="#000" points="0 93.453 93.668 93.453 93.668 0 0 0"/><polygon id="Fill-19" fill="#FFF" points="1026.667 93 1120 93 1120 0 1026.667 0"/><polygon id="Fill-32" fill="#DCDCDC" points="840 93.453 933.668 93.453 933.668 0 840 0"/><polygon id="Fill-33" fill="#F3F3F3" points="933 93.453 1026.668 93.453 1026.668 0 933 0"/></g></g><g id="Group-23-Copy" transform="translate(0.000000, 93.000000)"><polygon id="Fill-15" fill="#051243" points="93 93.453 187.698 93.453 187.698 0 93 0"/><polygon id="Fill-16" fill="#051B75" points="187 93.453 280.698 93.453 280.698 0 187 0"/><polygon id="Fill-17" fill="#0530AD" points="280 93.453 373.698 93.453 373.698 0 280 0"/><polygon id="Fill-18" fill="#054ADA" points="373 93.453 467.698 93.453 467.698 0 373 0"/><polygon id="Fill-19" fill="#0F6FFF" points="467 93.453 560.698 93.453 560.698 0 467 0"/><polygon id="Fill-20" fill="#418CFF" points="560 93.453 654.698 93.453 654.698 0 560 0"/><polygon id="Fill-21" fill="#6EA6FF" points="653 93.453 746.698 93.453 746.698 0 653 0"/><polygon id="Fill-22" fill="#97C1FF" points="746 93.453 840.698 93.453 840.698 0 746 0"/><polygon id="Fill-23" fill="#C9DEFF" points="840 93.453 933.698 93.453 933.698 0 840 0"/><polygon id="Fill-24" fill="#EDF4FF" points="933 93.453 1026.698 93.453 1026.698 0 933 0"/><polygon id="Fill-18-Copy" fill="#000" points="0 93.453 93.698 93.453 93.698 0 0 0"/></g><polygon id="Fill-34-Copy" fill="#FFF" points="1026.7 186.4 1120.7 186.4 1120.7 .4 1026.7 .4"/></g></g></svg>