<svg xmlns="http://www.w3.org/2000/svg" xmlns:xlink="http://www.w3.org/1999/xlink" width="98" height="208" version="1.1" viewBox="0 0 98 208"><title>ui-01</title><desc>Created with Sketch.</desc><g id="Page-1" fill="none" fill-rule="evenodd" stroke="none" stroke-width="1"><g id="UI-color-contrast" transform="translate(-202.000000, -245.000000)"><g id="Table" transform="translate(0.000000, 177.000000)"><g id="ui-01" transform="translate(202.000000, 68.000000)"><rect id="Rectangle-96" width="97" height="207" x=".5" y=".5" fill="#FFF" stroke="#E0E5E7"/><g id="4.5:1-contrast" transform="translate(58.000000, 73.000000)"><rect id="Rectangle-4" width="22" height="22" x="1" y="1" stroke="#5A6872" stroke-width="2"/><rect id="Rectangle-5" width="20" height="10" x="2" y="2" fill="#5A6872"/></g><g id="4.5:1-contrast-copy-2" transform="translate(58.000000, 25.000000)"><rect id="Rectangle-4" width="22" height="22" x="1" y="1" stroke="#3D70B2" stroke-width="2"/><rect id="Rectangle-5" width="20" height="10" x="2" y="2" fill="#3D70B2"/></g><g id="3:1-contrast" transform="translate(16.000000, 73.000000)"><path id="Combined-Shape" fill="#5A6872" d="M0.041073777,12 L23.9589262,12 C23.9861287,12.3297334 24,12.6632468 24,13 C24,19.627417 18.627417,25 12,25 C5.372583,25 0,19.627417 0,13 C0,12.6632468 0.0138713289,12.3297334 0.041073777,12 Z"/><circle id="Oval" cx="12" cy="12" r="12" stroke="#5A6872" stroke-width="2"/></g><g id="3:1-contrast-copy-3" transform="translate(16.000000, 122.000000)"><path id="Combined-Shape" fill="#8897A2" d="M0.041073777,12 L23.9589262,12 C23.9861287,12.3297334 24,12.6632468 24,13 C24,19.627417 18.627417,25 12,25 C5.372583,25 0,19.627417 0,13 C0,12.6632468 0.0138713289,12.3297334 0.041073777,12 Z"/><circle id="Oval" cx="12" cy="12" r="12" stroke="#8897A2" stroke-width="2"/></g><g id="3:1-contrast-copy-2" transform="translate(16.000000, 24.000000)"><path id="Combined-Shape" fill="#3D70B2" d="M0.041073777,12 L23.9589262,12 C23.9861287,12.3297334 24,12.6632468 24,13 C24,19.627417 18.627417,25 12,25 C5.372583,25 0,19.627417 0,13 C0,12.6632468 0.0138713289,12.3297334 0.041073777,12 Z"/><circle id="Oval" cx="12" cy="12" r="12" stroke="#3D70B2" stroke-width="2"/></g></g></g></g></g></svg>