<svg xmlns="http://www.w3.org/2000/svg" xmlns:xlink="http://www.w3.org/1999/xlink" width="352" height="352" version="1.1" viewBox="0 0 352 352"><title>iconography-usage-sizing-6</title><desc>Created with Sketch.</desc><g id="sizing-6" fill="none" fill-rule="evenodd" stroke="none" stroke-width="1"><rect id="Rectangle-3" width="352" height="352" x="0" y="0"/><g id="Page-1" transform="translate(59.000000, 130.000000)"><polygon id="Fill-1" fill="#000" points="25.755 70.616 25.755 25.027 53.291 25.027 53.291 29.86 31.315 29.86 31.315 44.49 51.372 44.49 51.372 49.324 31.315 49.324 31.315 70.616"/><g id="Group-9" fill="#000" transform="translate(61.527631, 0.000000)"><path id="Fill-2" d="M0.699404588,70.6155453 L5.99500145,70.6155453 L5.99500145,36.9139954 L0.699404588,36.9139954 L0.699404588,70.6155453 Z M0.103615495,26.0721743 L0.103615495,25.2231007 C0.103615495,23.459696 1.09659732,22.283972 3.34711116,22.283972 C5.59780872,22.283972 6.59079054,23.459696 6.59079054,25.2231007 L6.59079054,26.0721743 C6.59079054,27.835579 5.59780872,29.011303 3.34711116,29.011303 C1.09659732,29.011303 0.103615495,27.835579 0.103615495,26.0721743 Z"/><path id="Fill-4" d="M22.874535,70.6156178 C19.2338466,70.6156178 17.2480667,68.32979 17.2480667,65.1947073 L17.2480667,22.2840445 L22.5434798,22.2840445 L22.5434798,66.0435996 L27.5741591,66.0435996 L27.5741591,70.6156178 L22.874535,70.6156178 Z"/><path id="Fill-5" d="M38.2969482,50.6950903 L38.2969482,51.1522558 L57.1621331,51.1522558 L57.1621331,50.4338787 C57.1621331,44.4903637 53.5214447,40.5063887 48.0935727,40.5063887 C42.3348293,40.5063887 38.2969482,44.8170141 38.2969482,50.6950903 M32.7366174,53.7649154 C32.7366174,43.0536094 38.826416,36.1303244 48.0935727,36.1303244 C57.2282706,36.1303244 62.8547389,43.0536094 62.8547389,52.5891914 L62.8547389,55.0711545 L38.2969482,55.0711545 L38.2969482,56.6386052 C38.2969482,62.4514238 42.0699116,66.8274881 48.4244442,66.8274881 C52.7270592,66.8274881 56.0368761,64.7374329 57.8240597,61.0146695 L61.5970232,63.6924054 C59.4128306,68.2644236 54.5142428,71.3993251 48.0935727,71.3993251 C38.826416,71.3993251 32.7366174,64.4760401 32.7366174,53.7649154"/><path id="Fill-6" d="M143.770044,66.5071858 L102.398986,66.5071858 L102.398986,5.27618376 L123.084423,5.27618376 L123.084423,20.5837983 C123.084423,23.3904179 125.411547,25.6865782 128.255829,25.6865782 L143.770044,25.6865782 L143.770044,66.5071858 Z M128.255829,6.29655847 L142.735727,20.5837983 L128.255829,20.5837983 L128.255829,6.29655847 Z M148.165803,18.7980973 L130.065793,0.938911498 C129.548818,0.42863351 129.031475,0.17340388 128.255829,0.17340388 L102.398986,0.17340388 C99.5545204,0.17340388 97.2273972,2.46956419 97.2273972,5.27618376 L97.2273972,66.5071858 C97.2273972,69.3136241 99.5545204,71.6097844 102.398986,71.6097844 L143.770044,71.6097844 C146.614326,71.6097844 148.94145,69.3136241 148.94145,66.5071858 L148.94145,20.5837983 C148.94145,19.8186532 148.682962,19.308194 148.165803,18.7980973 Z"/><polygon id="Fill-7" points="110.156 56.302 136.013 56.302 136.013 51.199 110.156 51.199"/><polygon id="Fill-8" points="110.156 40.994 136.013 40.994 136.013 35.892 110.156 35.892"/></g><g id="Group-28" stroke="#97C1FF" stroke-width="1.222" transform="translate(0.000000, 69.958333)"><path id="Path-3" d="M117.5,-116.283333 L117.5,118.716667" transform="translate(117.500000, 1.216667) rotate(90.000000) translate(-117.500000, -1.216667)"/></g></g></g></svg>