<svg xmlns="http://www.w3.org/2000/svg" xmlns:xlink="http://www.w3.org/1999/xlink" width="1120" height="630" version="1.1" viewBox="0 0 1120 630"><title>iconography_usage_Sizing-2</title><desc>Created with Sketch.</desc><g id="Sizing-2" fill="none" fill-rule="evenodd" stroke="none" stroke-width="1"><g id="Sizing-alignment-example-comp"><polygon id="Fill-1" fill="#000" points="0 629.813 1120 629.813 1120 0 0 0"/><path id="Path-4" stroke="#DCDCDC" stroke-linecap="square" stroke-width="1.207" d="M20.5172414,189.482759 L1099.49356,189.482759" opacity=".25"/><path id="Path-4" stroke="#DCDCDC" stroke-linecap="square" stroke-width="1.207" d="M20.5172414,217.241379 L1099.49356,217.241379" opacity=".25"/><path id="Path-4" stroke="#DCDCDC" stroke-linecap="square" stroke-width="1.207" d="M20.5172414,246.206897 L1099.49356,246.206897" opacity=".25"/><path id="Path-4" stroke="#DCDCDC" stroke-linecap="square" stroke-width="1.207" d="M20.5172414,368.586678 L1099.49356,368.586678" opacity=".25"/><path id="Path-4" stroke="#DCDCDC" stroke-linecap="square" stroke-width="1.207" d="M20.5172414,400.569437 L1099.49356,400.569437" opacity=".25"/><path id="Path-4" stroke="#DCDCDC" stroke-linecap="square" stroke-width="1.207" d="M20.5172414,432.552196 L1099.49356,432.552196" opacity=".25"/><g id="Group-66" fill="#FFF" transform="translate(187.068966, 176.347749)"><polygon id="Fill-2" points="1.144 256.87 1.144 250.338 10.294 250.338 10.294 198.251 1.144 198.251 1.144 191.714 27.287 191.714 27.287 198.251 18.137 198.251 18.137 250.338 27.287 250.338 27.287 256.87"/><path id="Fill-3" d="M49.4019731,249.961569 L68.7290665,249.961569 C75.4509331,249.961569 79.5594665,246.413714 79.5594665,239.881569 L79.5594665,236.709549 C79.5594665,230.17218 75.4509331,226.623951 68.7290665,226.623951 L49.4019731,226.623951 L49.4019731,249.961569 Z M49.4019731,219.904075 L67.4216531,219.904075 C73.5838931,219.904075 77.3194665,216.640989 77.3194665,210.848945 L77.3194665,207.676925 C77.3194665,201.890852 73.5838931,198.621794 67.4216531,198.621794 L49.4019731,198.621794 L49.4019731,219.904075 Z M41.5574931,191.714188 L68.3561065,191.714188 C79.0924265,191.714188 85.7220798,198.342624 85.7220798,208.519662 C85.7220798,218.223826 79.4668798,221.680989 75.1716798,222.330023 L75.1716798,222.893963 C79.8402131,223.17276 87.9635731,227.187517 87.9635731,238.013589 C87.9635731,248.748595 80.7742931,256.869922 71.1568531,256.869922 L41.5574931,256.869922 L41.5574931,191.714188 Z"/><polygon id="Fill-5" points="153.205 201.982 152.738 201.982 147.23 212.905 131.637 241.283 116.136 212.905 110.627 202.079 110.16 202.079 110.16 256.87 102.504 256.87 102.504 191.714 112.775 191.714 131.45 226.812 131.823 226.812 150.591 191.714 160.862 191.714 160.862 256.87 153.205 256.87"/><path id="Fill-7" d="M208.06681,222.147704 L226.18057,222.147704 C232.34281,222.147704 235.984304,218.787579 235.984304,212.813776 L235.984304,207.955909 C235.984304,201.982105 232.34281,198.621981 226.18057,198.621981 L208.06681,198.621981 L208.06681,222.147704 Z M200.22233,256.869736 L200.22233,191.714001 L226.18057,191.714001 C237.851344,191.714001 244.386917,198.901152 244.386917,210.38223 C244.386917,221.868533 237.851344,229.055684 226.18057,229.055684 L208.06681,229.055684 L208.06681,256.869736 L200.22233,256.869736 Z"/><path id="Fill-9" d="M263.972021,256.86981 C258.836448,256.86981 256.034954,253.600752 256.034954,249.124692 L256.034954,187.795983 L263.504608,187.795983 L263.504608,250.337666 L270.601301,250.337666 L270.601301,256.86981 L263.972021,256.86981 Z"/><path id="Fill-11" d="M285.715776,228.400678 L285.715776,229.055684 L312.326229,229.055684 L312.326229,228.024842 C312.326229,219.533652 307.190656,213.838646 299.534709,213.838646 C291.410976,213.838646 285.715776,220.000553 285.715776,228.400678 M277.871669,232.785672 C277.871669,217.477568 286.462069,207.585672 299.534709,207.585672 C312.419936,207.585672 320.355509,217.477568 320.355509,231.105796 L320.355509,234.653652 L285.715776,234.653652 L285.715776,236.891868 C285.715776,245.200927 291.038016,251.4539 300.001749,251.4539 C306.069909,251.4539 310.738069,248.469611 313.260309,243.150814 L318.582549,246.977467 C315.500682,253.509611 308.590656,257.991643 299.534709,257.991643 C286.462069,257.991643 277.871669,248.093776 277.871669,232.785672"/><polygon id="Fill-13" points="325.565 256.87 343.399 232.598 326.311 208.702 335.088 208.702 347.32 226.624 347.601 226.624 360.299 208.702 368.609 208.702 351.616 232.04 368.982 256.87 360.485 256.87 347.693 237.547 347.413 237.547 333.595 256.87"/><polygon id="Fill-15" points="401.166 256.87 401.166 249.961 419.373 249.961 419.373 198.81 400.978 209.733 397.898 203.759 418.627 191.714 427.216 191.714 427.216 249.961 444.023 249.961 444.023 256.87"/><path id="Fill-17" d="M490.591925,237.455696 L490.591925,236.709624 C490.591925,227.933664 485.550432,222.985104 476.959658,222.985104 C468.369632,222.985104 463.327765,227.933664 463.327765,236.709624 L463.327765,237.455696 C463.327765,246.225684 468.369632,251.174991 476.959658,251.174991 C485.550432,251.174991 490.591925,246.225684 490.591925,237.455696 M455.204405,232.973664 C455.204405,213.650803 467.996298,198.530803 478.453738,191.713889 L488.538218,191.713889 C474.625578,201.890927 466.875552,210.382118 463.327765,225.507716 L463.793685,225.695447 C466.875552,220.371052 471.544085,216.355921 479.480405,216.355921 C490.684512,216.355921 498.715285,224.106638 498.715285,236.424855 C498.715285,249.215945 490.124512,257.991531 477.052245,257.991531 C463.514432,257.991531 455.204405,248.469873 455.204405,232.973664"/><path id="Fill-19" d="M546.404512,236.891831 L546.404512,228.679811 C546.404512,220.091582 541.174858,214.30551 532.772245,214.30551 C525.956672,214.30551 520.353685,218.223602 520.353685,223.548745 L520.353685,241.470901 C520.353685,247.723502 525.956672,251.271357 532.772245,251.271357 C541.174858,251.271357 546.404512,245.48006 546.404512,236.891831 Z M512.884032,208.701944 L520.353685,208.701944 L520.353685,216.543727 L520.727018,216.543727 C523.247765,210.478484 528.196672,207.586008 534.825952,207.586008 C546.871552,207.586008 554.433792,217.386464 554.433792,232.785634 C554.433792,248.190403 546.871552,257.991606 534.825952,257.991606 C528.196672,257.991606 523.620725,255.001719 520.727018,249.027915 L520.353685,249.027915 L520.353685,275.537554 L512.884032,275.537554 L512.884032,208.701944 Z"/><path id="Fill-21" d="M577.100613,256.86981 C571.96504,256.86981 569.163546,253.600752 569.163546,248.936588 L569.163546,215.239799 L561.226853,215.239799 L561.226853,208.701682 L565.70872,208.701682 C568.883173,208.701682 569.911333,207.585746 569.911333,204.316688 L569.911333,195.358596 L576.633573,195.358596 L576.633573,208.701682 L587.185093,208.701682 L587.185093,215.239799 L576.633573,215.239799 L576.633573,250.337666 L586.437306,250.337666 L586.437306,256.86981 L577.100613,256.86981 Z"/><path id="Fill-23" d="M686.426762,268.031522 C662.264256,268.031522 642.676576,248.449644 642.676576,224.294294 C642.676576,200.139318 662.264256,180.55744 686.426762,180.55744 C710.589269,180.55744 730.176949,200.139318 730.176949,224.294294 C730.176949,248.449644 710.589269,268.031522 686.426762,268.031522 M686.426762,173.268027 C658.237109,173.268027 635.385002,196.113364 635.385002,224.294294 C635.385002,252.475598 658.237109,275.320935 686.426762,275.320935 C714.616416,275.320935 737.468522,252.475598 737.468522,224.294294 C737.468522,196.113364 714.616416,173.268027 686.426762,173.268027"/><polygon id="Fill-25" points="711.948 211.21 706.807 206.071 679.135 233.768 666.047 220.683 660.906 225.822 679.136 244.047"/><polygon id="Fill-40" points="1.144 69.672 1.144 63.954 9.152 63.954 9.152 18.372 1.144 18.372 1.144 12.654 24.025 12.654 24.025 18.372 16.017 18.372 16.017 63.954 24.025 63.954 24.025 69.672"/><path id="Fill-42" d="M43.3706611,63.6293655 L60.2852745,63.6293655 C66.1682611,63.6293655 69.7627145,60.5256451 69.7627145,54.8022743 L69.7627145,52.028856 C69.7627145,46.3110835 66.1682611,43.2073632 60.2852745,43.2073632 L43.3706611,43.2073632 L43.3706611,63.6293655 Z M43.3706611,37.3246262 L59.1413811,37.3246262 C64.5334345,37.3246262 67.8030878,34.4657399 67.8030878,29.4026001 L67.8030878,26.6235835 C67.8030878,21.5608169 64.5334345,18.7023039 59.1413811,18.7023039 L43.3706611,18.7023039 L43.3706611,37.3246262 Z M36.5073011,12.653856 L59.9593545,12.653856 C69.3557811,12.653856 75.1562611,18.4514982 75.1562611,27.3584591 C75.1562611,35.8552482 69.6820745,38.8735006 65.9233545,39.4486368 L65.9233545,39.9383051 C70.0094878,40.1835124 77.1173811,43.6970314 77.1173811,53.1735302 C77.1173811,62.5641878 70.8252211,69.6714686 62.4099145,69.6714686 L36.5073011,69.6714686 L36.5073011,12.653856 Z"/><polygon id="Fill-44" points="134.206 21.641 133.797 21.641 128.976 31.197 115.33 56.032 101.766 31.197 96.944 21.72 96.537 21.72 96.537 69.672 89.836 69.672 89.836 12.654 98.824 12.654 115.166 43.367 115.494 43.367 131.917 12.654 140.905 12.654 140.905 69.672 134.206 69.672"/><path id="Fill-46" d="M182.202538,39.2835231 L198.055018,39.2835231 C203.448192,39.2835231 206.635338,36.3447672 206.635338,31.1170361 L206.635338,26.8686416 C206.635338,21.6409105 203.448192,18.7021546 198.055018,18.7021546 L182.202538,18.7021546 L182.202538,39.2835231 Z M175.339552,69.6716925 L175.339552,12.65408 L198.055018,12.65408 C208.269045,12.65408 213.988512,18.9469887 213.988512,28.9926523 C213.988512,39.038689 208.269045,45.3315977 198.055018,45.3315977 L182.202538,45.3315977 L182.202538,69.6716925 L175.339552,69.6716925 Z"/><path id="Fill-48" d="M231.12089,69.6716552 C226.62633,69.6716552 224.175397,66.812769 224.175397,62.8890782 L224.175397,9.22561848 L230.71209,9.22561848 L230.71209,63.9538827 L236.92137,63.9538827 L236.92137,69.6716552 L231.12089,69.6716552 Z"/><path id="Fill-50" d="M250.146293,44.7563122 L250.146293,45.3318217 L273.43408,45.3318217 L273.43408,44.4316084 C273.43408,36.9943987 268.93952,32.0167269 262.240426,32.0167269 C255.13104,32.0167269 250.146293,37.4041973 250.146293,44.7563122 M243.283306,48.5949082 C243.283306,35.2003169 250.8,26.5381902 262.240426,26.5381902 C273.515466,26.5381902 280.460586,35.2003169 280.460586,47.1255302 L280.460586,50.2292506 L250.146293,50.2292506 L250.146293,52.1882968 C250.146293,59.4605421 254.803253,64.9334805 262.64736,64.9334805 C267.95952,64.9334805 272.04528,62.3194283 274.251306,57.6612352 L278.908266,61.015388 C276.212426,66.7331605 270.165546,70.651253 262.240426,70.651253 C250.8,70.651253 243.283306,61.9947245 243.283306,48.5949082"/><polygon id="Fill-52" points="285.014 69.672 300.621 48.435 285.668 27.524 293.348 27.524 304.052 43.207 304.297 43.207 315.41 27.524 322.683 27.524 307.81 47.946 323.008 69.672 315.573 69.672 304.379 52.764 304.135 52.764 292.04 69.672"/><polygon id="Fill-54" points="351.164 69.672 351.164 63.63 367.098 63.63 367.098 18.861 351.001 28.417 348.305 23.19 366.444 12.654 373.962 12.654 373.962 63.63 388.669 63.63 388.669 69.672"/><path id="Fill-56" d="M402.533381,52.7634704 L423.615514,52.7634704 L423.615514,17.9615687 L423.206714,17.9615687 L402.533381,52.7634704 Z M423.615514,69.6715806 L423.615514,58.4812429 L396.077701,58.4812429 L396.077701,52.4331682 L419.938181,12.653968 L430.152208,12.653968 L430.152208,52.7634704 L438.405114,52.7634704 L438.405114,58.4812429 L430.152208,58.4812429 L430.152208,69.6715806 L423.615514,69.6715806 Z"/><path id="Fill-58" d="M478.25296,52.1882968 L478.25296,45.0011463 C478.25296,37.4896653 473.67552,32.4213004 466.32272,32.4213004 C460.356853,32.4213004 455.45536,35.8553229 455.45536,40.5079177 L455.45536,56.1918572 C455.45536,61.6647956 460.356853,64.768516 466.32272,64.768516 C473.67552,64.768516 478.25296,59.7057494 478.25296,52.1882968 Z M448.918293,27.5234982 L455.45536,27.5234982 L455.45536,34.3859449 L455.78128,34.3859449 C457.987306,29.0723726 462.317973,26.5381902 468.119946,26.5381902 C478.660266,26.5381902 485.279466,35.1204473 485.279466,48.5949082 C485.279466,62.0745942 478.660266,70.651253 468.119946,70.651253 C462.317973,70.651253 458.31472,68.0372008 455.78128,62.8094698 L455.45536,62.8094698 L455.45536,86.0104887 L448.918293,86.0104887 L448.918293,27.5234982 Z"/><path id="Fill-60" d="M505.109626,69.6716552 C500.615066,69.6716552 498.164133,66.812769 498.164133,62.7293389 L498.164133,33.2413827 L491.218266,33.2413827 L491.218266,27.5236102 L495.140506,27.5236102 C497.918853,27.5236102 498.817466,26.5383021 498.817466,23.6794159 L498.817466,15.8376327 L504.700826,15.8376327 L504.700826,27.5236102 L513.933733,27.5236102 L513.933733,33.2413827 L504.700826,33.2413827 L504.700826,63.9538827 L513.280026,63.9538827 L513.280026,69.6716552 L505.109626,69.6716552 Z"/><path id="Fill-62" d="M601.500373,76.1545717 C582.170666,76.1545717 566.500373,60.4892932 566.500373,41.164939 C566.500373,21.8409579 582.170666,6.17530628 601.500373,6.17530628 C620.83008,6.17530628 636.500373,21.8409579 636.500373,41.164939 C636.500373,60.4892932 620.83008,76.1545717 601.500373,76.1545717 M601.500373,0.343700829 C578.9488,0.343700829 560.66704,18.6200456 560.66704,41.164939 C560.66704,63.7098323 578.9488,81.9861771 601.500373,81.9861771 C624.051946,81.9861771 642.333706,63.7098323 642.333706,41.164939 C642.333706,18.6200456 624.051946,0.343700829 601.500373,0.343700829"/><polygon id="Fill-64" points="621.917 30.697 617.804 26.586 595.667 48.744 585.196 38.276 581.084 42.387 595.667 56.967"/></g></g></g></svg>