<svg xmlns="http://www.w3.org/2000/svg" xmlns:xlink="http://www.w3.org/1999/xlink" width="288" height="288" version="1.1" viewBox="0 0 288 288"><title>Artboard Copy 65</title><desc>Created with Sketch.</desc><defs><polygon id="path-1" points="0 211 211 211 211 0 0 0"/></defs><g id="Artboard-Copy-65" fill="none" fill-rule="evenodd" stroke="none" stroke-width="1"><rect id="Rectangle-3-Copy-80" width="288" height="288" x="0" y="0" fill="#FFF"/><path id="8X-Copy" fill="#6F6F6F" d="M244.322,74.144 C243.841998,74.144 243.422002,74.0820006 243.062,73.958 C242.701998,73.8339994 242.400001,73.6640011 242.156,73.448 C241.911999,73.2319989 241.728001,72.9760015 241.604,72.68 C241.479999,72.3839985 241.418,72.0640017 241.418,71.72 C241.418,71.1439971 241.573998,70.6880017 241.886,70.352 C242.198002,70.0159983 242.605997,69.7800007 243.11,69.644 L243.11,69.548 C242.669998,69.3959992 242.320001,69.1500017 242.06,68.81 C241.799999,68.4699983 241.67,68.0600024 241.67,67.58 C241.67,66.9399968 241.901998,66.4300019 242.366,66.05 C242.830002,65.6699981 243.481996,65.48 244.322,65.48 C245.162004,65.48 245.813998,65.6699981 246.278,66.05 C246.742002,66.4300019 246.974,66.9399968 246.974,67.58 C246.974,68.0600024 246.844001,68.4699983 246.584,68.81 C246.323999,69.1500017 245.974002,69.3959992 245.534,69.548 L245.534,69.644 C246.038003,69.7800007 246.445998,70.0159983 246.758,70.352 C247.070002,70.6880017 247.226,71.1439971 247.226,71.72 C247.226,72.0640017 247.164001,72.3839985 247.04,72.68 C246.915999,72.9760015 246.732001,73.2319989 246.488,73.448 C246.243999,73.6640011 245.942002,73.8339994 245.582,73.958 C245.221998,74.0820006 244.802002,74.144 244.322,74.144 Z M244.322,73.268 C244.906003,73.268 245.357998,73.1380013 245.678,72.878 C245.998002,72.6179987 246.158,72.2480024 246.158,71.768 L246.158,71.516 C246.158,71.0359976 245.998002,70.6660013 245.678,70.406 C245.357998,70.1459987 244.906003,70.016 244.322,70.016 C243.737997,70.016 243.286002,70.1459987 242.966,70.406 C242.645998,70.6660013 242.486,71.0359976 242.486,71.516 L242.486,71.768 C242.486,72.2480024 242.645998,72.6179987 242.966,72.878 C243.286002,73.1380013 243.737997,73.268 244.322,73.268 Z M244.322,69.176 C244.850003,69.176 245.249999,69.0640011 245.522,68.84 C245.794001,68.6159989 245.93,68.2880022 245.93,67.856 L245.93,67.676 C245.93,67.2439978 245.794001,66.9160011 245.522,66.692 C245.249999,66.4679989 244.850003,66.356 244.322,66.356 C243.793997,66.356 243.394001,66.4679989 243.122,66.692 C242.849999,66.9160011 242.714,67.2439978 242.714,67.676 L242.714,67.856 C242.714,68.2880022 242.849999,68.6159989 243.122,68.84 C243.394001,69.0640011 243.793997,69.176 244.322,69.176 Z M254.99,74 L253.778,74 L251.582,70.484 L251.558,70.484 L249.302,74 L248.21,74 L250.97,69.776 L248.282,65.624 L249.494,65.624 L251.594,68.96 L251.618,68.96 L253.766,65.624 L254.918,65.624 L252.23,69.704 L254.99,74 Z"/><path id="12X-Copy" fill="#6F6F6F" d="M256.178,148 L256.178,147.112 L258.518,147.112 L258.518,140.536 L256.154,141.94 L255.758,141.172 L258.422,139.624 L259.526,139.624 L259.526,147.112 L261.686,147.112 L261.686,148 L256.178,148 Z M268.718,148 L263.222,148 L263.222,146.968 L265.958,144.448 C266.350002,144.087998 266.677999,143.706002 266.942,143.302 C267.206001,142.897998 267.338,142.492002 267.338,142.084 L267.338,141.94 C267.338,141.475998 267.210001,141.100001 266.954,140.812 C266.697999,140.523999 266.310003,140.38 265.79,140.38 C265.533999,140.38 265.310001,140.416 265.118,140.488 C264.925999,140.56 264.760001,140.659999 264.62,140.788 C264.479999,140.916001 264.364,141.065999 264.272,141.238 C264.18,141.410001 264.106,141.595999 264.05,141.796 L263.15,141.448 C263.23,141.199999 263.339999,140.958001 263.48,140.722 C263.620001,140.485999 263.795999,140.276001 264.008,140.092 C264.220001,139.907999 264.475999,139.760001 264.776,139.648 C265.076002,139.535999 265.429998,139.48 265.838,139.48 C266.246002,139.48 266.609998,139.539999 266.93,139.66 C267.250002,139.780001 267.517999,139.947999 267.734,140.164 C267.950001,140.380001 268.115999,140.635999 268.232,140.932 C268.348001,141.228001 268.406,141.555998 268.406,141.916 C268.406,142.244002 268.36,142.547999 268.268,142.828 C268.176,143.108001 268.050001,143.373999 267.89,143.626 C267.729999,143.878001 267.536001,144.123999 267.308,144.364 C267.079999,144.604001 266.834001,144.843999 266.57,145.084 L264.314,147.112 L268.718,147.112 L268.718,148 Z M276.59,148 L275.378,148 L273.182,144.484 L273.158,144.484 L270.902,148 L269.81,148 L272.57,143.776 L269.882,139.624 L271.094,139.624 L273.194,142.96 L273.218,142.96 L275.366,139.624 L276.518,139.624 L273.83,143.704 L276.59,148 Z"/><g id="Group-40" transform="translate(39.000000, 39.000000)"><path id="Fill-1" fill="#DBDBDB" d="M45.3931751,165.606825 L165.606825,165.606825 L165.606825,45.3931751 L45.3931751,45.3931751 L45.3931751,165.606825 Z M49.1498516,161.850148 L161.850148,161.850148 L161.850148,49.1498516 L49.1498516,49.1498516 L49.1498516,161.850148 Z"/><g id="Group-39"><path id="Fill-2" fill="#000" d="M97.9683018,58.1232997 C73.5868448,59.9646973 54.2362039,80.5825905 54.2362039,105.470573 C54.2362039,131.660869 75.5453255,152.964982 101.736248,152.964982 C114.007432,152.964982 125.462791,148.371819 134.319156,139.963125 C107.894067,138.546858 86.8322602,116.600979 86.8322602,89.8315282 C86.8322602,78.1138279 90.7648745,66.9721513 97.9683018,58.1232997 M101.736248,155.672294 C74.054551,155.672294 51.532649,133.150392 51.532649,105.470573 C51.532649,78.0624866 73.7408685,55.5518546 101.03688,55.287635 C101.534014,55.1811958 102.068088,55.5994392 102.285975,56.0946944 C102.504489,56.5899496 102.40932,57.1659733 102.040539,57.5623027 C93.9768329,66.2496172 89.5358151,77.7099852 89.5358151,89.8315282 C89.5358151,116.021825 110.844937,137.329068 137.035234,137.329068 C137.573064,137.329068 138.295599,137.637116 138.510355,138.132371 C138.72699,138.623869 138.864109,139.185493 138.497207,139.581822 C129.004711,149.806243 115.605272,155.672294 101.736248,155.672294"/><path id="Fill-4" fill="#000" d="M143.066766,66.579516 L136.90519,66.579516 L136.90519,60.4198187 C136.90519,59.6716139 136.299739,59.0661629 135.553412,59.0661629 C134.807086,59.0661629 134.201635,59.6716139 134.201635,60.4198187 L134.201635,66.579516 L128.040059,66.579516 C127.293733,66.579516 126.688282,67.1849671 126.688282,67.9331718 C126.688282,68.6813766 127.293733,69.2868276 128.040059,69.2868276 L134.201635,69.2868276 L134.201635,75.4465249 C134.201635,76.1947297 134.807086,76.8001807 135.553412,76.8001807 C136.299739,76.8001807 136.90519,76.1947297 136.90519,75.4465249 L136.90519,69.2868276 L143.066766,69.2868276 C143.813092,69.2868276 144.418543,68.6813766 144.418543,67.9331718 C144.418543,67.1849671 143.813092,66.579516 143.066766,66.579516"/><path id="Fill-6" fill="#000" d="M120.526706,81.6062223 L114.365131,81.6062223 L114.365131,75.4465249 C114.365131,74.6983202 113.75968,74.0928691 113.013353,74.0928691 C112.267027,74.0928691 111.661576,74.6983202 111.661576,75.4465249 L111.661576,81.6062223 L105.5,81.6062223 C104.753674,81.6062223 104.148223,82.2116733 104.148223,82.959878 C104.148223,83.7080828 104.753674,84.3135338 105.5,84.3135338 L111.661576,84.3135338 L111.661576,90.4732312 C111.661576,91.2214359 112.267027,91.8268869 113.013353,91.8268869 C113.75968,91.8268869 114.365131,91.2214359 114.365131,90.4732312 L114.365131,84.3135338 L120.526706,84.3135338 C121.273033,84.3135338 121.878484,83.7080828 121.878484,82.959878 C121.878484,82.2116733 121.273033,81.6062223 120.526706,81.6062223"/><path id="Fill-8" fill="#000" d="M158.093472,115.416311 L151.931896,115.416311 L151.931896,109.256614 C151.931896,108.508409 151.326445,107.902958 150.580119,107.902958 C149.833792,107.902958 149.228341,108.508409 149.228341,109.256614 L149.228341,115.416311 L143.066766,115.416311 C142.320439,115.416311 141.714988,116.021762 141.714988,116.769967 C141.714988,117.518172 142.320439,118.123623 143.066766,118.123623 L149.228341,118.123623 L149.228341,124.28332 C149.228341,125.031525 149.833792,125.636976 150.580119,125.636976 C151.326445,125.636976 151.931896,125.031525 151.931896,124.28332 L151.931896,118.123623 L158.093472,118.123623 C158.839798,118.123623 159.445249,117.518172 159.445249,116.769967 C159.445249,116.021762 158.839798,115.416311 158.093472,115.416311"/><mask id="mask-2" fill="#fff"><use xlink:href="#path-1"/></mask><polygon id="Fill-10" fill="#F975A5" points="161.85 49.15 165.607 49.15 165.607 45.393 161.85 45.393" mask="url(#mask-2)"/><polygon id="Fill-12" fill="#FFD0E2" points="165.607 52.907 195.66 52.907 195.66 45.393 165.607 45.393" mask="url(#mask-2)"/><polygon id="Fill-13" fill="#F975A5" points="161.85 105.5 165.607 105.5 165.607 101.743 161.85 101.743" mask="url(#mask-2)"/><polygon id="Fill-14" fill="#FFD0E2" points="165.607 109.257 210.687 109.257 210.687 101.743 165.607 101.743" mask="url(#mask-2)"/><path id="Fill-15" fill="#95C0FF" d="M15.652819,195.347181 L45.0801187,195.347181 L45.0801187,165.919881 L15.652819,165.919881 L15.652819,195.347181 Z M15.652819,165.293769 L45.0801187,165.293769 L45.0801187,45.7062315 L15.652819,45.7062315 L15.652819,165.293769 Z M15.652819,45.0801187 L45.0801187,45.0801187 L45.0801187,15.652819 L15.652819,15.652819 L15.652819,45.0801187 Z M45.7062315,195.347181 L165.293769,195.347181 L165.293769,165.919881 L45.7062315,165.919881 L45.7062315,195.347181 Z M45.7062315,165.293769 L165.293769,165.293769 L165.293769,45.7062315 L45.7062315,45.7062315 L45.7062315,165.293769 Z M45.7062315,45.0801187 L165.293769,45.0801187 L165.293769,15.652819 L45.7062315,15.652819 L45.7062315,45.0801187 Z M165.919881,45.0801187 L195.347181,45.0801187 L195.347181,15.652819 L165.919881,15.652819 L165.919881,45.0801187 Z M188.459941,165.293769 L195.347181,165.293769 L195.347181,45.7062315 L188.459941,45.7062315 L188.459941,165.293769 Z M173.433234,165.293769 L180.320475,165.293769 L180.320475,45.7062315 L173.433234,45.7062315 L173.433234,165.293769 Z M180.946588,165.293769 L187.833828,165.293769 L187.833828,45.7062315 L180.946588,45.7062315 L180.946588,165.293769 Z M165.919881,165.293769 L172.807122,165.293769 L172.807122,45.7062315 L165.919881,45.7062315 L165.919881,165.293769 Z M165.919881,195.347181 L195.347181,195.347181 L195.347181,165.919881 L165.919881,165.919881 L165.919881,195.347181 Z M15.0267062,195.973294 L195.973294,195.973294 L195.973294,15.0267062 L15.0267062,15.0267062 L15.0267062,195.973294 Z" mask="url(#mask-2)"/><polygon id="Fill-16" fill="#95C0FF" points="202.861 144.319 203.487 144.319 203.487 66.681 202.861 66.681" mask="url(#mask-2)"/><path id="Fill-17" fill="#006AFE" d="M105.5,0.62611276 C47.6722255,0.62611276 0.62611276,47.6728516 0.62611276,105.5 C0.62611276,163.327148 47.6722255,210.373887 105.5,210.373887 C163.327774,210.373887 210.373887,163.327148 210.373887,105.5 C210.373887,47.6728516 163.327774,0.62611276 105.5,0.62611276 M105.5,211 C47.3272374,211 0,163.672763 0,105.5 C0,47.3272374 47.3272374,0 105.5,0 C163.672763,0 211,47.3272374 211,105.5 C211,163.672763 163.672763,211 105.5,211" mask="url(#mask-2)"/><polygon id="Fill-18" fill="#0062FF" points="165.607 52.907 169.364 52.907 169.364 49.15 165.607 49.15" mask="url(#mask-2)"/><polygon id="Fill-19" fill="#0062FF" points="165.607 109.257 169.364 109.257 169.364 105.5 165.607 105.5" mask="url(#mask-2)"/><polygon id="Fill-20" fill="#0062FF" points="169.364 49.35 173.12 49.35 173.12 45.593 169.364 45.593" mask="url(#mask-2)"/><polygon id="Fill-21" fill="#0062FF" points="169.364 105.5 173.12 105.5 173.12 101.743 169.364 101.743" mask="url(#mask-2)"/><polygon id="Fill-22" fill="#0062FF" points="173.12 52.907 176.877 52.907 176.877 49.15 173.12 49.15" mask="url(#mask-2)"/><polygon id="Fill-23" fill="#0062FF" points="173.12 109.257 176.877 109.257 176.877 105.5 173.12 105.5" mask="url(#mask-2)"/><polygon id="Fill-24" fill="#0062FF" points="176.877 49.35 180.634 49.35 180.634 45.593 176.877 45.593" mask="url(#mask-2)"/><polygon id="Fill-25" fill="#0062FF" points="176.877 105.5 180.634 105.5 180.634 101.743 176.877 101.743" mask="url(#mask-2)"/><polygon id="Fill-26" fill="#0062FF" points="180.634 52.907 184.39 52.907 184.39 49.15 180.634 49.15" mask="url(#mask-2)"/><polygon id="Fill-27" fill="#0062FF" points="180.634 109.257 184.39 109.257 184.39 105.5 180.634 105.5" mask="url(#mask-2)"/><polygon id="Fill-28" fill="#0062FF" points="184.39 49.35 188.147 49.35 188.147 45.593 184.39 45.593" mask="url(#mask-2)"/><polygon id="Fill-29" fill="#0062FF" points="184.39 105.5 188.147 105.5 188.147 101.743 184.39 101.743" mask="url(#mask-2)"/><polygon id="Fill-30" fill="#0062FF" points="188.147 52.907 191.904 52.907 191.904 49.15 188.147 49.15" mask="url(#mask-2)"/><polygon id="Fill-31" fill="#0062FF" points="188.147 109.257 191.904 109.257 191.904 105.5 188.147 105.5" mask="url(#mask-2)"/><polygon id="Fill-32" fill="#0062FF" points="191.904 49.35 195.66 49.35 195.66 45.593 191.904 45.593" mask="url(#mask-2)"/><polygon id="Fill-33" fill="#0062FF" points="191.904 105.5 195.66 105.5 195.66 101.743 191.904 101.743" mask="url(#mask-2)"/><polygon id="Fill-34" fill="#0062FF" points="195.66 109.257 199.417 109.257 199.417 105.5 195.66 105.5" mask="url(#mask-2)"/><polygon id="Fill-35" fill="#0062FF" points="199.417 105.5 203.174 105.5 203.174 101.743 199.417 101.743" mask="url(#mask-2)"/><polygon id="Fill-36" fill="#0062FF" points="203.174 109.257 206.93 109.257 206.93 105.5 203.174 105.5" mask="url(#mask-2)"/><polygon id="Fill-37" fill="#0062FF" points="206.93 105.5 210.687 105.5 210.687 101.743 206.93 101.743" mask="url(#mask-2)"/><polygon id="Fill-38" fill="#006AFE" points="108.631 105.071 105.813 105.071 105.813 102.253 105.187 102.253 105.187 105.071 102.369 105.071 102.369 105.697 105.187 105.697 105.187 108.514 105.813 108.514 105.813 105.697 108.631 105.697" mask="url(#mask-2)"/></g></g></g></svg>