<svg xmlns="http://www.w3.org/2000/svg" xmlns:xlink="http://www.w3.org/1999/xlink" width="1120" height="630" version="1.1" viewBox="0 0 1120 630"><title>Layout_overview_Hybrid</title><desc>Created with Sketch.</desc><defs><path id="path-1" d="M0.618601748,45.1822578 C0.618601748,69.7552167 20.5994382,89.7455805 45.1579276,89.7455805 C69.716417,89.7455805 89.6972534,69.7552167 89.6972534,45.1822578 C89.6972534,20.6105368 69.716417,0.618935038 45.1579276,0.618935038 C20.5994382,0.618935038 0.618601748,20.6105368 0.618601748,45.1822578 Z"/></defs><g id="Hybrid" fill="none" fill-rule="evenodd" stroke="none" stroke-width="1"><g id="Group" transform="translate(65.000000, 77.000000)"><g id="Group-8-Copy"><g id="Group-15-Copy-2"><g id="Group-14"><path id="Rectangle-17-Copy-502" fill="#D8D8D8" stroke="#BEBEBE" stroke-width="1.21" d="M0.632203496,24.0897246 L990.367797,24.0897246 L990.367797,477.122302 L0.632203496,477.122302 L0.632203496,24.0897246 Z"/><path id="Rectangle-2-Copy-25" fill="#565656" d="M3.0624,0 L987.9376,-4.4408921e-16 C989.628917,-6.38468052e-14 991,1.37108318 991,3.0624 L991,23.4599883 L0,23.4599883 L-4.4408921e-16,3.0624 C-6.51215783e-16,1.37108318 1.37108318,7.54779069e-16 3.0624,4.4408921e-16 Z"/><ellipse id="Oval-5-Copy-18" cx="17.321" cy="12.347" fill="#FFF" rx="3.712" ry="3.704"/><ellipse id="Oval-5-Copy-19" cx="32.167" cy="12.347" fill="#FFF" rx="3.712" ry="3.704"/></g></g><rect id="Rectangle-26-Copy" width="991" height="3.714" x="0" y="21.044" fill="#565656"/></g><polygon id="Rectangle-27-Copy-7" fill="#FFF" points="14.846 39.612 253.627 39.612 253.627 247.574 14.846 247.574"/><polygon id="Rectangle-27-Copy-11" fill="#FFF" points="14.846 248.812 253.627 248.812 253.627 476.58 14.846 476.58"/><polygon id="Rectangle-27-Copy-12" fill="#FFF" points="254.864 39.612 493.644 39.612 493.644 247.574 254.864 247.574"/><polygon id="Rectangle-27-Copy-13" fill="#FFF" points="254.864 458.012 493.644 458.012 493.644 476.58 254.864 476.58"/><polygon id="Rectangle-27-Copy-14" fill="#FFF" points="254.864 248.812 493.644 248.812 493.644 456.774 254.864 456.774"/><polygon id="Rectangle-27-Copy-15" fill="#FFF" points="494.881 39.612 733.662 39.612 733.662 247.574 494.881 247.574"/><polygon id="Rectangle-27-Copy-16" fill="#FFF" points="494.881 458.012 733.662 458.012 733.662 476.58 494.881 476.58"/><rect id="Rectangle-27-Copy-17" width="480.035" height="207.962" x="494.881" y="248.812" fill="#FFF"/><polygon id="Rectangle-27-Copy-18" fill="#FFF" points="734.899 39.612 974.916 39.612 974.916 247.574 734.899 247.574"/><polygon id="Rectangle-27-Copy-19" fill="#FFF" points="734.899 458.012 974.916 458.012 974.916 476.58 734.899 476.58"/><g id="Page-1-Copy-44" transform="translate(450.342072, 193.107732)"><g id="Group-3"><mask id="mask-2" fill="#fff"><use xlink:href="#path-1"/></mask></g></g></g></g></svg>