<svg xmlns="http://www.w3.org/2000/svg" xmlns:xlink="http://www.w3.org/1999/xlink" width="1120" height="630" version="1.1" viewBox="0 0 1120 630"><title>Layout_overview_Gutters</title><desc>Created with Sketch.</desc><defs><rect id="path-1" width="942.6" height="59.296" x="0" y="338.835"/><rect id="path-2" width="458.595" height="59.296" x="0" y="254.127"/><rect id="path-3" width="458.595" height="59.296" x="484.005" y="254.127"/><rect id="path-4" width="216.592" height="59.296" x="0" y="169.418"/><rect id="path-5" width="216.592" height="59.296" x="242.002" y="169.418"/><rect id="path-6" width="216.592" height="59.296" x="484.005" y="169.418"/><rect id="path-7" width="216.592" height="59.296" x="726.007" y="169.418"/><rect id="path-8" width="95.591" height="59.296" x="0" y="84.709"/><rect id="path-9" width="95.591" height="59.296" x="121.001" y="84.709"/><rect id="path-10" width="95.591" height="59.296" x="242.002" y="84.709"/><rect id="path-11" width="95.591" height="59.296" x="363.004" y="84.709"/><rect id="path-12" width="95.591" height="59.296" x="484.005" y="84.709"/><rect id="path-13" width="95.591" height="59.296" x="605.006" y="84.709"/><rect id="path-14" width="95.591" height="59.296" x="726.007" y="84.709"/><rect id="path-15" width="95.591" height="59.296" x="847.009" y="84.709"/><polygon id="path-16" points="60.501 0 95.591 0 95.591 59.296 60.501 59.296"/><polygon id="path-17" points="121.001 0 156.092 0 156.092 59.296 121.001 59.296"/><polygon id="path-18" points="181.502 0 216.592 0 216.592 59.296 181.502 59.296"/><polygon id="path-19" points="242.002 0 277.093 0 277.093 59.296 242.002 59.296"/><polygon id="path-20" points="302.503 0 337.593 0 337.593 59.296 302.503 59.296"/><polygon id="path-21" points="363.004 0 398.094 0 398.094 59.296 363.004 59.296"/><polygon id="path-22" points="423.504 0 458.595 0 458.595 59.296 423.504 59.296"/><polygon id="path-23" points="484.005 0 519.095 0 519.095 59.296 484.005 59.296"/><polygon id="path-24" points="544.505 0 579.596 0 579.596 59.296 544.505 59.296"/><polygon id="path-25" points="605.006 0 640.096 0 640.096 59.296 605.006 59.296"/><polygon id="path-26" points="665.507 0 700.597 0 700.597 59.296 665.507 59.296"/><polygon id="path-27" points="726.007 0 761.098 0 761.098 59.296 726.007 59.296"/><polygon id="path-28" points="0 0 35.09 0 35.09 59.296 0 59.296"/><polygon id="path-29" points="786.508 0 821.598 0 821.598 59.296 786.508 59.296"/><polygon id="path-30" points="847.009 0 882.099 0 882.099 59.296 847.009 59.296"/><polygon id="path-31" points="907.509 0 942.6 0 942.6 59.296 907.509 59.296"/></defs><g id="Gutters" fill="none" fill-rule="evenodd" stroke="none" stroke-width="1"><g id="Group" transform="translate(65.000000, 76.000000)"><g id="containers" transform="translate(24.200244, 48.405063)"><g id="Rectangle-17-Copy-527"><rect width="943.81" height="60.506" x="-.605" y="338.23" stroke="#97C1FF" stroke-width="1.21"/><rect width="930.5" height="47.196" x="6.05" y="344.885" stroke="#EDF4FF" stroke-linejoin="square" stroke-width="12.1"/></g><g id="Rectangle-17-Copy-525"><rect width="459.805" height="60.506" x="-.605" y="253.522" stroke="#97C1FF" stroke-width="1.21"/><rect width="446.495" height="47.196" x="6.05" y="260.177" stroke="#EDF4FF" stroke-linejoin="square" stroke-width="12.1"/></g><g id="Rectangle-17-Copy-526"><rect width="459.805" height="60.506" x="483.4" y="253.522" stroke="#97C1FF" stroke-width="1.21"/><rect width="446.495" height="47.196" x="490.055" y="260.177" stroke="#EDF4FF" stroke-linejoin="square" stroke-width="12.1"/></g><g id="Rectangle-17-Copy-521"><rect width="217.802" height="60.506" x="-.605" y="168.813" stroke="#97C1FF" stroke-width="1.21"/><rect width="204.492" height="47.196" x="6.05" y="175.468" stroke="#EDF4FF" stroke-linejoin="square" stroke-width="12.1"/></g><g id="Rectangle-17-Copy-522"><rect width="217.802" height="60.506" x="241.397" y="168.813" stroke="#97C1FF" stroke-width="1.21"/><rect width="204.492" height="47.196" x="248.052" y="175.468" stroke="#EDF4FF" stroke-linejoin="square" stroke-width="12.1"/></g><g id="Rectangle-17-Copy-523"><rect width="217.802" height="60.506" x="483.4" y="168.813" stroke="#97C1FF" stroke-width="1.21"/><rect width="204.492" height="47.196" x="490.055" y="175.468" stroke="#EDF4FF" stroke-linejoin="square" stroke-width="12.1"/></g><g id="Rectangle-17-Copy-524"><rect width="217.802" height="60.506" x="725.402" y="168.813" stroke="#97C1FF" stroke-width="1.21"/><rect width="204.492" height="47.196" x="732.057" y="175.468" stroke="#EDF4FF" stroke-linejoin="square" stroke-width="12.1"/></g><g id="Rectangle-17-Copy-513"><rect width="96.801" height="60.506" x="-.605" y="84.104" stroke="#97C1FF" stroke-width="1.21"/><rect width="83.491" height="47.196" x="6.05" y="90.759" stroke="#EDF4FF" stroke-linejoin="square" stroke-width="12.1"/></g><g id="Rectangle-17-Copy-514"><rect width="96.801" height="60.506" x="120.396" y="84.104" stroke="#97C1FF" stroke-width="1.21"/><rect width="83.491" height="47.196" x="127.051" y="90.759" stroke="#EDF4FF" stroke-linejoin="square" stroke-width="12.1"/></g><g id="Rectangle-17-Copy-515"><rect width="96.801" height="60.506" x="241.397" y="84.104" stroke="#97C1FF" stroke-width="1.21"/><rect width="83.491" height="47.196" x="248.052" y="90.759" stroke="#EDF4FF" stroke-linejoin="square" stroke-width="12.1"/></g><g id="Rectangle-17-Copy-516"><rect width="96.801" height="60.506" x="362.399" y="84.104" stroke="#97C1FF" stroke-width="1.21"/><rect width="83.491" height="47.196" x="369.054" y="90.759" stroke="#EDF4FF" stroke-linejoin="square" stroke-width="12.1"/></g><g id="Rectangle-17-Copy-517"><rect width="96.801" height="60.506" x="483.4" y="84.104" stroke="#97C1FF" stroke-width="1.21"/><rect width="83.491" height="47.196" x="490.055" y="90.759" stroke="#EDF4FF" stroke-linejoin="square" stroke-width="12.1"/></g><g id="Rectangle-17-Copy-518"><rect width="96.801" height="60.506" x="604.401" y="84.104" stroke="#97C1FF" stroke-width="1.21"/><rect width="83.491" height="47.196" x="611.056" y="90.759" stroke="#EDF4FF" stroke-linejoin="square" stroke-width="12.1"/></g><g id="Rectangle-17-Copy-519"><rect width="96.801" height="60.506" x="725.402" y="84.104" stroke="#97C1FF" stroke-width="1.21"/><rect width="83.491" height="47.196" x="732.057" y="90.759" stroke="#EDF4FF" stroke-linejoin="square" stroke-width="12.1"/></g><g id="Rectangle-17-Copy-520"><rect width="96.801" height="60.506" x="846.404" y="84.104" stroke="#97C1FF" stroke-width="1.21"/><rect width="83.491" height="47.196" x="853.059" y="90.759" stroke="#EDF4FF" stroke-linejoin="square" stroke-width="12.1"/></g><g id="Rectangle-17-Copy-488"><path stroke="#97C1FF" stroke-width="1.21" d="M59.8956105,-0.605 L96.1959646,-0.605 L96.1959646,59.9012025 L59.8956105,59.9012025 L59.8956105,-0.605 Z"/><path stroke="#EDF4FF" stroke-linejoin="square" stroke-width="12.1" d="M66.5506105,6.05 L66.5506105,53.2462025 L89.5409646,53.2462025 L89.5409646,6.05 L66.5506105,6.05 Z"/></g><g id="Rectangle-17-Copy-489"><path stroke="#97C1FF" stroke-width="1.21" d="M120.396221,-0.605 L156.696575,-0.605 L156.696575,59.9012025 L120.396221,59.9012025 L120.396221,-0.605 Z"/><path stroke="#EDF4FF" stroke-linejoin="square" stroke-width="12.1" d="M127.051221,6.05 L127.051221,53.2462025 L150.041575,53.2462025 L150.041575,6.05 L127.051221,6.05 Z"/></g><g id="Rectangle-17-Copy-490"><path stroke="#97C1FF" stroke-width="1.21" d="M180.896832,-0.605 L217.197186,-0.605 L217.197186,59.9012025 L180.896832,59.9012025 L180.896832,-0.605 Z"/><path stroke="#EDF4FF" stroke-linejoin="square" stroke-width="12.1" d="M187.551832,6.05 L187.551832,53.2462025 L210.542186,53.2462025 L210.542186,6.05 L187.551832,6.05 Z"/></g><g id="Rectangle-17-Copy-491"><path stroke="#97C1FF" stroke-width="1.21" d="M241.397442,-0.605 L277.697796,-0.605 L277.697796,59.9012025 L241.397442,59.9012025 L241.397442,-0.605 Z"/><path stroke="#EDF4FF" stroke-linejoin="square" stroke-width="12.1" d="M248.052442,6.05 L248.052442,53.2462025 L271.042796,53.2462025 L271.042796,6.05 L248.052442,6.05 Z"/></g><g id="Rectangle-17-Copy-492"><path stroke="#97C1FF" stroke-width="1.21" d="M301.898053,-0.605 L338.198407,-0.605 L338.198407,59.9012025 L301.898053,59.9012025 L301.898053,-0.605 Z"/><path stroke="#EDF4FF" stroke-linejoin="square" stroke-width="12.1" d="M308.553053,6.05 L308.553053,53.2462025 L331.543407,53.2462025 L331.543407,6.05 L308.553053,6.05 Z"/></g><g id="Rectangle-17-Copy-493"><path stroke="#97C1FF" stroke-width="1.21" d="M362.398663,-0.605 L398.699017,-0.605 L398.699017,59.9012025 L362.398663,59.9012025 L362.398663,-0.605 Z"/><path stroke="#EDF4FF" stroke-linejoin="square" stroke-width="12.1" d="M369.053663,6.05 L369.053663,53.2462025 L392.044017,53.2462025 L392.044017,6.05 L369.053663,6.05 Z"/></g><g id="Rectangle-17-Copy-494"><path stroke="#97C1FF" stroke-width="1.21" d="M422.899274,-0.605 L459.199628,-0.605 L459.199628,59.9012025 L422.899274,59.9012025 L422.899274,-0.605 Z"/><path stroke="#EDF4FF" stroke-linejoin="square" stroke-width="12.1" d="M429.554274,6.05 L429.554274,53.2462025 L452.544628,53.2462025 L452.544628,6.05 L429.554274,6.05 Z"/></g><g id="Rectangle-17-Copy-495"><path stroke="#97C1FF" stroke-width="1.21" d="M483.399884,-0.605 L519.700238,-0.605 L519.700238,59.9012025 L483.399884,59.9012025 L483.399884,-0.605 Z"/><path stroke="#EDF4FF" stroke-linejoin="square" stroke-width="12.1" d="M490.054884,6.05 L490.054884,53.2462025 L513.045238,53.2462025 L513.045238,6.05 L490.054884,6.05 Z"/></g><g id="Rectangle-17-Copy-496"><path stroke="#97C1FF" stroke-width="1.21" d="M543.900495,-0.605 L580.200849,-0.605 L580.200849,59.9012025 L543.900495,59.9012025 L543.900495,-0.605 Z"/><path stroke="#EDF4FF" stroke-linejoin="square" stroke-width="12.1" d="M550.555495,6.05 L550.555495,53.2462025 L573.545849,53.2462025 L573.545849,6.05 L550.555495,6.05 Z"/></g><g id="Rectangle-17-Copy-497"><path stroke="#97C1FF" stroke-width="1.21" d="M604.401105,-0.605 L640.701459,-0.605 L640.701459,59.9012025 L604.401105,59.9012025 L604.401105,-0.605 Z"/><path stroke="#EDF4FF" stroke-linejoin="square" stroke-width="12.1" d="M611.056105,6.05 L611.056105,53.2462025 L634.046459,53.2462025 L634.046459,6.05 L611.056105,6.05 Z"/></g><g id="Rectangle-17-Copy-498"><path stroke="#97C1FF" stroke-width="1.21" d="M664.901716,-0.605 L701.20207,-0.605 L701.20207,59.9012025 L664.901716,59.9012025 L664.901716,-0.605 Z"/><path stroke="#EDF4FF" stroke-linejoin="square" stroke-width="12.1" d="M671.556716,6.05 L671.556716,53.2462025 L694.54707,53.2462025 L694.54707,6.05 L671.556716,6.05 Z"/></g><g id="Rectangle-17-Copy-499"><path stroke="#97C1FF" stroke-width="1.21" d="M725.402326,-0.605 L761.70268,-0.605 L761.70268,59.9012025 L725.402326,59.9012025 L725.402326,-0.605 Z"/><path stroke="#EDF4FF" stroke-linejoin="square" stroke-width="12.1" d="M732.057326,6.05 L732.057326,53.2462025 L755.04768,53.2462025 L755.04768,6.05 L732.057326,6.05 Z"/></g><g id="Rectangle-17-Copy-487"><path stroke="#97C1FF" stroke-width="1.21" d="M-0.605,-0.605 L35.6953541,-0.605 L35.6953541,59.9012025 L-0.605,59.9012025 L-0.605,-0.605 Z"/><path stroke="#EDF4FF" stroke-linejoin="square" stroke-width="12.1" d="M6.05,6.05 L6.05,53.2462025 L29.0403541,53.2462025 L29.0403541,6.05 L6.05,6.05 Z"/></g><g id="Rectangle-17-Copy-500"><path stroke="#97C1FF" stroke-width="1.21" d="M785.902937,-0.605 L822.203291,-0.605 L822.203291,59.9012025 L785.902937,59.9012025 L785.902937,-0.605 Z"/><path stroke="#EDF4FF" stroke-linejoin="square" stroke-width="12.1" d="M792.557937,6.05 L792.557937,53.2462025 L815.548291,53.2462025 L815.548291,6.05 L792.557937,6.05 Z"/></g><g id="Rectangle-17-Copy-501"><path stroke="#97C1FF" stroke-width="1.21" d="M846.403547,-0.605 L882.703901,-0.605 L882.703901,59.9012025 L846.403547,59.9012025 L846.403547,-0.605 Z"/><path stroke="#EDF4FF" stroke-linejoin="square" stroke-width="12.1" d="M853.058547,6.05 L853.058547,53.2462025 L876.048901,53.2462025 L876.048901,6.05 L853.058547,6.05 Z"/></g><g id="Rectangle-17-Copy-502"><path stroke="#97C1FF" stroke-width="1.21" d="M906.904158,-0.605 L943.204512,-0.605 L943.204512,59.9012025 L906.904158,59.9012025 L906.904158,-0.605 Z"/><path stroke="#EDF4FF" stroke-linejoin="square" stroke-width="12.1" d="M913.559158,6.05 L913.559158,53.2462025 L936.549512,53.2462025 L936.549512,6.05 L913.559158,6.05 Z"/></g></g><g id="margins" fill="#FFCFE1" stroke="#FFCFE1" stroke-width="1.21" transform="translate(0.000000, 22.992405)"><rect id="margin" width="10.89" height="453.798" x="979.505" y=".605"/><rect id="margin" width="10.89" height="453.798" x=".605" y=".605"/></g><g id="browser"><rect id="Frame" width="989.79" height="453.797" x=".605" y="23.598" stroke="#BEBEBE" stroke-width="1.21"/><path id="Rectangle-2-Copy-25" fill="#565656" d="M3.0624,0 L987.9376,0 C989.628917,6.27813363e-14 991,1.37108318 991,3.0624 L991,24.144323 L0,24.144323 L0,3.0624 C-2.07126573e-16,1.37108318 1.37108318,-1.33399351e-16 3.0624,-4.4408921e-16 Z"/><ellipse id="Oval-5-Copy-18" cx="15.73" cy="12.092" fill="#FFF" rx="3.63" ry="3.621"/><ellipse id="Oval-5-Copy-19" cx="30.25" cy="12.092" fill="#FFF" rx="3.63" ry="3.621"/></g></g></g></svg>