<svg xmlns="http://www.w3.org/2000/svg" xmlns:xlink="http://www.w3.org/1999/xlink" width="352" height="352" version="1.1" viewBox="0 0 352 352"><title>Layout_overview_Visual-rhythm-do</title><desc>Created with Sketch.</desc><g id="Visual-rhythm-do" fill="none" fill-rule="evenodd" stroke="none" stroke-width="1"><g id="Group" transform="translate(16.000000, 56.000000)"><g id="Group-16" stroke="#DCDCDC" stroke-linecap="square" stroke-width="1.24" opacity=".5" transform="translate(0.000000, 1.239437)"><path id="Line-7" d="M1.86046512,0.57703363 L1.86046512,260.858724"/><path id="Line-7-Copy" d="M8.0620155,0.57703363 L8.0620155,260.858724"/><path id="Line-7-Copy-2" d="M14.2635659,0.57703363 L14.2635659,260.858724"/><path id="Line-7-Copy-3" d="M20.4651163,0.57703363 L20.4651163,260.858724"/><path id="Line-7-Copy-4" d="M26.6666667,0.57703363 L26.6666667,260.858724"/><path id="Line-7-Copy-5" d="M32.8682171,0.57703363 L32.8682171,260.858724"/><path id="Line-7-Copy-6" d="M39.0697674,0.57703363 L39.0697674,260.858724"/><path id="Line-7-Copy-7" d="M45.2713178,0.57703363 L45.2713178,260.858724"/><path id="Line-7-Copy-8" d="M51.4728682,0.57703363 L51.4728682,260.858724"/><path id="Line-7-Copy-9" d="M57.6744186,0.57703363 L57.6744186,260.858724"/><path id="Line-7-Copy-10" d="M63.875969,0.57703363 L63.875969,260.858724"/><path id="Line-7-Copy-11" d="M70.0775194,0.57703363 L70.0775194,260.858724"/><path id="Line-7-Copy-12" d="M76.2790698,0.57703363 L76.2790698,260.858724"/><path id="Line-7-Copy-13" d="M82.4806202,0.57703363 L82.4806202,260.858724"/><path id="Line-7-Copy-14" d="M88.6821705,0.57703363 L88.6821705,260.858724"/><path id="Line-7-Copy-15" d="M94.8837209,0.57703363 L94.8837209,260.858724"/><path id="Line-7-Copy-16" d="M101.085271,0.57703363 L101.085271,260.858724"/><path id="Line-7-Copy-17" d="M107.286822,0.57703363 L107.286822,260.858724"/><path id="Line-7-Copy-18" d="M113.488372,0.57703363 L113.488372,260.858724"/><path id="Line-7-Copy-19" d="M119.689922,0.57703363 L119.689922,260.858724"/><path id="Line-7-Copy-20" d="M125.891473,0.57703363 L125.891473,260.858724"/><path id="Line-7-Copy-21" d="M132.093023,0.57703363 L132.093023,260.858724"/><path id="Line-7-Copy-22" d="M138.294574,0.57703363 L138.294574,260.858724"/><path id="Line-7-Copy-23" d="M144.496124,0.57703363 L144.496124,260.858724"/><path id="Line-7-Copy-24" d="M150.697674,0.57703363 L150.697674,260.858724"/><path id="Line-7-Copy-25" d="M156.899225,0.57703363 L156.899225,260.858724"/><path id="Line-7-Copy-26" d="M163.100775,0.57703363 L163.100775,260.858724"/><path id="Line-7-Copy-27" d="M169.302326,0.57703363 L169.302326,260.858724"/><path id="Line-7-Copy-28" d="M175.503876,0.57703363 L175.503876,260.858724"/><path id="Line-7-Copy-29" d="M181.705426,0.57703363 L181.705426,260.858724"/><path id="Line-7-Copy-30" d="M187.906977,0.57703363 L187.906977,260.858724"/><path id="Line-7-Copy-31" d="M194.108527,0.57703363 L194.108527,260.858724"/><path id="Line-7-Copy-32" d="M200.310078,0.57703363 L200.310078,260.858724"/><path id="Line-7-Copy-33" d="M206.511628,0.57703363 L206.511628,260.858724"/><path id="Line-7-Copy-34" d="M212.713178,0.57703363 L212.713178,260.858724"/><path id="Line-7-Copy-35" d="M218.914729,0.57703363 L218.914729,260.858724"/><path id="Line-7-Copy-36" d="M225.116279,0.57703363 L225.116279,260.858724"/><path id="Line-7-Copy-37" d="M231.317829,0.57703363 L231.317829,260.858724"/><path id="Line-7-Copy-38" d="M237.51938,0.57703363 L237.51938,260.858724"/><path id="Line-7-Copy-39" d="M243.72093,0.57703363 L243.72093,260.858724"/><path id="Line-7-Copy-40" d="M249.922481,0.57703363 L249.922481,260.858724"/><path id="Line-7-Copy-27" d="M256.124031,0.57703363 L256.124031,260.858724"/><path id="Line-7-Copy-28" d="M262.325581,0.57703363 L262.325581,260.858724"/><path id="Line-7-Copy-29" d="M268.527132,0.57703363 L268.527132,260.858724"/><path id="Line-7-Copy-30" d="M274.728682,0.57703363 L274.728682,260.858724"/><path id="Line-7-Copy-31" d="M280.930233,0.57703363 L280.930233,260.858724"/><path id="Line-7-Copy-32" d="M287.131783,0.57703363 L287.131783,260.858724"/><path id="Line-7-Copy-33" d="M293.333333,0.57703363 L293.333333,260.858724"/><path id="Line-7-Copy-34" d="M299.534884,0.57703363 L299.534884,260.858724"/><path id="Line-7-Copy-35" d="M305.736434,0.57703363 L305.736434,260.858724"/><path id="Line-7-Copy-36" d="M311.937984,0.57703363 L311.937984,260.858724"/><path id="Line-7-Copy-37" d="M318.139535,0.57703363 L318.139535,260.858724"/></g><g id="Group-17" stroke="#DCDCDC" stroke-linecap="square" stroke-width="1.24" opacity=".5"><path id="Line-8" d="M0.191862826,1.85915493 L314.85532,1.85915493"/><path id="Line-8-Copy" d="M0.191862826,8.05633803 L314.85532,8.05633803"/><path id="Line-8-Copy-2" d="M0.191862826,14.2535211 L314.85532,14.2535211"/><path id="Line-8-Copy-3" d="M0.191862826,20.4507042 L314.85532,20.4507042"/><path id="Line-8-Copy-4" d="M0.191862826,26.6478873 L314.85532,26.6478873"/><path id="Line-8-Copy-5" d="M0.191862826,32.8450704 L314.85532,32.8450704"/><path id="Line-8-Copy-6" d="M0.191862826,39.0422535 L314.85532,39.0422535"/><path id="Line-8-Copy-7" d="M0.191862826,45.2394366 L314.85532,45.2394366"/><path id="Line-8-Copy-8" d="M0.191862826,51.4366197 L314.85532,51.4366197"/><path id="Line-8-Copy-9" d="M0.191862826,57.6338028 L314.85532,57.6338028"/><path id="Line-8-Copy-10" d="M0.191862826,63.8309859 L314.85532,63.8309859"/><path id="Line-8-Copy-11" d="M0.191862826,70.028169 L314.85532,70.028169"/><path id="Line-8-Copy-12" d="M0.191862826,76.2253521 L314.85532,76.2253521"/><path id="Line-8-Copy-13" d="M0.191862826,82.4225352 L314.85532,82.4225352"/><path id="Line-8-Copy-14" d="M0.191862826,88.6197183 L314.85532,88.6197183"/><path id="Line-8-Copy-15" d="M0.191862826,94.8169014 L314.85532,94.8169014"/><path id="Line-8-Copy-16" d="M0.191862826,101.014085 L314.85532,101.014085"/><path id="Line-8-Copy-17" d="M0.191862826,107.211268 L314.85532,107.211268"/><path id="Line-8-Copy-18" d="M0.191862826,113.408451 L314.85532,113.408451"/><path id="Line-8-Copy-19" d="M0.191862826,119.605634 L314.85532,119.605634"/><path id="Line-8-Copy-20" d="M0.191862826,125.802817 L314.85532,125.802817"/><path id="Line-8-Copy-21" d="M0.191862826,132 L314.85532,132"/><path id="Line-8-Copy-22" d="M0.191862826,138.197183 L314.85532,138.197183"/><path id="Line-8-Copy-23" d="M0.191862826,144.394366 L314.85532,144.394366"/><path id="Line-8-Copy-24" d="M0.191862826,150.591549 L314.85532,150.591549"/><path id="Line-8-Copy-25" d="M0.191862826,156.788732 L314.85532,156.788732"/><path id="Line-8-Copy-26" d="M0.191862826,162.985915 L314.85532,162.985915"/><path id="Line-8-Copy-27" d="M0.191862826,169.183099 L314.85532,169.183099"/><path id="Line-8-Copy-28" d="M0.191862826,175.380282 L314.85532,175.380282"/><path id="Line-8-Copy-29" d="M0.191862826,181.577465 L314.85532,181.577465"/><path id="Line-8-Copy-30" d="M0.191862826,187.774648 L314.85532,187.774648"/><path id="Line-8-Copy-31" d="M0.191862826,193.971831 L314.85532,193.971831"/><path id="Line-8-Copy-32" d="M0.191862826,200.169014 L314.85532,200.169014"/><path id="Line-8-Copy-33" d="M0.191862826,206.366197 L314.85532,206.366197"/><path id="Line-8-Copy-34" d="M0.191862826,212.56338 L314.85532,212.56338"/><path id="Line-8-Copy-35" d="M0.191862826,218.760563 L314.85532,218.760563"/><path id="Line-8-Copy-36" d="M0.191862826,224.957746 L314.85532,224.957746"/><path id="Line-8-Copy-37" d="M0.191862826,231.15493 L314.85532,231.15493"/><path id="Line-8-Copy-38" d="M0.191862826,237.352113 L314.85532,237.352113"/><path id="Line-8-Copy-39" d="M0.191862826,243.549296 L314.85532,243.549296"/><path id="Line-8-Copy-40" d="M0.191862826,249.746479 L314.85532,249.746479"/><path id="Line-8-Copy-41" d="M0.191862826,255.943662 L314.85532,255.943662"/><path id="Line-8-Copy-42" d="M0.191862826,262.140845 L314.85532,262.140845"/></g><rect id="Rectangle-18-Copy-2" width="24.806" height="24.789" x="76.279" y="121.465" fill="#B3E6FF"/><path id="Text-one" fill="#3D3D3D" d="M99.7705426,83.111662 L89.8579845,83.111662 L89.8579845,110.954366 L86.1072868,110.954366 L86.1072868,83.111662 L76.1947287,83.111662 L76.1947287,79.8098028 L99.7705426,79.8098028 L99.7705426,83.111662 Z M110.308217,111.489803 C104.057054,111.489803 99.9491473,106.760113 99.9491473,99.4424789 C99.9491473,92.1248451 104.057054,87.3951549 110.308217,87.3951549 C116.470078,87.3951549 120.265426,92.1248451 120.265426,98.6393239 L120.265426,100.334873 L103.699845,100.334873 L103.699845,101.405746 C103.699845,105.376901 106.244961,108.366423 110.531473,108.366423 C113.433798,108.366423 115.666357,106.938592 116.871938,104.395268 L119.417054,106.224676 C117.943566,109.348056 114.63938,111.489803 110.308217,111.489803 Z M110.308217,90.3846761 C106.423566,90.3846761 103.699845,93.3295775 103.699845,97.3453521 L103.699845,97.6576901 L116.425426,97.6576901 L116.425426,97.1668732 C116.425426,93.1064789 113.969612,90.3846761 110.308217,90.3846761 Z M122.765891,110.954366 L131.294264,99.3532394 L123.123101,87.9305915 L127.32031,87.9305915 L133.169612,96.4975775 L133.303566,96.4975775 L139.376124,87.9305915 L143.350078,87.9305915 L135.223566,99.0855211 L143.528682,110.954366 L139.331473,110.954366 L133.348217,101.941183 L133.214264,101.941183 L126.739845,110.954366 L122.765891,110.954366 Z M157.817054,110.954366 L153.351938,110.954366 C150.896124,110.954366 149.556589,109.392676 149.556589,107.16169 L149.556589,91.0539718 L145.76124,91.0539718 L145.76124,87.9305915 L147.904496,87.9305915 C149.422636,87.9305915 149.913798,87.3951549 149.913798,85.8334648 L149.913798,81.5499718 L153.128682,81.5499718 L153.128682,87.9305915 L158.174264,87.9305915 L158.174264,91.0539718 L153.128682,91.0539718 L153.128682,107.830986 L157.817054,107.830986 L157.817054,110.954366 Z M183.178915,111.489803 C177.017054,111.489803 172.775194,106.760113 172.775194,99.4424789 C172.775194,92.1248451 177.017054,87.3951549 183.178915,87.3951549 C189.340775,87.3951549 193.582636,92.1248451 193.582636,99.4424789 C193.582636,106.760113 189.340775,111.489803 183.178915,111.489803 Z M183.178915,108.321803 C187.018915,108.321803 189.742636,105.956958 189.742636,101.093408 L189.742636,97.7915493 C189.742636,92.928 187.018915,90.5631549 183.178915,90.5631549 C179.338915,90.5631549 176.615194,92.928 176.615194,97.7915493 L176.615194,101.093408 C176.615194,105.956958 179.338915,108.321803 183.178915,108.321803 Z M203.048682,110.954366 L199.476589,110.954366 L199.476589,87.9305915 L203.048682,87.9305915 L203.048682,91.6786479 L203.227287,91.6786479 C204.343566,89.0907042 206.308217,87.3951549 209.746357,87.3951549 C214.47938,87.3951549 217.471008,90.6077746 217.471008,96.1852394 L217.471008,110.954366 L213.898915,110.954366 L213.898915,96.8099155 C213.898915,92.7049014 212.112868,90.6077746 208.674729,90.6077746 C205.817054,90.6077746 203.048682,92.0356056 203.048682,94.980507 L203.048682,110.954366 Z M233.500775,111.489803 C227.249612,111.489803 223.141705,106.760113 223.141705,99.4424789 C223.141705,92.1248451 227.249612,87.3951549 233.500775,87.3951549 C239.662636,87.3951549 243.457984,92.1248451 243.457984,98.6393239 L243.457984,100.334873 L226.892403,100.334873 L226.892403,101.405746 C226.892403,105.376901 229.437519,108.366423 233.724031,108.366423 C236.626357,108.366423 238.858915,106.938592 240.064496,104.395268 L242.609612,106.224676 C241.136124,109.348056 237.831938,111.489803 233.500775,111.489803 Z M233.500775,90.3846761 C229.616124,90.3846761 226.892403,93.3295775 226.892403,97.3453521 L226.892403,97.6576901 L239.617984,97.6576901 L239.617984,97.1668732 C239.617984,93.1064789 237.162171,90.3846761 233.500775,90.3846761 Z"/><path id="Rectangle-5" stroke="#BEBEBE" stroke-width="1.24" d="M76.5767442,69.5824086 L76.5767442,121.637873 L246.499225,121.637873 L246.499225,69.5824086 L76.5767442,69.5824086 Z"/><rect id="Rectangle-8" width="5.309" height="5.304" x="73.798" y="66.31" fill="#FFF" stroke="#BEBEBE" stroke-width="1.24"/><rect id="Rectangle-8-Copy-20" width="5.309" height="5.304" x="73.798" y="118.367" fill="#FFF" stroke="#BEBEBE" stroke-width="1.24"/><rect id="Rectangle-8-Copy-16" width="5.309" height="5.304" x="158.14" y="66.31" fill="#FFF" stroke="#BEBEBE" stroke-width="1.24"/><rect id="Rectangle-8-Copy-21" width="5.309" height="5.304" x="158.14" y="118.367" fill="#FFF" stroke="#BEBEBE" stroke-width="1.24"/><rect id="Rectangle-8-Copy-17" width="5.309" height="5.304" x="244.019" y="66.31" fill="#FFF" stroke="#BEBEBE" stroke-width="1.24"/><rect id="Rectangle-8-Copy-18" width="5.309" height="5.304" x="243.721" y="92.338" fill="#FFF" stroke="#BEBEBE" stroke-width="1.24"/><rect id="Rectangle-8-Copy-22" width="5.309" height="5.304" x="73.798" y="92.338" fill="#FFF" stroke="#BEBEBE" stroke-width="1.24"/><rect id="Rectangle-8-Copy-19" width="5.309" height="5.304" x="243.721" y="118.367" fill="#FFF" stroke="#BEBEBE" stroke-width="1.24"/><path id="Text-two" fill="#3D3D3D" d="M99.7705426,159.956732 L89.8579845,159.956732 L89.8579845,187.799437 L86.1072868,187.799437 L86.1072868,159.956732 L76.1947287,159.956732 L76.1947287,156.654873 L99.7705426,156.654873 L99.7705426,159.956732 Z M110.308217,188.334873 C104.057054,188.334873 99.9491473,183.605183 99.9491473,176.287549 C99.9491473,168.969915 104.057054,164.240225 110.308217,164.240225 C116.470078,164.240225 120.265426,168.969915 120.265426,175.484394 L120.265426,177.179944 L103.699845,177.179944 L103.699845,178.250817 C103.699845,182.221972 106.244961,185.211493 110.531473,185.211493 C113.433798,185.211493 115.666357,183.783662 116.871938,181.240338 L119.417054,183.069746 C117.943566,186.193127 114.63938,188.334873 110.308217,188.334873 Z M110.308217,167.229746 C106.423566,167.229746 103.699845,170.174648 103.699845,174.190423 L103.699845,174.502761 L116.425426,174.502761 L116.425426,174.011944 C116.425426,169.951549 113.969612,167.229746 110.308217,167.229746 Z M122.765891,187.799437 L131.294264,176.19831 L123.123101,164.775662 L127.32031,164.775662 L133.169612,173.342648 L133.303566,173.342648 L139.376124,164.775662 L143.350078,164.775662 L135.223566,175.930592 L143.528682,187.799437 L139.331473,187.799437 L133.348217,178.786254 L133.214264,178.786254 L126.739845,187.799437 L122.765891,187.799437 Z M157.817054,187.799437 L153.351938,187.799437 C150.896124,187.799437 149.556589,186.237746 149.556589,184.006761 L149.556589,167.899042 L145.76124,167.899042 L145.76124,164.775662 L147.904496,164.775662 C149.422636,164.775662 149.913798,164.240225 149.913798,162.678535 L149.913798,158.395042 L153.128682,158.395042 L153.128682,164.775662 L158.174264,164.775662 L158.174264,167.899042 L153.128682,167.899042 L153.128682,184.676056 L157.817054,184.676056 L157.817054,187.799437 Z M184.027287,187.799437 L179.562171,187.799437 C177.106357,187.799437 175.766822,186.237746 175.766822,184.006761 L175.766822,167.899042 L171.971473,167.899042 L171.971473,164.775662 L174.114729,164.775662 C175.632868,164.775662 176.124031,164.240225 176.124031,162.678535 L176.124031,158.395042 L179.338915,158.395042 L179.338915,164.775662 L184.384496,164.775662 L184.384496,167.899042 L179.338915,167.899042 L179.338915,184.676056 L184.027287,184.676056 L184.027287,187.799437 Z M193.895194,187.799437 L187.733333,164.775662 L191.216124,164.775662 L193.671938,174.725859 L196.127752,184.809915 L196.217054,184.809915 L199.030078,174.725859 L201.932403,164.775662 L205.102636,164.775662 L208.094264,174.725859 L210.951938,184.809915 L211.04124,184.809915 L213.407752,174.725859 L215.908217,164.775662 L219.257054,164.775662 L213.139845,187.799437 L208.71938,187.799437 L205.504496,176.733746 L203.495194,169.728451 L203.405891,169.728451 L201.44124,176.733746 L198.226357,187.799437 L193.895194,187.799437 Z M232.92031,188.334873 C226.75845,188.334873 222.516589,183.605183 222.516589,176.287549 C222.516589,168.969915 226.75845,164.240225 232.92031,164.240225 C239.082171,164.240225 243.324031,168.969915 243.324031,176.287549 C243.324031,183.605183 239.082171,188.334873 232.92031,188.334873 Z M232.92031,185.166873 C236.76031,185.166873 239.484031,182.802028 239.484031,177.938479 L239.484031,174.63662 C239.484031,169.77307 236.76031,167.408225 232.92031,167.408225 C229.08031,167.408225 226.356589,169.77307 226.356589,174.63662 L226.356589,177.938479 C226.356589,182.802028 229.08031,185.166873 232.92031,185.166873 Z"/><path id="Rectangle-5" stroke="#BEBEBE" stroke-width="1.24" d="M76.5767442,146.427479 L76.5767442,198.482944 L246.499225,198.482944 L246.499225,146.427479 L76.5767442,146.427479 Z"/><rect id="Rectangle-8" width="5.309" height="5.304" x="73.798" y="143.155" fill="#FFF" stroke="#BEBEBE" stroke-width="1.24"/><rect id="Rectangle-8-Copy-20" width="5.309" height="5.304" x="73.798" y="195.212" fill="#FFF" stroke="#BEBEBE" stroke-width="1.24"/><rect id="Rectangle-8-Copy-16" width="5.309" height="5.304" x="158.14" y="143.155" fill="#FFF" stroke="#BEBEBE" stroke-width="1.24"/><rect id="Rectangle-8-Copy-21" width="5.309" height="5.304" x="158.14" y="195.212" fill="#FFF" stroke="#BEBEBE" stroke-width="1.24"/><rect id="Rectangle-8-Copy-17" width="5.309" height="5.304" x="244.019" y="143.155" fill="#FFF" stroke="#BEBEBE" stroke-width="1.24"/><rect id="Rectangle-8-Copy-18" width="5.309" height="5.304" x="243.721" y="169.184" fill="#FFF" stroke="#BEBEBE" stroke-width="1.24"/><rect id="Rectangle-8-Copy-22" width="5.309" height="5.304" x="73.798" y="169.184" fill="#FFF" stroke="#BEBEBE" stroke-width="1.24"/><rect id="Rectangle-8-Copy-19" width="5.309" height="5.304" x="243.721" y="195.212" fill="#FFF" stroke="#BEBEBE" stroke-width="1.24"/></g></g></svg>