<svg xmlns="http://www.w3.org/2000/svg" xmlns:xlink="http://www.w3.org/1999/xlink" width="1120" height="630" version="1.1" viewBox="0 0 1120 630"><title>Layout_overview_Fluid-base-unit</title><desc>Created with Sketch.</desc><g id="Fluid-base-unit" fill="none" fill-rule="evenodd" stroke="none" stroke-width="1"><g id="Group" transform="translate(14.000000, 0.000000)"><g id="Group-3" stroke="#DCDCDC" stroke-linecap="square" stroke-width="1.207" transform="translate(0.000000, 18.103448)"><g id="Group-6"><g id="Group-16" transform="translate(0.000000, 1.206897)"><path id="Line-7" d="M70.5464206,0.749692118 L70.5464206,587.039606"/><path id="Line-7" d="M60.8949223,0.749692118 L60.8949223,587.039606"/><path id="Line-7" d="M51.243424,0.749692118 L51.243424,587.039606"/><path id="Line-7" d="M688.242314,0.749692118 L688.242314,587.039606"/><path id="Line-7" d="M678.590816,0.749692118 L678.590816,587.039606"/><path id="Line-7" d="M668.939317,0.749692118 L668.939317,587.039606"/><path id="Line-7" d="M659.287819,0.749692118 L659.287819,587.039606"/><path id="Line-7" d="M649.636321,0.749692118 L649.636321,587.039606"/><path id="Line-7" d="M639.984822,0.749692118 L639.984822,587.039606"/><path id="Line-7" d="M765.454301,0.749692118 L765.454301,587.039606"/><path id="Line-7" d="M755.802802,0.749692118 L755.802802,587.039606"/><path id="Line-7" d="M746.151304,0.749692118 L746.151304,587.039606"/><path id="Line-7" d="M736.499806,0.749692118 L736.499806,587.039606"/><path id="Line-7" d="M726.848307,0.749692118 L726.848307,587.039606"/><path id="Line-7" d="M717.196809,0.749692118 L717.196809,587.039606"/><path id="Line-7" d="M707.545311,0.749692118 L707.545311,587.039606"/><path id="Line-7" d="M697.893812,0.749692118 L697.893812,587.039606"/><path id="Line-7" d="M842.666287,0.749692118 L842.666287,587.039606"/><path id="Line-7" d="M833.014789,0.749692118 L833.014789,587.039606"/><path id="Line-7" d="M823.363291,0.749692118 L823.363291,587.039606"/><path id="Line-7" d="M813.711792,0.749692118 L813.711792,587.039606"/><path id="Line-7" d="M804.060294,0.749692118 L804.060294,587.039606"/><path id="Line-7" d="M794.408796,0.749692118 L794.408796,587.039606"/><path id="Line-7" d="M919.878274,0.749692118 L919.878274,587.039606"/><path id="Line-7" d="M910.226776,0.749692118 L910.226776,587.039606"/><path id="Line-7" d="M900.575277,0.749692118 L900.575277,587.039606"/><path id="Line-7" d="M890.923779,0.749692118 L890.923779,587.039606"/><path id="Line-7" d="M881.272281,0.749692118 L881.272281,587.039606"/><path id="Line-7" d="M871.620782,0.749692118 L871.620782,587.039606"/><path id="Line-7" d="M861.969284,0.749692118 L861.969284,587.039606"/><path id="Line-7" d="M852.317786,0.749692118 L852.317786,587.039606"/><path id="Line-7" d="M784.757297,0.749692118 L784.757297,587.039606"/><path id="Line-7" d="M775.105799,0.749692118 L775.105799,587.039606"/><path id="Line-7" d="M997.090261,0.749692118 L997.090261,587.039606"/><path id="Line-7" d="M987.438762,0.749692118 L987.438762,587.039606"/><path id="Line-7" d="M977.787264,0.749692118 L977.787264,587.039606"/><path id="Line-7" d="M968.135766,0.749692118 L968.135766,587.039606"/><path id="Line-7" d="M958.484267,0.749692118 L958.484267,587.039606"/><path id="Line-7" d="M948.832769,0.749692118 L948.832769,587.039606"/><path id="Line-7" d="M1074.30225,0.749692118 L1074.30225,587.039606"/><path id="Line-7" d="M1064.65075,0.749692118 L1064.65075,587.039606"/><path id="Line-7" d="M1054.99925,0.749692118 L1054.99925,587.039606"/><path id="Line-7" d="M1045.34775,0.749692118 L1045.34775,587.039606"/><path id="Line-7" d="M1035.69625,0.749692118 L1035.69625,587.039606"/><path id="Line-7" d="M1026.04476,0.749692118 L1026.04476,587.039606"/><path id="Line-7" d="M1016.39326,0.749692118 L1016.39326,587.039606"/><path id="Line-7" d="M1006.74176,0.749692118 L1006.74176,587.039606"/><path id="Line-7" d="M1083.95375,0.749692118 L1083.95375,587.039606"/><path id="Line-7" d="M939.181271,0.749692118 L939.181271,587.039606"/><path id="Line-7" d="M929.529772,0.749692118 L929.529772,587.039606"/><path id="Line-7" d="M630.333324,0.749692118 L630.333324,587.039606"/><path id="Line-7" d="M620.681826,0.749692118 L620.681826,587.039606"/><path id="Line-7" d="M41.5919256,0.749692118 L41.5919256,587.039606"/><path id="Line-7" d="M31.9404273,0.749692118 L31.9404273,587.039606"/><path id="Line-7" d="M22.288929,0.749692118 L22.288929,587.039606"/><path id="Line-7" d="M147.758407,0.749692118 L147.758407,587.039606"/><path id="Line-7" d="M138.106909,0.749692118 L138.106909,587.039606"/><path id="Line-7" d="M128.455411,0.749692118 L128.455411,587.039606"/><path id="Line-7" d="M118.803912,0.749692118 L118.803912,587.039606"/><path id="Line-7" d="M109.152414,0.749692118 L109.152414,587.039606"/><path id="Line-7" d="M99.5009156,0.749692118 L99.5009156,587.039606"/><path id="Line-7" d="M89.8494173,0.749692118 L89.8494173,587.039606"/><path id="Line-7" d="M80.197919,0.749692118 L80.197919,587.039606"/><path id="Line-7" d="M224.970394,0.749692118 L224.970394,587.039606"/><path id="Line-7" d="M215.318896,0.749692118 L215.318896,587.039606"/><path id="Line-7" d="M205.667397,0.749692118 L205.667397,587.039606"/><path id="Line-7" d="M196.015899,0.749692118 L196.015899,587.039606"/><path id="Line-7" d="M186.364401,0.749692118 L186.364401,587.039606"/><path id="Line-7" d="M176.712902,0.749692118 L176.712902,587.039606"/><path id="Line-7" d="M302.182381,0.749692118 L302.182381,587.039606"/><path id="Line-7" d="M292.530882,0.749692118 L292.530882,587.039606"/><path id="Line-7" d="M282.879384,0.749692118 L282.879384,587.039606"/><path id="Line-7" d="M273.227886,0.749692118 L273.227886,587.039606"/><path id="Line-7" d="M263.576387,0.749692118 L263.576387,587.039606"/><path id="Line-7" d="M253.924889,0.749692118 L253.924889,587.039606"/><path id="Line-7" d="M244.273391,0.749692118 L244.273391,587.039606"/><path id="Line-7" d="M234.621892,0.749692118 L234.621892,587.039606"/><path id="Line-7" d="M167.061404,0.749692118 L167.061404,587.039606"/><path id="Line-7" d="M157.409906,0.749692118 L157.409906,587.039606"/><path id="Line-7" d="M379.394367,0.749692118 L379.394367,587.039606"/><path id="Line-7" d="M369.742869,0.749692118 L369.742869,587.039606"/><path id="Line-7" d="M360.091371,0.749692118 L360.091371,587.039606"/><path id="Line-7" d="M350.439872,0.749692118 L350.439872,587.039606"/><path id="Line-7" d="M340.788374,0.749692118 L340.788374,587.039606"/><path id="Line-7" d="M331.136876,0.749692118 L331.136876,587.039606"/><path id="Line-7" d="M456.606354,0.749692118 L456.606354,587.039606"/><path id="Line-7" d="M446.954856,0.749692118 L446.954856,587.039606"/><path id="Line-7" d="M437.303357,0.749692118 L437.303357,587.039606"/><path id="Line-7" d="M427.651859,0.749692118 L427.651859,587.039606"/><path id="Line-7" d="M418.000361,0.749692118 L418.000361,587.039606"/><path id="Line-7" d="M408.348862,0.749692118 L408.348862,587.039606"/><path id="Line-7" d="M398.697364,0.749692118 L398.697364,587.039606"/><path id="Line-7" d="M389.045866,0.749692118 L389.045866,587.039606"/><path id="Line-7" d="M533.818341,0.749692118 L533.818341,587.039606"/><path id="Line-7" d="M524.166842,0.749692118 L524.166842,587.039606"/><path id="Line-7" d="M514.515344,0.749692118 L514.515344,587.039606"/><path id="Line-7" d="M504.863846,0.749692118 L504.863846,587.039606"/><path id="Line-7" d="M495.212347,0.749692118 L495.212347,587.039606"/><path id="Line-7" d="M485.560849,0.749692118 L485.560849,587.039606"/><path id="Line-7" d="M611.030327,0.749692118 L611.030327,587.039606"/><path id="Line-7" d="M601.378829,0.749692118 L601.378829,587.039606"/><path id="Line-7" d="M591.727331,0.749692118 L591.727331,587.039606"/><path id="Line-7" d="M582.075832,0.749692118 L582.075832,587.039606"/><path id="Line-7" d="M572.424334,0.749692118 L572.424334,587.039606"/><path id="Line-7" d="M562.772836,0.749692118 L562.772836,587.039606"/><path id="Line-7" d="M553.121337,0.749692118 L553.121337,587.039606"/><path id="Line-7" d="M543.469839,0.749692118 L543.469839,587.039606"/><path id="Line-7" d="M475.909351,0.749692118 L475.909351,587.039606"/><path id="Line-7" d="M466.257852,0.749692118 L466.257852,587.039606"/><path id="Line-7" d="M321.485377,0.749692118 L321.485377,587.039606"/><path id="Line-7" d="M311.833879,0.749692118 L311.833879,587.039606"/><path id="Line-7" d="M12.6374306,0.749692118 L12.6374306,587.039606"/><path id="Line-7" d="M2.9859323,0.749692118 L2.9859323,587.039606"/></g><g id="Group-17" transform="translate(3.412875, 0.000000)"><path id="Line-8" d="M0.0954896269,145.951733 L1079.8609,145.951733"/><path id="Line-8-Copy" d="M0.0954896269,155.569146 L1079.8609,155.569146"/><path id="Line-8-Copy-2" d="M0.0954896269,165.186558 L1079.8609,165.186558"/><path id="Line-8-Copy-3" d="M0.0954896269,174.803971 L1079.8609,174.803971"/><path id="Line-8-Copy-4" d="M0.0954896269,184.421384 L1079.8609,184.421384"/><path id="Line-8-Copy-5" d="M0.0954896269,194.038796 L1079.8609,194.038796"/><path id="Line-8-Copy-6" d="M0.0954896269,203.656209 L1079.8609,203.656209"/><path id="Line-8-Copy-7" d="M0.0954896269,213.273622 L1079.8609,213.273622"/><path id="Line-8-Copy-8" d="M0.0954896269,222.891034 L1079.8609,222.891034"/><path id="Line-8-Copy-9" d="M0.0954896269,232.508447 L1079.8609,232.508447"/><path id="Line-8-Copy-10" d="M0.0954896269,242.12586 L1079.8609,242.12586"/><path id="Line-8-Copy-11" d="M0.0954896269,251.743272 L1079.8609,251.743272"/><path id="Line-8-Copy-12" d="M0.0954896269,261.360685 L1079.8609,261.360685"/><path id="Line-8-Copy-13" d="M0.0954896269,270.978098 L1079.8609,270.978098"/><path id="Line-8-Copy-14" d="M0.0954896269,280.595511 L1079.8609,280.595511"/><path id="Line-8-Copy-15" d="M0.0954896269,290.212923 L1079.8609,290.212923"/><path id="Line-8-Copy-16" d="M0.0954896269,299.830336 L1079.8609,299.830336"/><path id="Line-8-Copy-17" d="M0.0954896269,309.447749 L1079.8609,309.447749"/><path id="Line-8-Copy-18" d="M0.0954896269,319.065161 L1079.8609,319.065161"/><path id="Line-8-Copy-19" d="M0.0954896269,328.682574 L1079.8609,328.682574"/><path id="Line-8-Copy-20" d="M0.0954896269,338.299987 L1079.8609,338.299987"/><path id="Line-8-Copy-21" d="M0.0954896269,347.917399 L1079.8609,347.917399"/><path id="Line-8-Copy-22" d="M0.0954896269,357.534812 L1079.8609,357.534812"/><path id="Line-8-Copy-7" d="M0.0954896269,1.6905428 L1079.8609,1.6905428"/><path id="Line-8-Copy-8" d="M0.0954896269,11.3079555 L1079.8609,11.3079555"/><path id="Line-8-Copy-9" d="M0.0954896269,20.9253682 L1079.8609,20.9253682"/><path id="Line-8-Copy-10" d="M0.0954896269,30.5427808 L1079.8609,30.5427808"/><path id="Line-8-Copy-11" d="M0.0954896269,40.1601935 L1079.8609,40.1601935"/><path id="Line-8-Copy-12" d="M0.0954896269,49.7776062 L1079.8609,49.7776062"/><path id="Line-8-Copy-13" d="M0.0954896269,59.3950189 L1079.8609,59.3950189"/><path id="Line-8-Copy-14" d="M0.0954896269,69.0124316 L1079.8609,69.0124316"/><path id="Line-8-Copy-15" d="M0.0954896269,78.6298442 L1079.8609,78.6298442"/><path id="Line-8-Copy-16" d="M0.0954896269,88.2472569 L1079.8609,88.2472569"/><path id="Line-8-Copy-17" d="M0.0954896269,97.8646696 L1079.8609,97.8646696"/><path id="Line-8-Copy-18" d="M0.0954896269,107.482082 L1079.8609,107.482082"/><path id="Line-8-Copy-19" d="M0.0954896269,117.099495 L1079.8609,117.099495"/><path id="Line-8-Copy-20" d="M0.0954896269,126.716908 L1079.8609,126.716908"/><path id="Line-8-Copy-21" d="M0.0954896269,136.33432 L1079.8609,136.33432"/><path id="Line-8-Copy-23" d="M0.0954896269,367.152225 L1079.8609,367.152225"/><path id="Line-8-Copy-24" d="M0.0954896269,376.769637 L1079.8609,376.769637"/><path id="Line-8-Copy-25" d="M0.0954896269,386.38705 L1079.8609,386.38705"/><path id="Line-8-Copy-26" d="M0.0954896269,396.004463 L1079.8609,396.004463"/><path id="Line-8-Copy-27" d="M0.0954896269,405.621875 L1079.8609,405.621875"/><path id="Line-8-Copy-28" d="M0.0954896269,415.239288 L1079.8609,415.239288"/><path id="Line-8-Copy-29" d="M0.0954896269,424.856701 L1079.8609,424.856701"/><path id="Line-8-Copy-30" d="M0.0954896269,434.474113 L1079.8609,434.474113"/><path id="Line-8-Copy-31" d="M0.0954896269,444.091526 L1079.8609,444.091526"/><path id="Line-8-Copy-32" d="M0.0954896269,453.708939 L1079.8609,453.708939"/><path id="Line-8-Copy-33" d="M0.0954896269,463.326351 L1079.8609,463.326351"/><path id="Line-8-Copy-34" d="M0.0954896269,472.943764 L1079.8609,472.943764"/><path id="Line-8-Copy-35" d="M0.0954896269,482.561177 L1079.8609,482.561177"/><path id="Line-8-Copy-36" d="M0.0954896269,492.178589 L1079.8609,492.178589"/><path id="Line-8-Copy-37" d="M0.0954896269,501.796002 L1079.8609,501.796002"/><path id="Line-8-Copy-38" d="M0.0954896269,511.413415 L1079.8609,511.413415"/><path id="Line-8-Copy-39" d="M0.0954896269,521.030828 L1079.8609,521.030828"/><path id="Line-8-Copy-40" d="M0.0954896269,530.64824 L1079.8609,530.64824"/><path id="Line-8-Copy-41" d="M0.0954896269,540.265653 L1079.8609,540.265653"/><path id="Line-8-Copy-42" d="M0.0954896269,549.883066 L1079.8609,549.883066"/><path id="Line-8-Copy-43" d="M0.0954896269,559.500478 L1079.8609,559.500478"/><path id="Line-8-Copy-44" d="M0.0954896269,569.117891 L1079.8609,569.117891"/><path id="Line-8-Copy-45" d="M0.0954896269,578.735304 L1079.8609,578.735304"/><path id="Line-8-Copy-46" d="M0.0954896269,588.352716 L1079.8609,588.352716"/></g></g></g><polygon id="Rectangle-15-Copy-12" fill="#B3E6FF" points="205.094 249.828 321.214 249.828 321.214 365.991 205.094 365.991"/><rect id="Rectangle-15-Copy-12" width="544.103" height="591.379" x="542.897" y="18.103" fill="#FFF"/><path id="Fixed" fill="#3D3D3D" d="M208.192471,391.034483 L206.281474,391.034483 L206.281474,380.925517 L212.781758,380.925517 L212.781758,382.62 L208.192471,382.62 L208.192471,385.067586 L212.188191,385.067586 L212.188191,386.762069 L208.192471,386.762069 L208.192471,391.034483 Z M215.566215,382.373793 C214.798921,382.373793 214.480422,381.982759 214.480422,381.446897 L214.480422,381.157241 C214.480422,380.621379 214.798921,380.230345 215.566215,380.230345 C216.319032,380.230345 216.652009,380.621379 216.652009,381.157241 L216.652009,381.446897 C216.652009,381.982759 216.319032,382.373793 215.566215,382.373793 Z M214.639671,391.034483 L214.639671,383.474483 L216.492759,383.474483 L216.492759,391.034483 L214.639671,391.034483 Z M217.959787,391.034483 L220.536737,387.196552 L218.017696,383.474483 L220.131374,383.474483 L221.694917,385.98 L221.752826,385.98 L223.301891,383.474483 L225.270797,383.474483 L222.708324,387.225517 L225.285274,391.034483 L223.171596,391.034483 L221.579099,388.427586 L221.52119,388.427586 L219.928693,391.034483 L217.959787,391.034483 Z M229.589842,391.208276 C227.360346,391.208276 226.02844,389.658621 226.02844,387.24 C226.02844,384.850345 227.316915,383.30069 229.531933,383.30069 C231.891725,383.30069 232.977518,385.038621 232.977518,387.109655 L232.977518,387.717931 L227.953913,387.717931 L227.953913,387.906207 C227.953913,388.992414 228.576435,389.731034 229.792524,389.731034 C230.70459,389.731034 231.254726,389.296552 231.717998,388.702759 L232.716928,389.817931 C232.094406,390.672414 230.994135,391.208276 229.589842,391.208276 Z M229.560888,384.691034 C228.590912,384.691034 227.953913,385.415172 227.953913,386.457931 L227.953913,386.573793 L231.052044,386.573793 L231.052044,386.443448 C231.052044,385.40069 230.516386,384.691034 229.560888,384.691034 Z M239.424719,391.034483 L239.424719,389.774483 L239.352333,389.774483 C239.077265,390.628966 238.266539,391.208276 237.267609,391.208276 C235.37109,391.208276 234.314251,389.774483 234.314251,387.24 C234.314251,384.72 235.37109,383.30069 237.267609,383.30069 C238.266539,383.30069 239.091743,383.851034 239.352333,384.72 L239.424719,384.72 L239.424719,380.317241 L241.277807,380.317241 L241.277807,391.034483 L239.424719,391.034483 Z M237.861176,389.673103 C238.744289,389.673103 239.424719,389.224138 239.424719,388.442069 L239.424719,386.037931 C239.424719,385.29931 238.744289,384.821379 237.861176,384.821379 C236.905678,384.821379 236.254202,385.531034 236.254202,386.602759 L236.254202,387.906207 C236.254202,388.977931 236.905678,389.673103 237.861176,389.673103 Z"/><rect id="Rectangle-15-Copy-13" width="38.606" height="630" x="524.8" y="0" fill="#FFF"/><g id="Group-23" transform="translate(632.173141, 19.310345)"><rect id="Rectangle-12-Copy-2" width="39.812" height="590.172" x="0" y="0" fill="#EDF4FF" fill-rule="nonzero"/><rect id="Rectangle-12-Copy-4" width="39.812" height="590.172" x="114.612" y="0" fill="#EDF4FF" fill-rule="nonzero"/><rect id="Rectangle-12-Copy-2" width="1.206" height="590.172" x="19.303" y="0" fill="#97C1FF" fill-rule="nonzero"/><rect id="Rectangle-12-Copy-5" width="1.206" height="590.172" x="133.915" y="0" fill="#97C1FF" fill-rule="nonzero"/><rect id="Rectangle-12-Copy-7" width="39.812" height="590.172" x="229.223" y="0" fill="#EDF4FF" fill-rule="nonzero"/><rect id="Rectangle-12-Copy-6" width="1.206" height="590.172" x="248.526" y="0" fill="#97C1FF" fill-rule="nonzero"/><rect id="Rectangle-12-Copy-9" width="39.812" height="590.172" x="343.835" y="0" fill="#EDF4FF" fill-rule="nonzero"/><rect id="Rectangle-12-Copy-8" width="1.206" height="590.172" x="363.138" y="0" fill="#97C1FF" fill-rule="nonzero"/><g id="Group-26" transform="translate(133.914539, 230.517241)"><polygon id="Rectangle-15-Copy-14" fill="#B3E6FF" points="0 0 116.12 0 116.12 116.164 0 116.164"/><path id="Fluid" fill="#3D3D3D" d="M3.09813097,141.206897 L1.1871343,141.206897 L1.1871343,131.097931 L7.68741842,131.097931 L7.68741842,132.792414 L3.09813097,132.792414 L3.09813097,135.24 L7.09385128,135.24 L7.09385128,136.934483 L3.09813097,136.934483 L3.09813097,141.206897 Z M12.3973496,141.206897 L11.3984195,141.206897 C10.138899,141.206897 9.54533186,140.54069 9.54533186,139.382069 L9.54533186,130.489655 L11.3984195,130.489655 L11.3984195,139.729655 L12.3973496,139.729655 L12.3973496,141.206897 Z M18.4391876,141.206897 L18.4391876,139.946897 L18.3668013,139.946897 C18.1062109,140.7 17.4981665,141.38069 16.2531232,141.38069 C14.7040577,141.38069 13.8354229,140.308966 13.8354229,138.426207 L13.8354229,133.646897 L15.6885105,133.646897 L15.6885105,138.237931 C15.6885105,139.28069 16.0793962,139.845517 16.9625083,139.845517 C17.700848,139.845517 18.4391876,139.454483 18.4391876,138.643448 L18.4391876,133.646897 L20.2922753,133.646897 L20.2922753,141.206897 L18.4391876,141.206897 Z M23.4820955,132.546207 C22.7148013,132.546207 22.3963019,132.155172 22.3963019,131.61931 L22.3963019,131.329655 C22.3963019,130.793793 22.7148013,130.402759 23.4820955,130.402759 C24.2349123,130.402759 24.567889,130.793793 24.567889,131.329655 L24.567889,131.61931 C24.567889,132.155172 24.2349123,132.546207 23.4820955,132.546207 Z M22.5555516,141.206897 L22.5555516,133.646897 L24.4086393,133.646897 L24.4086393,141.206897 L22.5555516,141.206897 Z M31.3625438,141.206897 L31.3625438,139.946897 L31.2901576,139.946897 C31.0150899,140.801379 30.204364,141.38069 29.205434,141.38069 C27.3089145,141.38069 26.2520755,139.946897 26.2520755,137.412414 C26.2520755,134.892414 27.3089145,133.473103 29.205434,133.473103 C30.204364,133.473103 31.0295672,134.023448 31.2901576,134.892414 L31.3625438,134.892414 L31.3625438,130.489655 L33.2156315,130.489655 L33.2156315,141.206897 L31.3625438,141.206897 Z M29.7990011,139.845517 C30.6821132,139.845517 31.3625438,139.396552 31.3625438,138.614483 L31.3625438,136.210345 C31.3625438,135.471724 30.6821132,134.993793 29.7990011,134.993793 C28.8435028,134.993793 28.1920266,135.703448 28.1920266,136.775172 L28.1920266,138.078621 C28.1920266,139.150345 28.8435028,139.845517 29.7990011,139.845517 Z"/></g></g></g></g></svg>