<svg xmlns="http://www.w3.org/2000/svg" xmlns:xlink="http://www.w3.org/1999/xlink" width="1120" height="630" version="1.1" viewBox="0 0 1120 630"><title>Layout_overview_Paddings</title><desc>Created with Sketch.</desc><defs><polygon id="path-1" points="0 363.038 59.291 363.038 59.291 452.587 0 452.587"/><polygon id="path-2" points="60.501 363.038 119.791 363.038 119.791 452.587 60.501 452.587"/><polygon id="path-3" points="121.001 363.038 180.292 363.038 180.292 452.587 121.001 452.587"/><polygon id="path-4" points="181.502 363.038 240.792 363.038 240.792 452.587 181.502 452.587"/><polygon id="path-5" points="242.002 363.038 301.293 363.038 301.293 452.587 242.002 452.587"/><polygon id="path-6" points="302.503 363.038 361.794 363.038 361.794 452.587 302.503 452.587"/><polygon id="path-7" points="363.004 363.038 422.294 363.038 422.294 452.587 363.004 452.587"/><polygon id="path-8" points="423.504 363.038 482.795 363.038 482.795 452.587 423.504 452.587"/><polygon id="path-9" points="484.005 363.038 543.295 363.038 543.295 452.587 484.005 452.587"/><polygon id="path-10" points="544.505 363.038 603.796 363.038 603.796 452.587 544.505 452.587"/><polygon id="path-11" points="605.006 363.038 664.297 363.038 664.297 452.587 605.006 452.587"/><polygon id="path-12" points="665.507 363.038 724.797 363.038 724.797 452.587 665.507 452.587"/><polygon id="path-13" points="726.007 363.038 785.298 363.038 785.298 452.587 726.007 452.587"/><polygon id="path-14" points="786.508 363.038 845.799 363.038 845.799 452.587 786.508 452.587"/><polygon id="path-15" points="847.009 363.038 906.299 363.038 906.299 452.587 847.009 452.587"/><polygon id="path-16" points="907.509 363.038 966.8 363.038 966.8 452.587 907.509 452.587"/><polygon id="path-17" points="0 272.278 119.791 272.278 119.791 361.828 0 361.828"/><polygon id="path-18" points="121.001 272.278 240.792 272.278 240.792 361.828 121.001 361.828"/><polygon id="path-19" points="242.002 272.278 361.794 272.278 361.794 361.828 242.002 361.828"/><polygon id="path-20" points="363.004 272.278 482.795 272.278 482.795 361.828 363.004 361.828"/><polygon id="path-21" points="484.005 272.278 603.796 272.278 603.796 361.828 484.005 361.828"/><polygon id="path-22" points="605.006 272.278 724.797 272.278 724.797 361.828 605.006 361.828"/><polygon id="path-23" points="726.007 272.278 845.799 272.278 845.799 361.828 726.007 361.828"/><polygon id="path-24" points="847.009 272.278 966.8 272.278 966.8 361.828 847.009 361.828"/><polygon id="path-25" points="726.007 181.519 966.8 181.519 966.8 271.068 726.007 271.068"/><polygon id="path-26" points="484.005 181.519 724.797 181.519 724.797 271.068 484.005 271.068"/><polygon id="path-27" points="242.002 181.519 482.795 181.519 482.795 271.068 242.002 271.068"/><polygon id="path-28" points="0 181.519 240.792 181.519 240.792 271.068 0 271.068"/><polygon id="path-29" points="0 90.759 482.795 90.759 482.795 180.309 0 180.309"/><polygon id="path-30" points="484.005 90.759 966.8 90.759 966.8 180.309 484.005 180.309"/><polygon id="path-31" points="0 0 966.8 0 966.8 89.549 0 89.549"/></defs><g id="Paddings" fill="none" fill-rule="evenodd" stroke="none" stroke-width="1"><g id="animation"><g transform="translate(65.000000, 76.000000)"><g id="Margins" fill="#FFCFE1" stroke="#FFCFE1" stroke-width="1.21" transform="translate(0.000000, 22.992405)"><rect id="margin" width="10.89" height="453.798" x="979.505" y=".605"/><rect id="margin" width="10.89" height="453.798" x=".605" y=".605"/></g><g id="Columns" transform="translate(12.100122, 24.202532)"><g id="Rectangle-17-Copy-487"><path stroke="#97C1FF" stroke-width="1.21" d="M-0.605,362.432975 L59.8955983,362.432975 L59.8955983,453.192342 L-0.605,453.192342 L-0.605,362.432975 Z"/><path stroke="#EDF4FF" stroke-linejoin="square" stroke-width="12.1" d="M6.05,369.087975 L6.05,446.537342 L53.2405983,446.537342 L53.2405983,369.087975 L6.05,369.087975 Z"/></g><g id="Rectangle-17-Copy-488"><path stroke="#97C1FF" stroke-width="1.21" d="M59.8956105,362.432975 L120.396209,362.432975 L120.396209,453.192342 L59.8956105,453.192342 L59.8956105,362.432975 Z"/><path stroke="#EDF4FF" stroke-linejoin="square" stroke-width="12.1" d="M66.5506105,369.087975 L66.5506105,446.537342 L113.741209,446.537342 L113.741209,369.087975 L66.5506105,369.087975 Z"/></g><g id="Rectangle-17-Copy-489"><path stroke="#97C1FF" stroke-width="1.21" d="M120.396221,362.432975 L180.896819,362.432975 L180.896819,453.192342 L120.396221,453.192342 L120.396221,362.432975 Z"/><path stroke="#EDF4FF" stroke-linejoin="square" stroke-width="12.1" d="M127.051221,369.087975 L127.051221,446.537342 L174.241819,446.537342 L174.241819,369.087975 L127.051221,369.087975 Z"/></g><g id="Rectangle-17-Copy-490"><path stroke="#97C1FF" stroke-width="1.21" d="M180.896832,362.432975 L241.39743,362.432975 L241.39743,453.192342 L180.896832,453.192342 L180.896832,362.432975 Z"/><path stroke="#EDF4FF" stroke-linejoin="square" stroke-width="12.1" d="M187.551832,369.087975 L187.551832,446.537342 L234.74243,446.537342 L234.74243,369.087975 L187.551832,369.087975 Z"/></g><g id="Rectangle-17-Copy-491"><path stroke="#97C1FF" stroke-width="1.21" d="M241.397442,362.432975 L301.89804,362.432975 L301.89804,453.192342 L241.397442,453.192342 L241.397442,362.432975 Z"/><path stroke="#EDF4FF" stroke-linejoin="square" stroke-width="12.1" d="M248.052442,369.087975 L248.052442,446.537342 L295.24304,446.537342 L295.24304,369.087975 L248.052442,369.087975 Z"/></g><g id="Rectangle-17-Copy-492"><path stroke="#97C1FF" stroke-width="1.21" d="M301.898053,362.432975 L362.398651,362.432975 L362.398651,453.192342 L301.898053,453.192342 L301.898053,362.432975 Z"/><path stroke="#EDF4FF" stroke-linejoin="square" stroke-width="12.1" d="M308.553053,369.087975 L308.553053,446.537342 L355.743651,446.537342 L355.743651,369.087975 L308.553053,369.087975 Z"/></g><g id="Rectangle-17-Copy-493"><path stroke="#97C1FF" stroke-width="1.21" d="M362.398663,362.432975 L422.899261,362.432975 L422.899261,453.192342 L362.398663,453.192342 L362.398663,362.432975 Z"/><path stroke="#EDF4FF" stroke-linejoin="square" stroke-width="12.1" d="M369.053663,369.087975 L369.053663,446.537342 L416.244261,446.537342 L416.244261,369.087975 L369.053663,369.087975 Z"/></g><g id="Rectangle-17-Copy-494"><path stroke="#97C1FF" stroke-width="1.21" d="M422.899274,362.432975 L483.399872,362.432975 L483.399872,453.192342 L422.899274,453.192342 L422.899274,362.432975 Z"/><path stroke="#EDF4FF" stroke-linejoin="square" stroke-width="12.1" d="M429.554274,369.087975 L429.554274,446.537342 L476.744872,446.537342 L476.744872,369.087975 L429.554274,369.087975 Z"/></g><g id="Rectangle-17-Copy-495"><path stroke="#97C1FF" stroke-width="1.21" d="M483.399884,362.432975 L543.900482,362.432975 L543.900482,453.192342 L483.399884,453.192342 L483.399884,362.432975 Z"/><path stroke="#EDF4FF" stroke-linejoin="square" stroke-width="12.1" d="M490.054884,369.087975 L490.054884,446.537342 L537.245482,446.537342 L537.245482,369.087975 L490.054884,369.087975 Z"/></g><g id="Rectangle-17-Copy-496"><path stroke="#97C1FF" stroke-width="1.21" d="M543.900495,362.432975 L604.401093,362.432975 L604.401093,453.192342 L543.900495,453.192342 L543.900495,362.432975 Z"/><path stroke="#EDF4FF" stroke-linejoin="square" stroke-width="12.1" d="M550.555495,369.087975 L550.555495,446.537342 L597.746093,446.537342 L597.746093,369.087975 L550.555495,369.087975 Z"/></g><g id="Rectangle-17-Copy-497"><path stroke="#97C1FF" stroke-width="1.21" d="M604.401105,362.432975 L664.901703,362.432975 L664.901703,453.192342 L604.401105,453.192342 L604.401105,362.432975 Z"/><path stroke="#EDF4FF" stroke-linejoin="square" stroke-width="12.1" d="M611.056105,369.087975 L611.056105,446.537342 L658.246703,446.537342 L658.246703,369.087975 L611.056105,369.087975 Z"/></g><g id="Rectangle-17-Copy-498"><path stroke="#97C1FF" stroke-width="1.21" d="M664.901716,362.432975 L725.402314,362.432975 L725.402314,453.192342 L664.901716,453.192342 L664.901716,362.432975 Z"/><path stroke="#EDF4FF" stroke-linejoin="square" stroke-width="12.1" d="M671.556716,369.087975 L671.556716,446.537342 L718.747314,446.537342 L718.747314,369.087975 L671.556716,369.087975 Z"/></g><g id="Rectangle-17-Copy-499"><path stroke="#97C1FF" stroke-width="1.21" d="M725.402326,362.432975 L785.902924,362.432975 L785.902924,453.192342 L725.402326,453.192342 L725.402326,362.432975 Z"/><path stroke="#EDF4FF" stroke-linejoin="square" stroke-width="12.1" d="M732.057326,369.087975 L732.057326,446.537342 L779.247924,446.537342 L779.247924,369.087975 L732.057326,369.087975 Z"/></g><g id="Rectangle-17-Copy-500"><path stroke="#97C1FF" stroke-width="1.21" d="M785.902937,362.432975 L846.403535,362.432975 L846.403535,453.192342 L785.902937,453.192342 L785.902937,362.432975 Z"/><path stroke="#EDF4FF" stroke-linejoin="square" stroke-width="12.1" d="M792.557937,369.087975 L792.557937,446.537342 L839.748535,446.537342 L839.748535,369.087975 L792.557937,369.087975 Z"/></g><g id="Rectangle-17-Copy-501"><path stroke="#97C1FF" stroke-width="1.21" d="M846.403547,362.432975 L906.904145,362.432975 L906.904145,453.192342 L846.403547,453.192342 L846.403547,362.432975 Z"/><path stroke="#EDF4FF" stroke-linejoin="square" stroke-width="12.1" d="M853.058547,369.087975 L853.058547,446.537342 L900.249145,446.537342 L900.249145,369.087975 L853.058547,369.087975 Z"/></g><g id="Rectangle-17-Copy-502"><path stroke="#97C1FF" stroke-width="1.21" d="M906.904158,362.432975 L967.404756,362.432975 L967.404756,453.192342 L906.904158,453.192342 L906.904158,362.432975 Z"/><path stroke="#EDF4FF" stroke-linejoin="square" stroke-width="12.1" d="M913.559158,369.087975 L913.559158,446.537342 L960.749756,446.537342 L960.749756,369.087975 L913.559158,369.087975 Z"/></g><g id="Rectangle-17-Copy-487"><path stroke="#97C1FF" stroke-width="1.21" d="M-0.605,271.673481 L120.396209,271.673481 L120.396209,362.432848 L-0.605,362.432848 L-0.605,271.673481 Z"/><path stroke="#EDF4FF" stroke-linejoin="square" stroke-width="12.1" d="M6.05,278.328481 L6.05,355.777848 L113.741209,355.777848 L113.741209,278.328481 L6.05,278.328481 Z"/></g><g id="Rectangle-17-Copy-487"><path stroke="#97C1FF" stroke-width="1.21" d="M120.396221,271.673481 L241.39743,271.673481 L241.39743,362.432848 L120.396221,362.432848 L120.396221,271.673481 Z"/><path stroke="#EDF4FF" stroke-linejoin="square" stroke-width="12.1" d="M127.051221,278.328481 L127.051221,355.777848 L234.74243,355.777848 L234.74243,278.328481 L127.051221,278.328481 Z"/></g><g id="Rectangle-17-Copy-487"><path stroke="#97C1FF" stroke-width="1.21" d="M241.397442,271.673481 L362.398651,271.673481 L362.398651,362.432848 L241.397442,362.432848 L241.397442,271.673481 Z"/><path stroke="#EDF4FF" stroke-linejoin="square" stroke-width="12.1" d="M248.052442,278.328481 L248.052442,355.777848 L355.743651,355.777848 L355.743651,278.328481 L248.052442,278.328481 Z"/></g><g id="Rectangle-17-Copy-487"><path stroke="#97C1FF" stroke-width="1.21" d="M362.398663,271.673481 L483.399872,271.673481 L483.399872,362.432848 L362.398663,362.432848 L362.398663,271.673481 Z"/><path stroke="#EDF4FF" stroke-linejoin="square" stroke-width="12.1" d="M369.053663,278.328481 L369.053663,355.777848 L476.744872,355.777848 L476.744872,278.328481 L369.053663,278.328481 Z"/></g><g id="Rectangle-17-Copy-487"><path stroke="#97C1FF" stroke-width="1.21" d="M483.399884,271.673481 L604.401093,271.673481 L604.401093,362.432848 L483.399884,362.432848 L483.399884,271.673481 Z"/><path stroke="#EDF4FF" stroke-linejoin="square" stroke-width="12.1" d="M490.054884,278.328481 L490.054884,355.777848 L597.746093,355.777848 L597.746093,278.328481 L490.054884,278.328481 Z"/></g><g id="Rectangle-17-Copy-487"><path stroke="#97C1FF" stroke-width="1.21" d="M604.401105,271.673481 L725.402314,271.673481 L725.402314,362.432848 L604.401105,362.432848 L604.401105,271.673481 Z"/><path stroke="#EDF4FF" stroke-linejoin="square" stroke-width="12.1" d="M611.056105,278.328481 L611.056105,355.777848 L718.747314,355.777848 L718.747314,278.328481 L611.056105,278.328481 Z"/></g><g id="Rectangle-17-Copy-487"><path stroke="#97C1FF" stroke-width="1.21" d="M725.402326,271.673481 L846.403535,271.673481 L846.403535,362.432848 L725.402326,362.432848 L725.402326,271.673481 Z"/><path stroke="#EDF4FF" stroke-linejoin="square" stroke-width="12.1" d="M732.057326,278.328481 L732.057326,355.777848 L839.748535,355.777848 L839.748535,278.328481 L732.057326,278.328481 Z"/></g><g id="Rectangle-17-Copy-487"><path stroke="#97C1FF" stroke-width="1.21" d="M846.403547,271.673481 L967.404756,271.673481 L967.404756,362.432848 L846.403547,362.432848 L846.403547,271.673481 Z"/><path stroke="#EDF4FF" stroke-linejoin="square" stroke-width="12.1" d="M853.058547,278.328481 L853.058547,355.777848 L960.749756,355.777848 L960.749756,278.328481 L853.058547,278.328481 Z"/></g><g id="Rectangle-17-Copy-487"><path stroke="#97C1FF" stroke-width="1.21" d="M725.402326,180.913987 L967.404756,180.913987 L967.404756,271.673354 L725.402326,271.673354 L725.402326,180.913987 Z"/><path stroke="#EDF4FF" stroke-linejoin="square" stroke-width="12.1" d="M732.057326,187.568987 L732.057326,265.018354 L960.749756,265.018354 L960.749756,187.568987 L732.057326,187.568987 Z"/></g><g id="Rectangle-17-Copy-487"><path stroke="#97C1FF" stroke-width="1.21" d="M483.399884,180.913987 L725.402314,180.913987 L725.402314,271.673354 L483.399884,271.673354 L483.399884,180.913987 Z"/><path stroke="#EDF4FF" stroke-linejoin="square" stroke-width="12.1" d="M490.054884,187.568987 L490.054884,265.018354 L718.747314,265.018354 L718.747314,187.568987 L490.054884,187.568987 Z"/></g><g id="Rectangle-17-Copy-487"><path stroke="#97C1FF" stroke-width="1.21" d="M241.397442,180.913987 L483.399872,180.913987 L483.399872,271.673354 L241.397442,271.673354 L241.397442,180.913987 Z"/><path stroke="#EDF4FF" stroke-linejoin="square" stroke-width="12.1" d="M248.052442,187.568987 L248.052442,265.018354 L476.744872,265.018354 L476.744872,187.568987 L248.052442,187.568987 Z"/></g><g id="Rectangle-17-Copy-487"><path stroke="#97C1FF" stroke-width="1.21" d="M-0.605,180.913987 L241.39743,180.913987 L241.39743,271.673354 L-0.605,271.673354 L-0.605,180.913987 Z"/><path stroke="#EDF4FF" stroke-linejoin="square" stroke-width="12.1" d="M6.05,187.568987 L6.05,265.018354 L234.74243,265.018354 L234.74243,187.568987 L6.05,187.568987 Z"/></g><g id="Rectangle-17-Copy-487"><path stroke="#97C1FF" stroke-width="1.21" d="M-0.605,90.1544937 L483.399872,90.1544937 L483.399872,180.913861 L-0.605,180.913861 L-0.605,90.1544937 Z"/><path stroke="#EDF4FF" stroke-linejoin="square" stroke-width="12.1" d="M6.05,96.8094937 L6.05,174.258861 L476.744872,174.258861 L476.744872,96.8094937 L6.05,96.8094937 Z"/></g><g id="Rectangle-17-Copy-487"><path stroke="#97C1FF" stroke-width="1.21" d="M483.399884,90.1544937 L967.404756,90.1544937 L967.404756,180.913861 L483.399884,180.913861 L483.399884,90.1544937 Z"/><path stroke="#EDF4FF" stroke-linejoin="square" stroke-width="12.1" d="M490.054884,96.8094937 L490.054884,174.258861 L960.749756,174.258861 L960.749756,96.8094937 L490.054884,96.8094937 Z"/></g><g id="Rectangle-17-Copy-487"><path stroke="#97C1FF" stroke-width="1.21" d="M-0.605,-0.605 L967.404756,-0.605 L967.404756,90.1543671 L-0.605,90.1543671 L-0.605,-0.605 Z"/><path stroke="#EDF4FF" stroke-linejoin="square" stroke-width="12.1" d="M6.05,6.05 L6.05,83.4993671 L960.749756,83.4993671 L960.749756,6.05 L6.05,6.05 Z"/></g></g><g id="browser"><rect id="Frame" width="989.79" height="453.797" x=".605" y="23.598" stroke="#BEBEBE" stroke-width="1.21"/><path id="Rectangle-2-Copy-25" fill="#565656" d="M3.0624,0 L987.9376,0 C989.628917,6.27813363e-14 991,1.37108318 991,3.0624 L991,24.144323 L0,24.144323 L0,3.0624 C-2.07126573e-16,1.37108318 1.37108318,-1.33399351e-16 3.0624,-4.4408921e-16 Z"/><ellipse id="Oval-5-Copy-18" cx="15.73" cy="12.092" fill="#FFF" rx="3.63" ry="3.621"/><ellipse id="Oval-5-Copy-19" cx="30.25" cy="12.092" fill="#FFF" rx="3.63" ry="3.621"/></g></g></g></g></svg>