<svg xmlns="http://www.w3.org/2000/svg" xmlns:xlink="http://www.w3.org/1999/xlink" width="1120" height="630" version="1.1" viewBox="0 0 1120 630"><title>Layout_overview_Aspect-ratio</title><desc>Created with Sketch.</desc><g id="Aspect-ratio" fill="none" fill-rule="evenodd" stroke="none" stroke-width="1"><g id="Group" transform="translate(15.000000, 19.000000)"><g id="Group-7-Copy-2" stroke="#DCDCDC" stroke-linecap="square" stroke-width="1.21"><g id="Group-6"><g id="Group-16" transform="translate(0.000000, 1.210634)"><path id="Line-7" d="M70.741121,0.752013689 L70.741121,588.857491"/><path id="Line-7" d="M61.0629856,0.752013689 L61.0629856,588.857491"/><path id="Line-7" d="M51.3848502,0.752013689 L51.3848502,588.857491"/><path id="Line-7" d="M690.141787,0.752013689 L690.141787,588.857491"/><path id="Line-7" d="M680.463651,0.752013689 L680.463651,588.857491"/><path id="Line-7" d="M670.785516,0.752013689 L670.785516,588.857491"/><path id="Line-7" d="M661.107381,0.752013689 L661.107381,588.857491"/><path id="Line-7" d="M651.429245,0.752013689 L651.429245,588.857491"/><path id="Line-7" d="M641.75111,0.752013689 L641.75111,588.857491"/><path id="Line-7" d="M767.56687,0.752013689 L767.56687,588.857491"/><path id="Line-7" d="M757.888735,0.752013689 L757.888735,588.857491"/><path id="Line-7" d="M748.210599,0.752013689 L748.210599,588.857491"/><path id="Line-7" d="M738.532464,0.752013689 L738.532464,588.857491"/><path id="Line-7" d="M728.854329,0.752013689 L728.854329,588.857491"/><path id="Line-7" d="M719.176193,0.752013689 L719.176193,588.857491"/><path id="Line-7" d="M709.498058,0.752013689 L709.498058,588.857491"/><path id="Line-7" d="M699.819922,0.752013689 L699.819922,588.857491"/><path id="Line-7" d="M844.991953,0.752013689 L844.991953,588.857491"/><path id="Line-7" d="M835.313818,0.752013689 L835.313818,588.857491"/><path id="Line-7" d="M825.635683,0.752013689 L825.635683,588.857491"/><path id="Line-7" d="M815.957547,0.752013689 L815.957547,588.857491"/><path id="Line-7" d="M806.279412,0.752013689 L806.279412,588.857491"/><path id="Line-7" d="M796.601276,0.752013689 L796.601276,588.857491"/><path id="Line-7" d="M922.417037,0.752013689 L922.417037,588.857491"/><path id="Line-7" d="M912.738901,0.752013689 L912.738901,588.857491"/><path id="Line-7" d="M903.060766,0.752013689 L903.060766,588.857491"/><path id="Line-7" d="M893.38263,0.752013689 L893.38263,588.857491"/><path id="Line-7" d="M883.704495,0.752013689 L883.704495,588.857491"/><path id="Line-7" d="M874.02636,0.752013689 L874.02636,588.857491"/><path id="Line-7" d="M864.348224,0.752013689 L864.348224,588.857491"/><path id="Line-7" d="M854.670089,0.752013689 L854.670089,588.857491"/><path id="Line-7" d="M786.923141,0.752013689 L786.923141,588.857491"/><path id="Line-7" d="M777.245006,0.752013689 L777.245006,588.857491"/><path id="Line-7" d="M999.84212,0.752013689 L999.84212,588.857491"/><path id="Line-7" d="M990.163984,0.752013689 L990.163984,588.857491"/><path id="Line-7" d="M980.485849,0.752013689 L980.485849,588.857491"/><path id="Line-7" d="M970.807714,0.752013689 L970.807714,588.857491"/><path id="Line-7" d="M961.129578,0.752013689 L961.129578,588.857491"/><path id="Line-7" d="M951.451443,0.752013689 L951.451443,588.857491"/><path id="Line-7" d="M1077.2672,0.752013689 L1077.2672,588.857491"/><path id="Line-7" d="M1067.58907,0.752013689 L1067.58907,588.857491"/><path id="Line-7" d="M1057.91093,0.752013689 L1057.91093,588.857491"/><path id="Line-7" d="M1048.2328,0.752013689 L1048.2328,588.857491"/><path id="Line-7" d="M1038.55466,0.752013689 L1038.55466,588.857491"/><path id="Line-7" d="M1028.87653,0.752013689 L1028.87653,588.857491"/><path id="Line-7" d="M1019.19839,0.752013689 L1019.19839,588.857491"/><path id="Line-7" d="M1009.52026,0.752013689 L1009.52026,588.857491"/><path id="Line-7" d="M1086.94534,0.752013689 L1086.94534,588.857491"/><path id="Line-7" d="M941.773307,0.752013689 L941.773307,588.857491"/><path id="Line-7" d="M932.095172,0.752013689 L932.095172,588.857491"/><path id="Line-7" d="M632.072974,0.752013689 L632.072974,588.857491"/><path id="Line-7" d="M622.394839,0.752013689 L622.394839,588.857491"/><path id="Line-7" d="M41.7067148,0.752013689 L41.7067148,588.857491"/><path id="Line-7" d="M32.0285794,0.752013689 L32.0285794,588.857491"/><path id="Line-7" d="M22.350444,0.752013689 L22.350444,588.857491"/><path id="Line-7" d="M148.166204,0.752013689 L148.166204,588.857491"/><path id="Line-7" d="M138.488069,0.752013689 L138.488069,588.857491"/><path id="Line-7" d="M128.809933,0.752013689 L128.809933,588.857491"/><path id="Line-7" d="M119.131798,0.752013689 L119.131798,588.857491"/><path id="Line-7" d="M109.453663,0.752013689 L109.453663,588.857491"/><path id="Line-7" d="M99.7755272,0.752013689 L99.7755272,588.857491"/><path id="Line-7" d="M90.0973918,0.752013689 L90.0973918,588.857491"/><path id="Line-7" d="M80.4192564,0.752013689 L80.4192564,588.857491"/><path id="Line-7" d="M225.591287,0.752013689 L225.591287,588.857491"/><path id="Line-7" d="M215.913152,0.752013689 L215.913152,588.857491"/><path id="Line-7" d="M206.235017,0.752013689 L206.235017,588.857491"/><path id="Line-7" d="M196.556881,0.752013689 L196.556881,588.857491"/><path id="Line-7" d="M186.878746,0.752013689 L186.878746,588.857491"/><path id="Line-7" d="M177.20061,0.752013689 L177.20061,588.857491"/><path id="Line-7" d="M303.016371,0.752013689 L303.016371,588.857491"/><path id="Line-7" d="M293.338235,0.752013689 L293.338235,588.857491"/><path id="Line-7" d="M283.6601,0.752013689 L283.6601,588.857491"/><path id="Line-7" d="M273.981964,0.752013689 L273.981964,588.857491"/><path id="Line-7" d="M264.303829,0.752013689 L264.303829,588.857491"/><path id="Line-7" d="M254.625694,0.752013689 L254.625694,588.857491"/><path id="Line-7" d="M244.947558,0.752013689 L244.947558,588.857491"/><path id="Line-7" d="M235.269423,0.752013689 L235.269423,588.857491"/><path id="Line-7" d="M167.522475,0.752013689 L167.522475,588.857491"/><path id="Line-7" d="M157.84434,0.752013689 L157.84434,588.857491"/><path id="Line-7" d="M380.441454,0.752013689 L380.441454,588.857491"/><path id="Line-7" d="M370.763319,0.752013689 L370.763319,588.857491"/><path id="Line-7" d="M361.085183,0.752013689 L361.085183,588.857491"/><path id="Line-7" d="M351.407048,0.752013689 L351.407048,588.857491"/><path id="Line-7" d="M341.728912,0.752013689 L341.728912,588.857491"/><path id="Line-7" d="M332.050777,0.752013689 L332.050777,588.857491"/><path id="Line-7" d="M457.866537,0.752013689 L457.866537,588.857491"/><path id="Line-7" d="M448.188402,0.752013689 L448.188402,588.857491"/><path id="Line-7" d="M438.510266,0.752013689 L438.510266,588.857491"/><path id="Line-7" d="M428.832131,0.752013689 L428.832131,588.857491"/><path id="Line-7" d="M419.153996,0.752013689 L419.153996,588.857491"/><path id="Line-7" d="M409.47586,0.752013689 L409.47586,588.857491"/><path id="Line-7" d="M399.797725,0.752013689 L399.797725,588.857491"/><path id="Line-7" d="M390.119589,0.752013689 L390.119589,588.857491"/><path id="Line-7" d="M535.29162,0.752013689 L535.29162,588.857491"/><path id="Line-7" d="M525.613485,0.752013689 L525.613485,588.857491"/><path id="Line-7" d="M515.93535,0.752013689 L515.93535,588.857491"/><path id="Line-7" d="M506.257214,0.752013689 L506.257214,588.857491"/><path id="Line-7" d="M496.579079,0.752013689 L496.579079,588.857491"/><path id="Line-7" d="M486.900943,0.752013689 L486.900943,588.857491"/><path id="Line-7" d="M612.716704,0.752013689 L612.716704,588.857491"/><path id="Line-7" d="M603.038568,0.752013689 L603.038568,588.857491"/><path id="Line-7" d="M593.360433,0.752013689 L593.360433,588.857491"/><path id="Line-7" d="M583.682297,0.752013689 L583.682297,588.857491"/><path id="Line-7" d="M574.004162,0.752013689 L574.004162,588.857491"/><path id="Line-7" d="M564.326027,0.752013689 L564.326027,588.857491"/><path id="Line-7" d="M554.647891,0.752013689 L554.647891,588.857491"/><path id="Line-7" d="M544.969756,0.752013689 L544.969756,588.857491"/><path id="Line-7" d="M477.222808,0.752013689 L477.222808,588.857491"/><path id="Line-7" d="M467.544673,0.752013689 L467.544673,588.857491"/><path id="Line-7" d="M322.372642,0.752013689 L322.372642,588.857491"/><path id="Line-7" d="M312.694506,0.752013689 L312.694506,588.857491"/><path id="Line-7" d="M12.6723085,0.752013689 L12.6723085,588.857491"/><path id="Line-7" d="M2.99417314,0.752013689 L2.99417314,588.857491"/></g><g id="Group-17" transform="translate(2.419534, 0.000000)"><path id="Line-8" d="M1.09851306,146.403702 L1083.84396,146.403702"/><path id="Line-8-Copy" d="M1.09851306,156.050896 L1083.84396,156.050896"/><path id="Line-8-Copy-2" d="M1.09851306,165.698091 L1083.84396,165.698091"/><path id="Line-8-Copy-3" d="M1.09851306,175.345286 L1083.84396,175.345286"/><path id="Line-8-Copy-4" d="M1.09851306,184.992481 L1083.84396,184.992481"/><path id="Line-8-Copy-5" d="M1.09851306,194.639676 L1083.84396,194.639676"/><path id="Line-8-Copy-6" d="M1.09851306,204.286871 L1083.84396,204.286871"/><path id="Line-8-Copy-7" d="M1.09851306,213.934066 L1083.84396,213.934066"/><path id="Line-8-Copy-8" d="M1.09851306,223.581261 L1083.84396,223.581261"/><path id="Line-8-Copy-9" d="M1.09851306,233.228456 L1083.84396,233.228456"/><path id="Line-8-Copy-10" d="M1.09851306,242.875651 L1083.84396,242.875651"/><path id="Line-8-Copy-11" d="M1.09851306,252.522846 L1083.84396,252.522846"/><path id="Line-8-Copy-12" d="M1.09851306,262.17004 L1083.84396,262.17004"/><path id="Line-8-Copy-13" d="M1.09851306,271.817235 L1083.84396,271.817235"/><path id="Line-8-Copy-14" d="M1.09851306,281.46443 L1083.84396,281.46443"/><path id="Line-8-Copy-15" d="M1.09851306,291.111625 L1083.84396,291.111625"/><path id="Line-8-Copy-16" d="M1.09851306,300.75882 L1083.84396,300.75882"/><path id="Line-8-Copy-17" d="M1.09851306,310.406015 L1083.84396,310.406015"/><path id="Line-8-Copy-18" d="M1.09851306,320.05321 L1083.84396,320.05321"/><path id="Line-8-Copy-19" d="M1.09851306,329.700405 L1083.84396,329.700405"/><path id="Line-8-Copy-20" d="M1.09851306,339.3476 L1083.84396,339.3476"/><path id="Line-8-Copy-21" d="M1.09851306,348.994795 L1083.84396,348.994795"/><path id="Line-8-Copy-22" d="M1.09851306,358.64199 L1083.84396,358.64199"/><path id="Line-8-Copy-7" d="M1.09851306,1.69577791 L1083.84396,1.69577791"/><path id="Line-8-Copy-8" d="M1.09851306,11.3429728 L1083.84396,11.3429728"/><path id="Line-8-Copy-9" d="M1.09851306,20.9901677 L1083.84396,20.9901677"/><path id="Line-8-Copy-10" d="M1.09851306,30.6373626 L1083.84396,30.6373626"/><path id="Line-8-Copy-11" d="M1.09851306,40.2845575 L1083.84396,40.2845575"/><path id="Line-8-Copy-12" d="M1.09851306,49.9317525 L1083.84396,49.9317525"/><path id="Line-8-Copy-13" d="M1.09851306,59.5789474 L1083.84396,59.5789474"/><path id="Line-8-Copy-14" d="M1.09851306,69.2261423 L1083.84396,69.2261423"/><path id="Line-8-Copy-15" d="M1.09851306,78.8733372 L1083.84396,78.8733372"/><path id="Line-8-Copy-16" d="M1.09851306,88.5205321 L1083.84396,88.5205321"/><path id="Line-8-Copy-17" d="M1.09851306,98.167727 L1083.84396,98.167727"/><path id="Line-8-Copy-18" d="M1.09851306,107.814922 L1083.84396,107.814922"/><path id="Line-8-Copy-19" d="M1.09851306,117.462117 L1083.84396,117.462117"/><path id="Line-8-Copy-20" d="M1.09851306,127.109312 L1083.84396,127.109312"/><path id="Line-8-Copy-21" d="M1.09851306,136.756507 L1083.84396,136.756507"/><path id="Line-8-Copy-23" d="M1.09851306,368.289184 L1083.84396,368.289184"/><path id="Line-8-Copy-24" d="M1.09851306,377.936379 L1083.84396,377.936379"/><path id="Line-8-Copy-25" d="M1.09851306,387.583574 L1083.84396,387.583574"/><path id="Line-8-Copy-26" d="M1.09851306,397.230769 L1083.84396,397.230769"/><path id="Line-8-Copy-27" d="M1.09851306,406.877964 L1083.84396,406.877964"/><path id="Line-8-Copy-28" d="M1.09851306,416.525159 L1083.84396,416.525159"/><path id="Line-8-Copy-29" d="M1.09851306,426.172354 L1083.84396,426.172354"/><path id="Line-8-Copy-30" d="M1.09851306,435.819549 L1083.84396,435.819549"/><path id="Line-8-Copy-31" d="M1.09851306,445.466744 L1083.84396,445.466744"/><path id="Line-8-Copy-32" d="M1.09851306,455.113939 L1083.84396,455.113939"/><path id="Line-8-Copy-33" d="M1.09851306,464.761134 L1083.84396,464.761134"/><path id="Line-8-Copy-34" d="M1.09851306,474.408329 L1083.84396,474.408329"/><path id="Line-8-Copy-35" d="M1.09851306,484.055523 L1083.84396,484.055523"/><path id="Line-8-Copy-36" d="M1.09851306,493.702718 L1083.84396,493.702718"/><path id="Line-8-Copy-37" d="M1.09851306,503.349913 L1083.84396,503.349913"/><path id="Line-8-Copy-38" d="M1.09851306,512.997108 L1083.84396,512.997108"/><path id="Line-8-Copy-39" d="M1.09851306,522.644303 L1083.84396,522.644303"/><path id="Line-8-Copy-40" d="M1.09851306,532.291498 L1083.84396,532.291498"/><path id="Line-8-Copy-41" d="M1.09851306,541.938693 L1083.84396,541.938693"/><path id="Line-8-Copy-42" d="M1.09851306,551.585888 L1083.84396,551.585888"/><path id="Line-8-Copy-43" d="M1.09851306,561.233083 L1083.84396,561.233083"/><path id="Line-8-Copy-44" d="M1.09851306,570.880278 L1083.84396,570.880278"/><path id="Line-8-Copy-45" d="M1.09851306,580.527473 L1083.84396,580.527473"/><path id="Line-8-Copy-46" d="M1.09851306,590.174667 L1083.84396,590.174667"/></g></g></g><path id="16:9" fill="#3D3D3D" d="M78.4703219,412.826176 L71.4875472,412.826176 L71.4875472,411.271722 L74.2748502,411.271722 L74.2748502,404.066029 L74.1441953,404.066029 L71.9375805,406.680998 L70.7471698,405.678593 L73.2586459,402.685906 L76.1475694,402.685906 L76.1475694,411.271722 L78.4703219,411.271722 L78.4703219,412.826176 Z M83.3964928,413.000507 C81.0737403,413.000507 79.7091232,411.446053 79.7091232,409.019943 C79.7091232,406.114421 81.6399112,403.833587 83.338424,402.685906 L85.9224861,402.685906 C83.5416648,404.400164 82.1480133,405.765759 81.69798,407.828679 L81.8141176,407.857734 C82.1915649,407.073243 82.8303219,406.361391 84.1078357,406.361391 C85.7918313,406.361391 87.0693452,407.58171 87.0693452,409.499354 C87.0693452,411.547746 85.6321421,413.000507 83.3964928,413.000507 Z M83.3964928,411.489636 C84.4562486,411.489636 85.1095228,410.879476 85.1095228,409.775378 L85.1095228,409.557464 C85.1095228,408.453366 84.4562486,407.843207 83.3964928,407.843207 C82.3222198,407.843207 81.6834628,408.453366 81.6834628,409.557464 L81.6834628,409.775378 C81.6834628,410.879476 82.3222198,411.489636 83.3964928,411.489636 Z M90.1373141,407.480016 C89.3533851,407.480016 88.9759379,407.029661 88.9759379,406.419501 L88.9759379,406.158004 C88.9759379,405.533317 89.3533851,405.082961 90.1373141,405.082961 C90.9357603,405.082961 91.2986903,405.533317 91.2986903,406.158004 L91.2986903,406.419501 C91.2986903,407.029661 90.9357603,407.480016 90.1373141,407.480016 Z M90.1373141,412.98598 C89.3533851,412.98598 88.9759379,412.535624 88.9759379,411.925464 L88.9759379,411.663967 C88.9759379,411.03928 89.3533851,410.588924 90.1373141,410.588924 C90.9357603,410.588924 91.2986903,411.03928 91.2986903,411.663967 L91.2986903,411.925464 C91.2986903,412.535624 90.9357603,412.98598 90.1373141,412.98598 Z M100.580022,406.492139 C100.580022,409.397661 98.6492342,411.678495 96.9507214,412.826176 L94.3666593,412.826176 C96.7474806,411.111918 98.1411321,409.746323 98.5911654,407.683403 L98.4750278,407.654348 C98.0975805,408.438838 97.4588235,409.150691 96.1813097,409.150691 C94.4973141,409.150691 93.2198002,407.930372 93.2198002,406.012728 C93.2198002,403.964335 94.6570033,402.511575 96.8926526,402.511575 C99.2154051,402.511575 100.580022,404.066029 100.580022,406.492139 Z M96.8926526,407.668875 C97.9669256,407.668875 98.6056826,407.058716 98.6056826,405.954618 L98.6056826,405.736703 C98.6056826,404.632605 97.9669256,404.022446 96.8926526,404.022446 C95.8328968,404.022446 95.1796226,404.632605 95.1796226,405.736703 L95.1796226,405.954618 C95.1796226,407.058716 95.8328968,407.668875 96.8926526,407.668875 Z"/><path id="1:1" fill="#3D3D3D" d="M272.03303,412.826176 L265.050255,412.826176 L265.050255,411.271722 L267.837558,411.271722 L267.837558,404.066029 L267.706903,404.066029 L265.500289,406.680998 L264.309878,405.678593 L266.821354,402.685906 L269.710277,402.685906 L269.710277,411.271722 L272.03303,411.271722 L272.03303,412.826176 Z M274.868724,407.480016 C274.084795,407.480016 273.707347,407.029661 273.707347,406.419501 L273.707347,406.158004 C273.707347,405.533317 274.084795,405.082961 274.868724,405.082961 C275.66717,405.082961 276.0301,405.533317 276.0301,406.158004 L276.0301,406.419501 C276.0301,407.029661 275.66717,407.480016 274.868724,407.480016 Z M274.868724,412.98598 C274.084795,412.98598 273.707347,412.535624 273.707347,411.925464 L273.707347,411.663967 C273.707347,411.03928 274.084795,410.588924 274.868724,410.588924 C275.66717,410.588924 276.0301,411.03928 276.0301,411.663967 L276.0301,411.925464 C276.0301,412.535624 275.66717,412.98598 274.868724,412.98598 Z M285.616293,412.826176 L278.633518,412.826176 L278.633518,411.271722 L281.420821,411.271722 L281.420821,404.066029 L281.290166,404.066029 L279.083552,406.680998 L277.893141,405.678593 L280.404617,402.685906 L283.293541,402.685906 L283.293541,411.271722 L285.616293,411.271722 L285.616293,412.826176 Z"/><path id="3:2" fill="#3D3D3D" d="M421.381176,406.782691 L422.382863,406.782691 C423.54424,406.782691 424.081376,406.24517 424.081376,405.518789 L424.081376,405.417096 C424.081376,404.589022 423.500688,404.080556 422.586104,404.080556 C421.700555,404.080556 421.003729,404.530912 420.510144,405.300875 L419.290699,404.196777 C419.973008,403.252483 420.931143,402.511575 422.644173,402.511575 C424.691099,402.511575 426.08475,403.528507 426.08475,405.155599 C426.08475,406.463084 425.199201,407.247575 424.139445,407.465489 L424.139445,407.552654 C425.315339,407.770569 426.258957,408.584115 426.258957,410.022348 C426.258957,411.809243 424.763685,413.000507 422.528036,413.000507 C420.553696,413.000507 419.566526,412.099796 418.927769,411.111918 L420.335938,410.036875 C420.785971,410.850421 421.395694,411.431526 422.528036,411.431526 C423.64586,411.431526 424.2701,410.850421 424.2701,409.906127 L424.2701,409.804434 C424.2701,408.874667 423.587791,408.380728 422.382863,408.380728 L421.381176,408.380728 L421.381176,406.782691 Z M429.71889,407.480016 C428.934961,407.480016 428.557514,407.029661 428.557514,406.419501 L428.557514,406.158004 C428.557514,405.533317 428.934961,405.082961 429.71889,405.082961 C430.517336,405.082961 430.880266,405.533317 430.880266,406.158004 L430.880266,406.419501 C430.880266,407.029661 430.517336,407.480016 429.71889,407.480016 Z M429.71889,412.98598 C428.934961,412.98598 428.557514,412.535624 428.557514,411.925464 L428.557514,411.663967 C428.557514,411.03928 428.934961,410.588924 429.71889,410.588924 C430.517336,410.588924 430.880266,411.03928 430.880266,411.663967 L430.880266,411.925464 C430.880266,412.535624 430.517336,412.98598 429.71889,412.98598 Z M440.089012,411.213611 L440.089012,412.826176 L433.062686,412.826176 L433.062686,411.053808 L436.241953,408.264507 C437.316226,407.320213 437.809811,406.622888 437.809811,405.736703 L437.809811,405.547845 C437.809811,404.661661 437.14202,404.167722 436.314539,404.167722 C435.269301,404.167722 434.775716,404.850519 434.543441,405.678593 L432.888479,405.039378 C433.323996,403.688311 434.412786,402.511575 436.474229,402.511575 C438.608257,402.511575 439.827703,403.790004 439.827703,405.533317 C439.827703,407.218519 438.680844,408.293562 437.272675,409.455771 L435.138646,411.213611 L440.089012,411.213611 Z"/><path id="4:3" fill="#3D3D3D" d="M638.364972,412.826176 L636.550322,412.826176 L636.550322,410.864949 L631.962886,410.864949 L631.962886,409.237857 L635.998668,402.685906 L638.364972,402.685906 L638.364972,409.383133 L639.686038,409.383133 L639.686038,410.864949 L638.364972,410.864949 L638.364972,412.826176 Z M636.434184,404.54544 L633.530744,409.383133 L636.550322,409.383133 L636.550322,404.54544 L636.434184,404.54544 Z M642.637869,407.480016 C641.85394,407.480016 641.476493,407.029661 641.476493,406.419501 L641.476493,406.158004 C641.476493,405.533317 641.85394,405.082961 642.637869,405.082961 C643.436315,405.082961 643.799245,405.533317 643.799245,406.158004 L643.799245,406.419501 C643.799245,407.029661 643.436315,407.480016 642.637869,407.480016 Z M642.637869,412.98598 C641.85394,412.98598 641.476493,412.535624 641.476493,411.925464 L641.476493,411.663967 C641.476493,411.03928 641.85394,410.588924 642.637869,410.588924 C643.436315,410.588924 643.799245,411.03928 643.799245,411.663967 L643.799245,411.925464 C643.799245,412.535624 643.436315,412.98598 642.637869,412.98598 Z M647.883418,406.782691 L648.885105,406.782691 C650.046482,406.782691 650.583618,406.24517 650.583618,405.518789 L650.583618,405.417096 C650.583618,404.589022 650.00293,404.080556 649.088346,404.080556 C648.202797,404.080556 647.505971,404.530912 647.012386,405.300875 L645.792941,404.196777 C646.47525,403.252483 647.433385,402.511575 649.146415,402.511575 C651.193341,402.511575 652.586992,403.528507 652.586992,405.155599 C652.586992,406.463084 651.701443,407.247575 650.641687,407.465489 L650.641687,407.552654 C651.81758,407.770569 652.761199,408.584115 652.761199,410.022348 C652.761199,411.809243 651.265927,413.000507 649.030277,413.000507 C647.055938,413.000507 646.068768,412.099796 645.430011,411.111918 L646.83818,410.036875 C647.288213,410.850421 647.897936,411.431526 649.030277,411.431526 C650.148102,411.431526 650.772342,410.850421 650.772342,409.906127 L650.772342,409.804434 C650.772342,408.874667 650.090033,408.380728 648.885105,408.380728 L647.883418,408.380728 L647.883418,406.782691 Z"/><path id="1:2" fill="#3D3D3D" d="M910.789967,412.826176 L903.807192,412.826176 L903.807192,411.271722 L906.594495,411.271722 L906.594495,404.066029 L906.46384,404.066029 L904.257225,406.680998 L903.066815,405.678593 L905.578291,402.685906 L908.467214,402.685906 L908.467214,411.271722 L910.789967,411.271722 L910.789967,412.826176 Z M913.62566,407.480016 C912.841731,407.480016 912.464284,407.029661 912.464284,406.419501 L912.464284,406.158004 C912.464284,405.533317 912.841731,405.082961 913.62566,405.082961 C914.424107,405.082961 914.787037,405.533317 914.787037,406.158004 L914.787037,406.419501 C914.787037,407.029661 914.424107,407.480016 913.62566,407.480016 Z M913.62566,412.98598 C912.841731,412.98598 912.464284,412.535624 912.464284,411.925464 L912.464284,411.663967 C912.464284,411.03928 912.841731,410.588924 913.62566,410.588924 C914.424107,410.588924 914.787037,411.03928 914.787037,411.663967 L914.787037,411.925464 C914.787037,412.535624 914.424107,412.98598 913.62566,412.98598 Z M923.995782,411.213611 L923.995782,412.826176 L916.969456,412.826176 L916.969456,411.053808 L920.148724,408.264507 C921.222997,407.320213 921.716582,406.622888 921.716582,405.736703 L921.716582,405.547845 C921.716582,404.661661 921.04879,404.167722 920.22131,404.167722 C919.176071,404.167722 918.682486,404.850519 918.450211,405.678593 L916.79525,405.039378 C917.230766,403.688311 918.319556,402.511575 920.380999,402.511575 C922.515028,402.511575 923.734473,403.790004 923.734473,405.533317 C923.734473,407.218519 922.587614,408.293562 921.179445,409.455771 L919.045416,411.213611 L923.995782,411.213611 Z"/><g id="Group-27" fill="#F7F1FF" stroke="#D0B0FF" stroke-width="1.21" transform="translate(70.166482, 299.026585)"><rect id="Rectangle-20" width="9.678" height="9.686" x=".605" y="78.086"/><rect id="Rectangle-20-Copy-23" width="9.678" height="9.686" x=".605" y="68.401"/><rect id="Rectangle-20-Copy-8" width="9.678" height="9.686" x="10.283" y="78.086"/><rect id="Rectangle-20-Copy-24" width="9.678" height="9.686" x="10.283" y="68.401"/><rect id="Rectangle-20-Copy-9" width="9.678" height="9.686" x="19.961" y="78.086"/><rect id="Rectangle-20-Copy-25" width="9.678" height="9.686" x="19.961" y="68.401"/><rect id="Rectangle-20-Copy-10" width="9.678" height="9.686" x="29.639" y="78.086"/><rect id="Rectangle-20-Copy-26" width="9.678" height="9.686" x="29.639" y="68.401"/><rect id="Rectangle-20-Copy-11" width="9.678" height="9.686" x="39.318" y="78.086"/><rect id="Rectangle-20-Copy-27" width="9.678" height="9.686" x="39.318" y="68.401"/><rect id="Rectangle-20-Copy-12" width="9.678" height="9.686" x="48.996" y="78.086"/><rect id="Rectangle-20-Copy-28" width="9.678" height="9.686" x="48.996" y="68.401"/><rect id="Rectangle-20-Copy-13" width="9.678" height="9.686" x="58.674" y="78.086"/><rect id="Rectangle-20-Copy-29" width="9.678" height="9.686" x="58.674" y="68.401"/><rect id="Rectangle-20-Copy-14" width="9.678" height="9.686" x="68.352" y="78.086"/><rect id="Rectangle-20-Copy-30" width="9.678" height="9.686" x="68.352" y="68.401"/><rect id="Rectangle-20-Copy-15" width="9.678" height="9.686" x="78.03" y="78.086"/><rect id="Rectangle-20-Copy-31" width="9.678" height="9.686" x="78.03" y="68.401"/><rect id="Rectangle-20-Copy-16" width="9.678" height="9.686" x="87.708" y="78.086"/><rect id="Rectangle-20-Copy-32" width="9.678" height="9.686" x="87.708" y="68.401"/><rect id="Rectangle-20-Copy-17" width="9.678" height="9.686" x="97.386" y="78.086"/><rect id="Rectangle-20-Copy-33" width="9.678" height="9.686" x="97.386" y="68.401"/><rect id="Rectangle-20-Copy-18" width="9.678" height="9.686" x="107.064" y="78.086"/><rect id="Rectangle-20-Copy-34" width="9.678" height="9.686" x="107.064" y="68.401"/><rect id="Rectangle-20-Copy-19" width="9.678" height="9.686" x="116.743" y="78.086"/><rect id="Rectangle-20-Copy-35" width="9.678" height="9.686" x="116.743" y="68.401"/><rect id="Rectangle-20-Copy-20" width="9.678" height="9.686" x="126.421" y="78.086"/><rect id="Rectangle-20-Copy-36" width="9.678" height="9.686" x="126.421" y="68.401"/><rect id="Rectangle-20-Copy-21" width="9.678" height="9.686" x="136.099" y="78.086"/><rect id="Rectangle-20-Copy-37" width="9.678" height="9.686" x="136.099" y="68.401"/><rect id="Rectangle-20-Copy-22" width="9.678" height="9.686" x="145.777" y="78.086"/><rect id="Rectangle-20-Copy-38" width="9.678" height="9.686" x="145.777" y="68.401"/><rect id="Rectangle-20" width="9.678" height="9.686" x=".605" y="49.03"/><rect id="Rectangle-20-Copy-23" width="9.678" height="9.686" x=".605" y="39.345"/><rect id="Rectangle-20-Copy-8" width="9.678" height="9.686" x="10.283" y="49.03"/><rect id="Rectangle-20-Copy-24" width="9.678" height="9.686" x="10.283" y="39.345"/><rect id="Rectangle-20-Copy-9" width="9.678" height="9.686" x="19.961" y="49.03"/><rect id="Rectangle-20-Copy-25" width="9.678" height="9.686" x="19.961" y="39.345"/><rect id="Rectangle-20-Copy-10" width="9.678" height="9.686" x="29.639" y="49.03"/><rect id="Rectangle-20-Copy-26" width="9.678" height="9.686" x="29.639" y="39.345"/><rect id="Rectangle-20-Copy-11" width="9.678" height="9.686" x="39.318" y="49.03"/><rect id="Rectangle-20-Copy-27" width="9.678" height="9.686" x="39.318" y="39.345"/><rect id="Rectangle-20-Copy-12" width="9.678" height="9.686" x="48.996" y="49.03"/><rect id="Rectangle-20-Copy-28" width="9.678" height="9.686" x="48.996" y="39.345"/><rect id="Rectangle-20-Copy-13" width="9.678" height="9.686" x="58.674" y="49.03"/><rect id="Rectangle-20-Copy-29" width="9.678" height="9.686" x="58.674" y="39.345"/><rect id="Rectangle-20-Copy-14" width="9.678" height="9.686" x="68.352" y="49.03"/><rect id="Rectangle-20-Copy-30" width="9.678" height="9.686" x="68.352" y="39.345"/><rect id="Rectangle-20-Copy-15" width="9.678" height="9.686" x="78.03" y="49.03"/><rect id="Rectangle-20-Copy-31" width="9.678" height="9.686" x="78.03" y="39.345"/><rect id="Rectangle-20-Copy-16" width="9.678" height="9.686" x="87.708" y="49.03"/><rect id="Rectangle-20-Copy-32" width="9.678" height="9.686" x="87.708" y="39.345"/><rect id="Rectangle-20-Copy-17" width="9.678" height="9.686" x="97.386" y="49.03"/><rect id="Rectangle-20-Copy-33" width="9.678" height="9.686" x="97.386" y="39.345"/><rect id="Rectangle-20-Copy-18" width="9.678" height="9.686" x="107.064" y="49.03"/><rect id="Rectangle-20-Copy-34" width="9.678" height="9.686" x="107.064" y="39.345"/><rect id="Rectangle-20-Copy-19" width="9.678" height="9.686" x="116.743" y="49.03"/><rect id="Rectangle-20-Copy-35" width="9.678" height="9.686" x="116.743" y="39.345"/><rect id="Rectangle-20-Copy-20" width="9.678" height="9.686" x="126.421" y="49.03"/><rect id="Rectangle-20-Copy-36" width="9.678" height="9.686" x="126.421" y="39.345"/><rect id="Rectangle-20-Copy-21" width="9.678" height="9.686" x="136.099" y="49.03"/><rect id="Rectangle-20-Copy-37" width="9.678" height="9.686" x="136.099" y="39.345"/><rect id="Rectangle-20-Copy-22" width="9.678" height="9.686" x="145.777" y="49.03"/><rect id="Rectangle-20-Copy-38" width="9.678" height="9.686" x="145.777" y="39.345"/><rect id="Rectangle-20" width="9.678" height="9.686" x=".605" y="68.401"/><rect id="Rectangle-20-Copy-23" width="9.678" height="9.686" x=".605" y="58.715"/><rect id="Rectangle-20-Copy-8" width="9.678" height="9.686" x="10.283" y="68.401"/><rect id="Rectangle-20-Copy-24" width="9.678" height="9.686" x="10.283" y="58.715"/><rect id="Rectangle-20-Copy-9" width="9.678" height="9.686" x="19.961" y="68.401"/><rect id="Rectangle-20-Copy-25" width="9.678" height="9.686" x="19.961" y="58.715"/><rect id="Rectangle-20-Copy-10" width="9.678" height="9.686" x="29.639" y="68.401"/><rect id="Rectangle-20-Copy-26" width="9.678" height="9.686" x="29.639" y="58.715"/><rect id="Rectangle-20-Copy-11" width="9.678" height="9.686" x="39.318" y="68.401"/><rect id="Rectangle-20-Copy-27" width="9.678" height="9.686" x="39.318" y="58.715"/><rect id="Rectangle-20-Copy-12" width="9.678" height="9.686" x="48.996" y="68.401"/><rect id="Rectangle-20-Copy-28" width="9.678" height="9.686" x="48.996" y="58.715"/><rect id="Rectangle-20-Copy-13" width="9.678" height="9.686" x="58.674" y="68.401"/><rect id="Rectangle-20-Copy-29" width="9.678" height="9.686" x="58.674" y="58.715"/><rect id="Rectangle-20-Copy-14" width="9.678" height="9.686" x="68.352" y="68.401"/><rect id="Rectangle-20-Copy-30" width="9.678" height="9.686" x="68.352" y="58.715"/><rect id="Rectangle-20-Copy-15" width="9.678" height="9.686" x="78.03" y="68.401"/><rect id="Rectangle-20-Copy-31" width="9.678" height="9.686" x="78.03" y="58.715"/><rect id="Rectangle-20-Copy-16" width="9.678" height="9.686" x="87.708" y="68.401"/><rect id="Rectangle-20-Copy-32" width="9.678" height="9.686" x="87.708" y="58.715"/><rect id="Rectangle-20-Copy-17" width="9.678" height="9.686" x="97.386" y="68.401"/><rect id="Rectangle-20-Copy-33" width="9.678" height="9.686" x="97.386" y="58.715"/><rect id="Rectangle-20-Copy-18" width="9.678" height="9.686" x="107.064" y="68.401"/><rect id="Rectangle-20-Copy-34" width="9.678" height="9.686" x="107.064" y="58.715"/><rect id="Rectangle-20-Copy-19" width="9.678" height="9.686" x="116.743" y="68.401"/><rect id="Rectangle-20-Copy-35" width="9.678" height="9.686" x="116.743" y="58.715"/><rect id="Rectangle-20-Copy-20" width="9.678" height="9.686" x="126.421" y="68.401"/><rect id="Rectangle-20-Copy-36" width="9.678" height="9.686" x="126.421" y="58.715"/><rect id="Rectangle-20-Copy-21" width="9.678" height="9.686" x="136.099" y="68.401"/><rect id="Rectangle-20-Copy-37" width="9.678" height="9.686" x="136.099" y="58.715"/><rect id="Rectangle-20-Copy-22" width="9.678" height="9.686" x="145.777" y="68.401"/><rect id="Rectangle-20-Copy-38" width="9.678" height="9.686" x="145.777" y="58.715"/><rect id="Rectangle-20" width="9.678" height="9.686" x=".605" y="39.345"/><rect id="Rectangle-20-Copy-23" width="9.678" height="9.686" x=".605" y="29.66"/><rect id="Rectangle-20-Copy-8" width="9.678" height="9.686" x="10.283" y="39.345"/><rect id="Rectangle-20-Copy-24" width="9.678" height="9.686" x="10.283" y="29.66"/><rect id="Rectangle-20-Copy-9" width="9.678" height="9.686" x="19.961" y="39.345"/><rect id="Rectangle-20-Copy-25" width="9.678" height="9.686" x="19.961" y="29.66"/><rect id="Rectangle-20-Copy-10" width="9.678" height="9.686" x="29.639" y="39.345"/><rect id="Rectangle-20-Copy-26" width="9.678" height="9.686" x="29.639" y="29.66"/><rect id="Rectangle-20-Copy-11" width="9.678" height="9.686" x="39.318" y="39.345"/><rect id="Rectangle-20-Copy-27" width="9.678" height="9.686" x="39.318" y="29.66"/><rect id="Rectangle-20-Copy-12" width="9.678" height="9.686" x="48.996" y="39.345"/><rect id="Rectangle-20-Copy-28" width="9.678" height="9.686" x="48.996" y="29.66"/><rect id="Rectangle-20-Copy-13" width="9.678" height="9.686" x="58.674" y="39.345"/><rect id="Rectangle-20-Copy-29" width="9.678" height="9.686" x="58.674" y="29.66"/><rect id="Rectangle-20-Copy-14" width="9.678" height="9.686" x="68.352" y="39.345"/><rect id="Rectangle-20-Copy-30" width="9.678" height="9.686" x="68.352" y="29.66"/><rect id="Rectangle-20-Copy-15" width="9.678" height="9.686" x="78.03" y="39.345"/><rect id="Rectangle-20-Copy-31" width="9.678" height="9.686" x="78.03" y="29.66"/><rect id="Rectangle-20-Copy-16" width="9.678" height="9.686" x="87.708" y="39.345"/><rect id="Rectangle-20-Copy-32" width="9.678" height="9.686" x="87.708" y="29.66"/><rect id="Rectangle-20-Copy-17" width="9.678" height="9.686" x="97.386" y="39.345"/><rect id="Rectangle-20-Copy-33" width="9.678" height="9.686" x="97.386" y="29.66"/><rect id="Rectangle-20-Copy-18" width="9.678" height="9.686" x="107.064" y="39.345"/><rect id="Rectangle-20-Copy-34" width="9.678" height="9.686" x="107.064" y="29.66"/><rect id="Rectangle-20-Copy-19" width="9.678" height="9.686" x="116.743" y="39.345"/><rect id="Rectangle-20-Copy-35" width="9.678" height="9.686" x="116.743" y="29.66"/><rect id="Rectangle-20-Copy-20" width="9.678" height="9.686" x="126.421" y="39.345"/><rect id="Rectangle-20-Copy-36" width="9.678" height="9.686" x="126.421" y="29.66"/><rect id="Rectangle-20-Copy-21" width="9.678" height="9.686" x="136.099" y="39.345"/><rect id="Rectangle-20-Copy-37" width="9.678" height="9.686" x="136.099" y="29.66"/><rect id="Rectangle-20-Copy-22" width="9.678" height="9.686" x="145.777" y="39.345"/><rect id="Rectangle-20-Copy-38" width="9.678" height="9.686" x="145.777" y="29.66"/><rect id="Rectangle-20" width="9.678" height="9.686" x=".605" y="19.975"/><rect id="Rectangle-20-Copy-23" width="9.678" height="9.686" x=".605" y="10.29"/><rect id="Rectangle-20-Copy-8" width="9.678" height="9.686" x="10.283" y="19.975"/><rect id="Rectangle-20-Copy-24" width="9.678" height="9.686" x="10.283" y="10.29"/><rect id="Rectangle-20-Copy-9" width="9.678" height="9.686" x="19.961" y="19.975"/><rect id="Rectangle-20-Copy-25" width="9.678" height="9.686" x="19.961" y="10.29"/><rect id="Rectangle-20-Copy-10" width="9.678" height="9.686" x="29.639" y="19.975"/><rect id="Rectangle-20-Copy-26" width="9.678" height="9.686" x="29.639" y="10.29"/><rect id="Rectangle-20-Copy-11" width="9.678" height="9.686" x="39.318" y="19.975"/><rect id="Rectangle-20-Copy-27" width="9.678" height="9.686" x="39.318" y="10.29"/><rect id="Rectangle-20-Copy-12" width="9.678" height="9.686" x="48.996" y="19.975"/><rect id="Rectangle-20-Copy-28" width="9.678" height="9.686" x="48.996" y="10.29"/><rect id="Rectangle-20-Copy-13" width="9.678" height="9.686" x="58.674" y="19.975"/><rect id="Rectangle-20-Copy-29" width="9.678" height="9.686" x="58.674" y="10.29"/><rect id="Rectangle-20-Copy-14" width="9.678" height="9.686" x="68.352" y="19.975"/><rect id="Rectangle-20-Copy-30" width="9.678" height="9.686" x="68.352" y="10.29"/><rect id="Rectangle-20-Copy-15" width="9.678" height="9.686" x="78.03" y="19.975"/><rect id="Rectangle-20-Copy-31" width="9.678" height="9.686" x="78.03" y="10.29"/><rect id="Rectangle-20-Copy-16" width="9.678" height="9.686" x="87.708" y="19.975"/><rect id="Rectangle-20-Copy-32" width="9.678" height="9.686" x="87.708" y="10.29"/><rect id="Rectangle-20-Copy-17" width="9.678" height="9.686" x="97.386" y="19.975"/><rect id="Rectangle-20-Copy-33" width="9.678" height="9.686" x="97.386" y="10.29"/><rect id="Rectangle-20-Copy-18" width="9.678" height="9.686" x="107.064" y="19.975"/><rect id="Rectangle-20-Copy-34" width="9.678" height="9.686" x="107.064" y="10.29"/><rect id="Rectangle-20-Copy-19" width="9.678" height="9.686" x="116.743" y="19.975"/><rect id="Rectangle-20-Copy-35" width="9.678" height="9.686" x="116.743" y="10.29"/><rect id="Rectangle-20-Copy-20" width="9.678" height="9.686" x="126.421" y="19.975"/><rect id="Rectangle-20-Copy-36" width="9.678" height="9.686" x="126.421" y="10.29"/><rect id="Rectangle-20-Copy-21" width="9.678" height="9.686" x="136.099" y="19.975"/><rect id="Rectangle-20-Copy-37" width="9.678" height="9.686" x="136.099" y="10.29"/><rect id="Rectangle-20-Copy-22" width="9.678" height="9.686" x="145.777" y="19.975"/><rect id="Rectangle-20-Copy-38" width="9.678" height="9.686" x="145.777" y="10.29"/><rect id="Rectangle-20" width="9.678" height="9.686" x=".605" y="10.29"/><rect id="Rectangle-20-Copy-23" width="9.678" height="9.686" x=".605" y=".605"/><rect id="Rectangle-20-Copy-8" width="9.678" height="9.686" x="10.283" y="10.29"/><rect id="Rectangle-20-Copy-24" width="9.678" height="9.686" x="10.283" y=".605"/><rect id="Rectangle-20-Copy-9" width="9.678" height="9.686" x="19.961" y="10.29"/><rect id="Rectangle-20-Copy-25" width="9.678" height="9.686" x="19.961" y=".605"/><rect id="Rectangle-20-Copy-10" width="9.678" height="9.686" x="29.639" y="10.29"/><rect id="Rectangle-20-Copy-26" width="9.678" height="9.686" x="29.639" y=".605"/><rect id="Rectangle-20-Copy-11" width="9.678" height="9.686" x="39.318" y="10.29"/><rect id="Rectangle-20-Copy-27" width="9.678" height="9.686" x="39.318" y=".605"/><rect id="Rectangle-20-Copy-12" width="9.678" height="9.686" x="48.996" y="10.29"/><rect id="Rectangle-20-Copy-28" width="9.678" height="9.686" x="48.996" y=".605"/><rect id="Rectangle-20-Copy-13" width="9.678" height="9.686" x="58.674" y="10.29"/><rect id="Rectangle-20-Copy-29" width="9.678" height="9.686" x="58.674" y=".605"/><rect id="Rectangle-20-Copy-14" width="9.678" height="9.686" x="68.352" y="10.29"/><rect id="Rectangle-20-Copy-30" width="9.678" height="9.686" x="68.352" y=".605"/><rect id="Rectangle-20-Copy-15" width="9.678" height="9.686" x="78.03" y="10.29"/><rect id="Rectangle-20-Copy-31" width="9.678" height="9.686" x="78.03" y=".605"/><rect id="Rectangle-20-Copy-16" width="9.678" height="9.686" x="87.708" y="10.29"/><rect id="Rectangle-20-Copy-32" width="9.678" height="9.686" x="87.708" y=".605"/><rect id="Rectangle-20-Copy-17" width="9.678" height="9.686" x="97.386" y="10.29"/><rect id="Rectangle-20-Copy-33" width="9.678" height="9.686" x="97.386" y=".605"/><rect id="Rectangle-20-Copy-18" width="9.678" height="9.686" x="107.064" y="10.29"/><rect id="Rectangle-20-Copy-34" width="9.678" height="9.686" x="107.064" y=".605"/><rect id="Rectangle-20-Copy-19" width="9.678" height="9.686" x="116.743" y="10.29"/><rect id="Rectangle-20-Copy-35" width="9.678" height="9.686" x="116.743" y=".605"/><rect id="Rectangle-20-Copy-20" width="9.678" height="9.686" x="126.421" y="10.29"/><rect id="Rectangle-20-Copy-36" width="9.678" height="9.686" x="126.421" y=".605"/><rect id="Rectangle-20-Copy-21" width="9.678" height="9.686" x="136.099" y="10.29"/><rect id="Rectangle-20-Copy-37" width="9.678" height="9.686" x="136.099" y=".605"/><rect id="Rectangle-20-Copy-22" width="9.678" height="9.686" x="145.777" y="10.29"/><rect id="Rectangle-20-Copy-38" width="9.678" height="9.686" x="145.777" y=".605"/></g><g id="Group-28" fill="#F7F1FF" stroke="#D0B0FF" stroke-width="1.21" transform="translate(902.486127, 153.750511)"><rect id="Rectangle-20-Copy-6" width="95.571" height="191.281" x=".605" y="41.767"/><rect id="Rectangle-21-Copy-4" width="29.034" height="29.056" x=".605" y="145.881"/><rect id="Rectangle-21-Copy-6" width="29.034" height="29.056" x=".605" y="29.66"/><rect id="Rectangle-21-Copy-5" width="29.034" height="29.056" x=".605" y="116.826"/><rect id="Rectangle-21-Copy-7" width="29.034" height="29.056" x=".605" y=".605"/><rect id="Rectangle-21-Copy-38" width="29.034" height="29.056" x=".605" y="174.936"/><rect id="Rectangle-21-Copy-52" width="29.034" height="29.056" x=".605" y="58.715"/><rect id="Rectangle-21-Copy-39" width="29.034" height="29.056" x=".605" y="203.992"/><rect id="Rectangle-21-Copy-53" width="29.034" height="29.056" x=".605" y="87.771"/><rect id="Rectangle-21-Copy-40" width="29.034" height="29.056" x="58.674" y="145.881"/><rect id="Rectangle-21-Copy-54" width="29.034" height="29.056" x="58.674" y="29.66"/><rect id="Rectangle-21-Copy-41" width="29.034" height="29.056" x="58.674" y="116.826"/><rect id="Rectangle-21-Copy-55" width="29.034" height="29.056" x="58.674" y=".605"/><rect id="Rectangle-21-Copy-42" width="29.034" height="29.056" x="58.674" y="174.936"/><rect id="Rectangle-21-Copy-56" width="29.034" height="29.056" x="58.674" y="58.715"/><rect id="Rectangle-21-Copy-43" width="29.034" height="29.056" x="58.674" y="203.992"/><rect id="Rectangle-21-Copy-57" width="29.034" height="29.056" x="58.674" y="87.771"/><rect id="Rectangle-21-Copy-44" width="29.034" height="29.056" x="29.639" y="145.881"/><rect id="Rectangle-21-Copy-58" width="29.034" height="29.056" x="29.639" y="29.66"/><rect id="Rectangle-21-Copy-45" width="29.034" height="29.056" x="29.639" y="116.826"/><rect id="Rectangle-21-Copy-59" width="29.034" height="29.056" x="29.639" y=".605"/><rect id="Rectangle-21-Copy-46" width="29.034" height="29.056" x="29.639" y="174.936"/><rect id="Rectangle-21-Copy-60" width="29.034" height="29.056" x="29.639" y="58.715"/><rect id="Rectangle-21-Copy-47" width="29.034" height="29.056" x="29.639" y="203.992"/><rect id="Rectangle-21-Copy-61" width="29.034" height="29.056" x="29.639" y="87.771"/><rect id="Rectangle-21-Copy-48" width="29.034" height="29.056" x="87.708" y="145.881"/><rect id="Rectangle-21-Copy-62" width="29.034" height="29.056" x="87.708" y="29.66"/><rect id="Rectangle-21-Copy-49" width="29.034" height="29.056" x="87.708" y="116.826"/><rect id="Rectangle-21-Copy-63" width="29.034" height="29.056" x="87.708" y=".605"/><rect id="Rectangle-21-Copy-50" width="29.034" height="29.056" x="87.708" y="174.936"/><rect id="Rectangle-21-Copy-64" width="29.034" height="29.056" x="87.708" y="58.715"/><rect id="Rectangle-21-Copy-51" width="29.034" height="29.056" x="87.708" y="203.992"/><rect id="Rectangle-21-Copy-65" width="29.034" height="29.056" x="87.708" y="87.771"/></g><g id="Group-31" fill="#F7F1FF" stroke="#D0B0FF" stroke-width="1.21" transform="translate(263.729190, 269.971370)"><rect id="Rectangle-21-Copy" width="29.034" height="29.056" x=".605" y="29.66"/><rect id="Rectangle-21-Copy-2" width="29.034" height="29.056" x=".605" y=".605"/><rect id="Rectangle-21-Copy-24" width="29.034" height="29.056" x=".605" y="58.715"/><rect id="Rectangle-21-Copy-25" width="29.034" height="29.056" x=".605" y="87.771"/><rect id="Rectangle-21-Copy-26" width="29.034" height="29.056" x="58.674" y="29.66"/><rect id="Rectangle-21-Copy-35" width="29.034" height="29.056" x="58.674" y=".605"/><rect id="Rectangle-21-Copy-27" width="29.034" height="29.056" x="58.674" y="58.715"/><rect id="Rectangle-21-Copy-28" width="29.034" height="29.056" x="58.674" y="87.771"/><rect id="Rectangle-21-Copy-29" width="29.034" height="29.056" x="29.639" y="29.66"/><rect id="Rectangle-21-Copy-36" width="29.034" height="29.056" x="29.639" y=".605"/><rect id="Rectangle-21-Copy-30" width="29.034" height="29.056" x="29.639" y="58.715"/><rect id="Rectangle-21-Copy-31" width="29.034" height="29.056" x="29.639" y="87.771"/><rect id="Rectangle-21-Copy-32" width="29.034" height="29.056" x="87.708" y="29.66"/><rect id="Rectangle-21-Copy-37" width="29.034" height="29.056" x="87.708" y=".605"/><rect id="Rectangle-21-Copy-33" width="29.034" height="29.056" x="87.708" y="58.715"/><rect id="Rectangle-21-Copy-34" width="29.034" height="29.056" x="87.708" y="87.771"/></g><g id="Group-30" fill="#F7F1FF" stroke="#D0B0FF" stroke-width="1.21" transform="translate(418.579356, 269.971370)"><rect id="Rectangle-21-Copy-66" width="29.034" height="29.056" x=".605" y="58.715"/><rect id="Rectangle-21-Copy-68" width="29.034" height="29.056" x=".605" y=".605"/><rect id="Rectangle-21-Copy-67" width="29.034" height="29.056" x=".605" y="87.771"/><rect id="Rectangle-21-Copy-69" width="29.034" height="29.056" x=".605" y="29.66"/><rect id="Rectangle-21-Copy-70" width="29.034" height="29.056" x="58.674" y="58.715"/><rect id="Rectangle-21-Copy-76" width="29.034" height="29.056" x="58.674" y=".605"/><rect id="Rectangle-21-Copy-72" width="29.034" height="29.056" x="116.743" y="58.715"/><rect id="Rectangle-21-Copy-77" width="29.034" height="29.056" x="116.743" y=".605"/><rect id="Rectangle-21-Copy-71" width="29.034" height="29.056" x="58.674" y="87.771"/><rect id="Rectangle-21-Copy-82" width="29.034" height="29.056" x="58.674" y="29.66"/><rect id="Rectangle-21-Copy-73" width="29.034" height="29.056" x="116.743" y="87.771"/><rect id="Rectangle-21-Copy-83" width="29.034" height="29.056" x="116.743" y="29.66"/><rect id="Rectangle-21-Copy-74" width="29.034" height="29.056" x="29.639" y="58.715"/><rect id="Rectangle-21-Copy-84" width="29.034" height="29.056" x="29.639" y=".605"/><rect id="Rectangle-21-Copy-75" width="29.034" height="29.056" x="29.639" y="87.771"/><rect id="Rectangle-21-Copy-85" width="29.034" height="29.056" x="29.639" y="29.66"/><rect id="Rectangle-21-Copy-78" width="29.034" height="29.056" x="87.708" y="58.715"/><rect id="Rectangle-21-Copy-86" width="29.034" height="29.056" x="87.708" y=".605"/><rect id="Rectangle-21-Copy-80" width="29.034" height="29.056" x="145.777" y="58.715"/><rect id="Rectangle-21-Copy-87" width="29.034" height="29.056" x="145.777" y=".605"/><rect id="Rectangle-21-Copy-79" width="29.034" height="29.056" x="87.708" y="87.771"/><rect id="Rectangle-21-Copy-88" width="29.034" height="29.056" x="87.708" y="29.66"/><rect id="Rectangle-21-Copy-81" width="29.034" height="29.056" x="145.777" y="87.771"/><rect id="Rectangle-21-Copy-89" width="29.034" height="29.056" x="145.777" y="29.66"/></g><g id="Group-29" fill="#F7F1FF" stroke="#D0B0FF" stroke-width="1.21" transform="translate(631.498335, 213.071575)"><rect id="Rectangle-21-Copy-90" width="29.034" height="29.056" x=".605" y="115.615"/><rect id="Rectangle-21-Copy-91" width="29.034" height="29.056" x=".605" y="57.505"/><rect id="Rectangle-21-Copy-122" width="29.034" height="29.056" x=".605" y=".605"/><rect id="Rectangle-21-Copy-92" width="29.034" height="29.056" x=".605" y="144.67"/><rect id="Rectangle-21-Copy-93" width="29.034" height="29.056" x=".605" y="86.56"/><rect id="Rectangle-21-Copy-123" width="29.034" height="29.056" x=".605" y="29.66"/><rect id="Rectangle-21-Copy-94" width="29.034" height="29.056" x="58.674" y="115.615"/><rect id="Rectangle-21-Copy-95" width="29.034" height="29.056" x="58.674" y="57.505"/><rect id="Rectangle-21-Copy-124" width="29.034" height="29.056" x="58.674" y=".605"/><rect id="Rectangle-21-Copy-96" width="29.034" height="29.056" x="116.743" y="115.615"/><rect id="Rectangle-21-Copy-114" width="29.034" height="29.056" x="174.811" y="115.615"/><rect id="Rectangle-21-Copy-118" width="29.034" height="29.056" x="174.811" y="57.505"/><rect id="Rectangle-21-Copy-125" width="29.034" height="29.056" x="174.811" y=".605"/><rect id="Rectangle-21-Copy-97" width="29.034" height="29.056" x="116.743" y="57.505"/><rect id="Rectangle-21-Copy-126" width="29.034" height="29.056" x="116.743" y=".605"/><rect id="Rectangle-21-Copy-98" width="29.034" height="29.056" x="58.674" y="144.67"/><rect id="Rectangle-21-Copy-99" width="29.034" height="29.056" x="58.674" y="86.56"/><rect id="Rectangle-21-Copy-127" width="29.034" height="29.056" x="58.674" y="29.66"/><rect id="Rectangle-21-Copy-100" width="29.034" height="29.056" x="116.743" y="144.67"/><rect id="Rectangle-21-Copy-115" width="29.034" height="29.056" x="174.811" y="144.67"/><rect id="Rectangle-21-Copy-119" width="29.034" height="29.056" x="174.811" y="86.56"/><rect id="Rectangle-21-Copy-128" width="29.034" height="29.056" x="174.811" y="29.66"/><rect id="Rectangle-21-Copy-101" width="29.034" height="29.056" x="116.743" y="86.56"/><rect id="Rectangle-21-Copy-129" width="29.034" height="29.056" x="116.743" y="29.66"/><rect id="Rectangle-21-Copy-102" width="29.034" height="29.056" x="29.639" y="115.615"/><rect id="Rectangle-21-Copy-103" width="29.034" height="29.056" x="29.639" y="57.505"/><rect id="Rectangle-21-Copy-130" width="29.034" height="29.056" x="29.639" y=".605"/><rect id="Rectangle-21-Copy-104" width="29.034" height="29.056" x="29.639" y="144.67"/><rect id="Rectangle-21-Copy-105" width="29.034" height="29.056" x="29.639" y="86.56"/><rect id="Rectangle-21-Copy-131" width="29.034" height="29.056" x="29.639" y="29.66"/><rect id="Rectangle-21-Copy-106" width="29.034" height="29.056" x="87.708" y="115.615"/><rect id="Rectangle-21-Copy-107" width="29.034" height="29.056" x="87.708" y="57.505"/><rect id="Rectangle-21-Copy-132" width="29.034" height="29.056" x="87.708" y=".605"/><rect id="Rectangle-21-Copy-108" width="29.034" height="29.056" x="145.777" y="115.615"/><rect id="Rectangle-21-Copy-116" width="29.034" height="29.056" x="203.846" y="115.615"/><rect id="Rectangle-21-Copy-120" width="29.034" height="29.056" x="203.846" y="57.505"/><rect id="Rectangle-21-Copy-133" width="29.034" height="29.056" x="203.846" y=".605"/><rect id="Rectangle-21-Copy-109" width="29.034" height="29.056" x="145.777" y="57.505"/><rect id="Rectangle-21-Copy-134" width="29.034" height="29.056" x="145.777" y=".605"/><rect id="Rectangle-21-Copy-110" width="29.034" height="29.056" x="87.708" y="144.67"/><rect id="Rectangle-21-Copy-111" width="29.034" height="29.056" x="87.708" y="86.56"/><rect id="Rectangle-21-Copy-135" width="29.034" height="29.056" x="87.708" y="29.66"/><rect id="Rectangle-21-Copy-112" width="29.034" height="29.056" x="145.777" y="144.67"/><rect id="Rectangle-21-Copy-117" width="29.034" height="29.056" x="203.846" y="144.67"/><rect id="Rectangle-21-Copy-121" width="29.034" height="29.056" x="203.846" y="86.56"/><rect id="Rectangle-21-Copy-136" width="29.034" height="29.056" x="203.846" y="29.66"/><rect id="Rectangle-21-Copy-113" width="29.034" height="29.056" x="145.777" y="86.56"/><rect id="Rectangle-21-Copy-137" width="29.034" height="29.056" x="145.777" y="29.66"/></g></g></g></svg>