<svg xmlns="http://www.w3.org/2000/svg" xmlns:xlink="http://www.w3.org/1999/xlink" width="1120" height="630" version="1.1" viewBox="0 0 1120 630"><title>Layout_overview_Columns-rows</title><desc>Created with Sketch.</desc><g id="Columns-rows" fill="none" fill-rule="evenodd" stroke="none" stroke-width="1"><g id="Group"><g id="Columns-Copy-3" transform="translate(77.241379, 77.241379)"><g id="animation"><g id="columns" stroke="#97C1FF" stroke-width="1.207" transform="translate(1.206897, 24.137931)"><path id="Rectangle-17-Copy-487" d="M-0.603448276,361.465517 L59.7413793,361.465517 L59.7413793,451.982759 L-0.603448276,451.982759 L-0.603448276,361.465517 Z"/><path id="Rectangle-17-Copy-488" d="M59.7413793,361.465517 L120.086207,361.465517 L120.086207,451.982759 L59.7413793,451.982759 L59.7413793,361.465517 Z"/><path id="Rectangle-17-Copy-489" d="M120.086207,361.465517 L180.431034,361.465517 L180.431034,451.982759 L120.086207,451.982759 L120.086207,361.465517 Z"/><path id="Rectangle-17-Copy-490" d="M180.431034,361.465517 L240.775862,361.465517 L240.775862,451.982759 L180.431034,451.982759 L180.431034,361.465517 Z"/><path id="Rectangle-17-Copy-491" d="M240.775862,361.465517 L301.12069,361.465517 L301.12069,451.982759 L240.775862,451.982759 L240.775862,361.465517 Z"/><path id="Rectangle-17-Copy-492" d="M301.12069,361.465517 L361.465517,361.465517 L361.465517,451.982759 L301.12069,451.982759 L301.12069,361.465517 Z"/><path id="Rectangle-17-Copy-493" d="M361.465517,361.465517 L421.810345,361.465517 L421.810345,451.982759 L361.465517,451.982759 L361.465517,361.465517 Z"/><path id="Rectangle-17-Copy-494" d="M421.810345,361.465517 L482.155172,361.465517 L482.155172,451.982759 L421.810345,451.982759 L421.810345,361.465517 Z"/><path id="Rectangle-17-Copy-495" d="M482.155172,361.465517 L542.5,361.465517 L542.5,451.982759 L482.155172,451.982759 L482.155172,361.465517 Z"/><path id="Rectangle-17-Copy-496" d="M542.5,361.465517 L602.844828,361.465517 L602.844828,451.982759 L542.5,451.982759 L542.5,361.465517 Z"/><path id="Rectangle-17-Copy-497" d="M602.844828,361.465517 L663.189655,361.465517 L663.189655,451.982759 L602.844828,451.982759 L602.844828,361.465517 Z"/><path id="Rectangle-17-Copy-498" d="M663.189655,361.465517 L723.534483,361.465517 L723.534483,451.982759 L663.189655,451.982759 L663.189655,361.465517 Z"/><path id="Rectangle-17-Copy-499" d="M723.534483,361.465517 L783.87931,361.465517 L783.87931,451.982759 L723.534483,451.982759 L723.534483,361.465517 Z"/><path id="Rectangle-17-Copy-500" d="M783.87931,361.465517 L844.224138,361.465517 L844.224138,451.982759 L783.87931,451.982759 L783.87931,361.465517 Z"/><path id="Rectangle-17-Copy-501" d="M844.224138,361.465517 L904.568966,361.465517 L904.568966,451.982759 L844.224138,451.982759 L844.224138,361.465517 Z"/><path id="Rectangle-17-Copy-502" d="M904.568966,361.465517 L964.913793,361.465517 L964.913793,451.982759 L904.568966,451.982759 L904.568966,361.465517 Z"/><path id="Rectangle-17-Copy-487" d="M-0.603448276,270.948276 L120.086207,270.948276 L120.086207,361.465517 L-0.603448276,361.465517 L-0.603448276,270.948276 Z"/><path id="Rectangle-17-Copy-487" d="M120.086207,270.948276 L240.775862,270.948276 L240.775862,361.465517 L120.086207,361.465517 L120.086207,270.948276 Z"/><path id="Rectangle-17-Copy-487" d="M240.775862,270.948276 L361.465517,270.948276 L361.465517,361.465517 L240.775862,361.465517 L240.775862,270.948276 Z"/><path id="Rectangle-17-Copy-487" d="M361.465517,270.948276 L482.155172,270.948276 L482.155172,361.465517 L361.465517,361.465517 L361.465517,270.948276 Z"/><path id="Rectangle-17-Copy-487" d="M482.155172,270.948276 L602.844828,270.948276 L602.844828,361.465517 L482.155172,361.465517 L482.155172,270.948276 Z"/><path id="Rectangle-17-Copy-487" d="M602.844828,270.948276 L723.534483,270.948276 L723.534483,361.465517 L602.844828,361.465517 L602.844828,270.948276 Z"/><path id="Rectangle-17-Copy-487" d="M723.534483,270.948276 L844.224138,270.948276 L844.224138,361.465517 L723.534483,361.465517 L723.534483,270.948276 Z"/><path id="Rectangle-17-Copy-487" d="M844.224138,270.948276 L964.913793,270.948276 L964.913793,361.465517 L844.224138,361.465517 L844.224138,270.948276 Z"/><path id="Rectangle-17-Copy-487" d="M723.534483,180.431034 L964.913793,180.431034 L964.913793,270.948276 L723.534483,270.948276 L723.534483,180.431034 Z"/><path id="Rectangle-17-Copy-487" d="M482.155172,180.431034 L723.534483,180.431034 L723.534483,270.948276 L482.155172,270.948276 L482.155172,180.431034 Z"/><path id="Rectangle-17-Copy-487" d="M240.775862,180.431034 L482.155172,180.431034 L482.155172,270.948276 L240.775862,270.948276 L240.775862,180.431034 Z"/><path id="Rectangle-17-Copy-487" d="M-0.603448276,180.431034 L240.775862,180.431034 L240.775862,270.948276 L-0.603448276,270.948276 L-0.603448276,180.431034 Z"/><path id="Rectangle-17-Copy-487" d="M-0.603448276,89.9137931 L482.155172,89.9137931 L482.155172,180.431034 L-0.603448276,180.431034 L-0.603448276,89.9137931 Z"/><path id="Rectangle-17-Copy-487" d="M482.155172,89.9137931 L964.913793,89.9137931 L964.913793,180.431034 L482.155172,180.431034 L482.155172,89.9137931 Z"/><path id="Rectangle-17-Copy-487" d="M-0.603448276,-0.603448276 L964.913793,-0.603448276 L964.913793,89.9137931 L-0.603448276,89.9137931 L-0.603448276,-0.603448276 Z"/></g><g id="browser"><rect id="Rectangle-17-Copy-487" width="965.517" height="452.586" x=".603" y="23.534" stroke="#BEBEBE" stroke-width="1.207"/><path id="Rectangle-2-Copy-25" fill="#565656" d="M3.05454545,0 L963.669592,0 C965.356571,-3.09892991e-16 966.724138,1.36756658 966.724138,3.05454545 L966.724138,24.0798778 L0,24.0798778 L0,3.05454545 C-2.06595328e-16,1.36756658 1.36756658,3.09892991e-16 3.05454545,0 Z"/><ellipse id="Oval-5-Copy-18" cx="15.69" cy="12.06" fill="#FFF" rx="3.621" ry="3.612"/><ellipse id="Oval-5-Copy-19" cx="30.172" cy="12.06" fill="#FFF" rx="3.621" ry="3.612"/></g></g></g><rect id="Rectangle" width="1120" height="630" x="0" y="0"/></g></g></svg>